<?xml version="1.0" encoding="UTF-8" standalone="no"?>
<svg
   xmlns:dc="http://purl.org/dc/elements/1.1/"
   xmlns:cc="http://creativecommons.org/ns#"
   xmlns:rdf="http://www.w3.org/1999/02/22-rdf-syntax-ns#"
   xmlns:svg="http://www.w3.org/2000/svg"
   xmlns="http://www.w3.org/2000/svg"
   xmlns:sodipodi="http://sodipodi.sourceforge.net/DTD/sodipodi-0.dtd"
   xmlns:inkscape="http://www.inkscape.org/namespaces/inkscape"
   version="1.1"
   x="0px"
   y="0px"
   viewBox="0 0 28 27.949945"
   xml:space="preserve"
   id="svg38"
   sodipodi:docname="smartWB_Logo_only_grey.svg"
   inkscape:version="1.0.1 (3bc2e813f5, 2020-09-07)"
   width="28"
   height="27.949945"><metadata
   id="metadata44"><rdf:RDF><cc:Work
       rdf:about=""><dc:format>image/svg+xml</dc:format><dc:type
         rdf:resource="http://purl.org/dc/dcmitype/StillImage" /><dc:title></dc:title></cc:Work></rdf:RDF></metadata><defs
   id="defs42">
	</defs><sodipodi:namedview
   pagecolor="#ffffff"
   bordercolor="#666666"
   borderopacity="1"
   objecttolerance="10"
   gridtolerance="10"
   guidetolerance="10"
   inkscape:pageopacity="0"
   inkscape:pageshadow="2"
   inkscape:window-width="1920"
   inkscape:window-height="1017"
   id="namedview40"
   showgrid="false"
   inkscape:zoom="13.6"
   inkscape:cx="11.392061"
   inkscape:cy="6.7849896"
   inkscape:window-x="-8"
   inkscape:window-y="-8"
   inkscape:window-maximized="1"
   inkscape:current-layer="svg38" />
<style
   type="text/css"
   id="style2">
	.st0{fill:#29343F;}
	.st1{fill:#01BB44;}
</style>
<path
   class="st0"
   d="m 8.2998745,17.586082 0.3864491,0.649937 c -0.1932244,0.29862 -0.3074027,0.649937 -0.3074027,1.036386 0,1.053953 0.8607278,1.91468 1.9146801,1.91468 1.053952,0 1.91468,-0.860727 1.91468,-1.91468 0,-0.368883 -0.105395,-0.711418 -0.289837,-1.010037 l 0.386449,-0.658721 c 0.377667,0.456713 0.59724,1.036387 0.59724,1.668758 0,1.440402 -1.16813,2.617315 -2.617315,2.617315 -1.4404014,0 -2.6173149,-1.16813 -2.6173149,-2.617315 0.017566,-0.641154 0.2547053,-1.229611 0.6323714,-1.686323 z m 7.3952325,-0.0088 0.386449,0.65872 c -0.193225,0.29862 -0.307403,0.65872 -0.307403,1.045169 0,1.053953 0.860728,1.91468 1.91468,1.91468 1.053952,0 1.91468,-0.860727 1.91468,-1.91468 0,-0.368883 -0.105395,-0.711418 -0.289837,-1.010037 l 0.386449,-0.658721 c 0.377667,0.456713 0.59724,1.036387 0.59724,1.668758 0,1.440402 -1.16813,2.617315 -2.617315,2.617315 -1.440401,0 -2.617315,-1.16813 -2.617315,-2.617315 0,-0.649937 0.23714,-1.247177 0.632372,-1.703889 z M 7.1141783,15.601138 c -0.166876,0.03513 -0.3425347,0.0527 -0.5181934,0.0527 -1.4404016,0 -2.6173148,-1.168131 -2.6173148,-2.617315 0,-1.440402 1.1681305,-2.617315 2.6173148,-2.617315 1.4404016,0 2.6173151,1.16813 2.6173151,2.617315 0,0.632371 -0.2283566,1.220828 -0.6060227,1.668758 L 8.2120452,14.046558 c 0.1844417,-0.298619 0.289837,-0.641154 0.289837,-1.01882 0,-1.053953 -0.8607278,-1.91468 -1.9146803,-1.91468 -1.0539522,0 -1.91468,0.860727 -1.91468,1.91468 0,1.053952 0.8607278,1.91468 1.91468,1.91468 0.043915,0 0.087829,0 0.131744,0 z M 19.392723,14.714061 c -0.386449,-0.456712 -0.614806,-1.045169 -0.614806,-1.686323 0,-1.440402 1.168131,-2.617315 2.617315,-2.617315 1.440402,0 2.617315,1.16813 2.617315,2.617315 0,1.440401 -1.16813,2.617315 -2.617315,2.617315 -0.175659,0 -0.342534,-0.01757 -0.50941,-0.0527 l 0.386449,-0.65872 c 0.04391,0 0.07905,0 0.122961,0 1.053952,0 1.91468,-0.860728 1.91468,-1.91468 0,-1.053952 -0.860728,-1.91468 -1.91468,-1.91468 -1.053952,0 -1.91468,0.860728 -1.91468,1.91468 0,0.377666 0.105395,0.728984 0.29862,1.027603 z m -7.377667,0 c -0.386449,-0.456712 -0.614805,-1.045169 -0.614805,-1.686323 0,-1.440402 1.16813,-2.617315 2.617315,-2.617315 1.440401,0 2.617315,1.16813 2.617315,2.617315 0,0.641154 -0.228357,1.229611 -0.614806,1.686323 l -0.386449,-0.65872 c 0.184442,-0.29862 0.29862,-0.649937 0.29862,-1.027603 0,-1.053953 -0.860728,-1.91468 -1.91468,-1.91468 -1.053952,0 -1.91468,0.860727 -1.91468,1.91468 0,0.377666 0.105395,0.728983 0.29862,1.027603 z"
   id="path4"
   style="fill:#000000;fill-opacity:0.53887397;stroke-width:0.0878294" /><path
   class="st1"
   d="m 20.473024,13.818202 c -0.175659,-0.21079 -0.289837,-0.483061 -0.289837,-0.781681 0,-0.667503 0.544542,-1.212045 1.212045,-1.212045 0.667503,0 1.212045,0.544542 1.212045,1.212045 0,0.667503 -0.544542,1.212045 -1.212045,1.212045 -0.07905,0 -0.158093,-0.0088 -0.237139,-0.02635 l -2.529486,4.27729 c 0.175659,0.21079 0.289837,0.483061 0.289837,0.781681 0,0.667503 -0.544542,1.212045 -1.212045,1.212045 -0.667503,0 -1.212045,-0.544542 -1.212045,-1.212045 0,-0.29862 0.105395,-0.570891 0.289837,-0.781681 l -2.529486,-4.27729 c -0.07905,0.01757 -0.158093,0.02635 -0.237139,0.02635 -0.07905,0 -0.158093,-0.0088 -0.237139,-0.02635 l -2.529486,4.27729 c 0.175659,0.21079 0.289837,0.483061 0.289837,0.781681 0,0.667503 -0.544542,1.212045 -1.212045,1.212045 -0.6675035,0 -1.2120453,-0.544542 -1.2120453,-1.212045 0,-0.29862 0.105395,-0.562108 0.2810537,-0.772898 L 6.8331243,14.222217 c -0.079046,0.01757 -0.1580928,0.02635 -0.2459224,0.02635 -0.6675031,0 -1.2120452,-0.544542 -1.2120452,-1.212045 0,-0.667503 0.5445421,-1.212045 1.2120452,-1.212045 0.6675031,0 1.2120452,0.544542 1.2120452,1.212045 0,0.29862 -0.1053953,0.562108 -0.281054,0.772898 l 2.5646179,4.286073 c 0.07905,-0.01757 0.158092,-0.02635 0.245922,-0.02635 0.07905,0 0.158093,0.0088 0.237139,0.02635 l 2.529486,-4.27729 c -0.175659,-0.21079 -0.289837,-0.483061 -0.289837,-0.781681 0,-0.667503 0.544542,-1.212045 1.212045,-1.212045 0.667503,0 1.212045,0.544542 1.212045,1.212045 0,0.29862 -0.105395,0.570891 -0.289837,0.781681 l 2.529486,4.27729 c 0.07905,-0.01757 0.158093,-0.02635 0.237139,-0.02635 0.07905,0 0.158093,0.0088 0.237139,0.02635 z"
   id="path6"
   style="fill:#000000;fill-opacity:0.53887397;stroke-width:0.0878294" /><path
   class="st0"
   d="m 10.302384,6.0101719 c -0.9924719,0 -1.8005018,0.8080302 -1.8005018,1.800502 0,0.9924716 0.8080299,1.8005017 1.8005018,1.8005017 0.992472,0 1.800502,-0.8080301 1.800502,-1.8005017 0,-0.9924718 -0.80803,-1.800502 -1.800502,-1.800502 z m 0,0.7026351 c 0.606023,0 1.097867,0.4918444 1.097867,1.0978669 0,0.6060225 -0.491844,1.0978669 -1.097867,1.0978669 -0.6060226,0 -1.097867,-0.4918444 -1.097867,-1.0978669 0,-0.6060225 0.4918444,-1.0978669 1.097867,-1.0978669 z"
   id="path8"
   style="fill:#000000;fill-opacity:0.53887397;stroke-width:0.0878294" /><path
   class="st0"
   d="m 17.68005,6.0101719 c -0.992472,0 -1.800502,0.8080302 -1.800502,1.800502 0,0.9924716 0.80803,1.8005017 1.800502,1.8005017 0.992472,0 1.800502,-0.8080301 1.800502,-1.8005017 0,-0.9924718 -0.80803,-1.800502 -1.800502,-1.800502 z m 0,0.7026351 c 0.606023,0 1.097867,0.4918444 1.097867,1.0978669 0,0.6060225 -0.491844,1.0978669 -1.097867,1.0978669 -0.606022,0 -1.097867,-0.4918444 -1.097867,-1.0978669 0.0088,-0.6060225 0.491845,-1.0978669 1.097867,-1.0978669 z"
   id="path10"
   style="fill:#000000;fill-opacity:0.53887397;stroke-width:0.0878294" /><path
   class="st1"
   d="m 20.473024,24.603647 c 0.263488,-0.166875 0.597239,-0.149309 0.843162,0.02635 v 0 c 0.21079,0.14931 0.333751,0.395232 0.324968,0.649938 -0.0088,0.254705 -0.140527,0.491844 -0.3601,0.632371 -2.125471,1.29109 -4.619824,2.03764 -7.281054,2.03764 -2.670013,0 -5.1643664,-0.74655 -7.2810541,-2.046424 -0.2195733,-0.140527 -0.3513174,-0.368883 -0.3601001,-0.623588 -0.00878,-0.254706 0.1141781,-0.500628 0.3249684,-0.649938 -0.00878,-0.0088 0,-0.0088 0,-0.0088 0.2459224,-0.175658 0.5884568,-0.193224 0.8431619,-0.02635 1.8883313,1.150565 4.1016309,1.818068 6.4730239,1.818068 2.371393,0.0088 4.584693,-0.65872 6.473024,-1.809285 z"
   id="path12"
   style="fill:#000000;fill-opacity:0.53887397;stroke-width:0.0878294" /><path
   class="st1"
   d="m 0.3425345,10.858353 c 0.0614806,-0.245923 0.23713927,-0.456713 0.48306149,-0.544542 0.23713931,-0.08783 0.50941031,-0.0527 0.72020071,0.09661 v 0 c 0.2459222,0.175659 0.3688834,0.491844 0.2986199,0.790464 -0.2020076,0.887077 -0.3074028,1.809285 -0.3074028,2.749059 0,3.627353 1.5545798,6.894605 4.0225846,9.169385 0.1756587,0.158093 0.2634883,0.377666 0.2547053,0.614806 -0.017566,0.228356 -0.131744,0.44793 -0.3249687,0.579674 v 0 C 5.199498,24.524599 4.7954832,24.49825 4.5319949,24.261109 1.7478043,21.696496 0,18.025228 0,13.949946 0,12.887211 0.11417817,11.859607 0.3425345,10.858353 Z"
   id="path14"
   style="fill:#000000;fill-opacity:0.53887397;stroke-width:0.0878294" /><path
   class="st1"
   d="m 26.902133,10.261113 c 0.01757,0.06148 0.02635,0.122961 0.01757,0.175659 0.0088,-0.01757 0.0088,-0.04392 0.0088,-0.08783 0,-0.01757 0,-0.04391 -0.02635,-0.08783 0.09661,0 0.184442,0.01757 0.272271,0.0527 0.237139,0.08783 0.421581,0.298619 0.483061,0.544542 0.219554,0.99247 0.342514,2.028857 0.342514,3.091592 0,4.075282 -1.747803,7.755333 -4.531994,10.311167 -0.263488,0.245922 -0.667503,0.263488 -0.95734,0.0527 v 0 c -0.184442,-0.140527 -0.307403,-0.351318 -0.316186,-0.579674 -0.01757,-0.228357 0.07905,-0.456713 0.254705,-0.614806 2.476788,-2.27478 4.031368,-5.542032 4.031368,-9.169385 0,-0.948557 -0.105395,-1.861982 -0.307403,-2.749059 -0.07026,-0.29862 0.0527,-0.606023 0.29862,-0.790464 0.114178,-0.09661 0.272271,-0.14931 0.430364,-0.14931 z m -4.136763,13.657465 0.01757,0.0088 c 0.114178,0.07905 0.263488,0.07026 0.368883,-0.01757 2.696362,-2.476787 4.382685,-6.025094 4.382685,-9.959849 0,-1.027603 -0.114178,-2.028858 -0.324968,-2.977415 -0.02635,-0.09661 -0.08783,-0.175659 -0.184442,-0.210791 -0.08783,-0.03513 -0.184442,-0.01757 -0.263488,0.02635 l -0.01757,0.0088 c -0.09661,0.07026 -0.140527,0.184442 -0.114178,0.29862 0.202008,0.922208 0.316186,1.879548 0.316186,2.854454 0,3.76788 -1.607278,7.158093 -4.180678,9.520703 -0.07026,0.06148 -0.105395,0.14931 -0.09661,0.237139 -0.0088,0.08783 0.02635,0.166876 0.09661,0.21079 z"
   id="path16"
   style="fill:#000000;fill-opacity:0.53887397;stroke-width:0.0878294" /><path
   class="st1"
   d="m 14.614806,0.31882942 c 0.03513,-0.0439147 0.06148,-0.0790464 0.105395,-0.11417816 0.158093,-0.14930991 0.368883,-0.2195734 0.588456,-0.20200753 5.138018,0.48306149 9.468005,3.73274777 11.488081,8.25595987 0.140527,0.3249685 0.03513,0.7114176 -0.254705,0.9222082 v 0 c -0.131744,0.096612 -0.289837,0.1405271 -0.44793,0.1405271 -0.0088,-0.043915 -0.01757,-0.079046 -0.01757,-0.1229611 0,0.017566 0,0.035132 0.0088,0.079046 0,0.017566 0.0088,0.026349 0.01757,0.043915 -0.07026,0 -0.131744,-0.00878 -0.202008,-0.026349 C 25.672522,9.2335095 25.496863,9.0754165 25.400251,8.8558431 23.608532,4.8420414 19.761606,1.9524555 15.194479,1.5220917 14.799247,1.4869599 14.500627,1.1532084 14.500627,0.75797623 v 0 c -0.02635,-0.14052696 0.02635,-0.29861982 0.114179,-0.43914681 0.01756,0.008783 0.03513,0.0175659 0.0527,0.0263488 0.04392,0.0175659 0.07905,0.0439147 0.114178,0.0790464 -0.01757,-0.0263488 -0.0527,-0.0702635 -0.166875,-0.10539523 z M 26.243413,8.8207114 c 0.0088,-0.00878 0.0088,-0.00878 0.01757,-0.017566 0.114178,-0.079046 0.14931,-0.2283564 0.09661,-0.3513174 -1.949814,-4.3651192 -6.139274,-7.5094102 -11.09285,-7.97490582 -0.07905,-0.008783 -0.166876,0.0175659 -0.228357,0.0790464 -0.0527,0.0526976 -0.08783,0.12296112 -0.09661,0.1932246 0,0.008783 0,0.0175659 0,0.0263488 0,0.14930992 0.114178,0.28105402 0.272271,0.28983692 4.742786,0.4391468 8.739021,3.442911 10.601004,7.6148054 0.03513,0.079047 0.105395,0.14931 0.193225,0.1668757 0.07905,0.026349 0.166875,0.017566 0.237139,-0.026349 z"
   id="path18"
   style="fill:#000000;fill-opacity:0.53887397;stroke-width:0.0878294" /><path
   class="st1"
   d="m 12.691343,0.01142667 c 0.21079,-0.01756587 0.42158,0.05269761 0.579673,0.20200753 0.158093,0.1493099 0.245923,0.35131743 0.245923,0.5621079 v 0 c 0,0.3952321 -0.307403,0.7289837 -0.702635,0.7641155 C 8.2471769,1.9612385 4.4002508,4.8596074 2.5997491,8.8646261 2.5119197,9.0754165 2.327478,9.2335095 2.0991217,9.2949899 1.8707654,9.3564705 1.6336261,9.3125559 1.4491844,9.1808118 v 0 C 1.1505646,8.9700212 1.0451694,8.5835721 1.1944793,8.2498207 3.2233376,3.7441745 7.5533251,0.48570522 12.691343,0.01142667 Z"
   id="path20"
   style="fill:#000000;fill-opacity:0.53887397;stroke-width:0.0878294" />
<g
   id="Guides"
   transform="translate(-340.6,-273.5699)">
</g>
</svg>
