<?xml version="1.0" encoding="UTF-8" standalone="no"?>
<!-- Created with Inkscape (http://www.inkscape.org/) -->

<svg
   xmlns:dc="http://purl.org/dc/elements/1.1/"
   xmlns:cc="http://creativecommons.org/ns#"
   xmlns:rdf="http://www.w3.org/1999/02/22-rdf-syntax-ns#"
   xmlns:svg="http://www.w3.org/2000/svg"
   xmlns="http://www.w3.org/2000/svg"
   xmlns:sodipodi="http://sodipodi.sourceforge.net/DTD/sodipodi-0.dtd"
   xmlns:inkscape="http://www.inkscape.org/namespaces/inkscape"
   width="230"
   height="125"
   viewBox="0 0 60.854166 33.072917"
   version="1.1"
   id="svg1026"
   sodipodi:docname="_status_ready.svg"
   inkscape:version="0.92.2 (5c3e80d, 2017-08-06)">
  <defs
     id="defs1020" />
  <sodipodi:namedview
     id="base"
     pagecolor="#ffffff"
     bordercolor="#666666"
     borderopacity="1.0"
     inkscape:pageopacity="0.0"
     inkscape:pageshadow="2"
     inkscape:zoom="3.959798"
     inkscape:cx="105.74626"
     inkscape:cy="72.045303"
     inkscape:document-units="mm"
     inkscape:current-layer="layer1"
     showgrid="false"
     units="px"
     inkscape:window-width="1680"
     inkscape:window-height="987"
     inkscape:window-x="-8"
     inkscape:window-y="-8"
     inkscape:window-maximized="1"
     inkscape:pagecheckerboard="true" />
  <metadata
     id="metadata1023">
    <rdf:RDF>
      <cc:Work
         rdf:about="">
        <dc:format>image/svg+xml</dc:format>
        <dc:type
           rdf:resource="http://purl.org/dc/dcmitype/StillImage" />
        <dc:title></dc:title>
      </cc:Work>
    </rdf:RDF>
  </metadata>
  <g
     inkscape:label="Ebene 1"
     inkscape:groupmode="layer"
     id="layer1"
     transform="translate(0,-263.92705)">
    <path
       style="fill:#000000;fill-opacity:1;stroke-width:0.17197916"
       d="m 0.26458533,283.06489 c 0,-12.99832 0.01602,-13.71264 0.325677,-14.52761 0.69240817,-1.82227 2.16133217,-3.23284 3.94891817,-3.79205 0.601141,-0.18806 1.457738,-0.34192 1.903549,-0.34192 0.995792,0 2.43807,0.41368 3.264086,0.93622 0.8861395,0.56057 2.0502485,1.88152 2.4826385,2.81711 0.330807,0.7158 0.377821,1.1583 0.428021,4.02873 l 0.05639,3.22461 h 0.964175 c 1.247022,0 2.305673,0.50331 2.829072,1.34504 0.39128,0.62925 0.39391,0.67563 0.479428,8.45777 0.04729,4.30378 0.146459,7.94523 0.220367,8.09212 0.195813,0.38917 1.051731,0.8508 1.577493,0.8508 0.609017,0 1.408876,-0.43082 1.679618,-0.90467 0.148935,-0.26068 0.247866,-1.47921 0.30606,-3.76978 0.07809,-3.07368 0.118562,-3.42817 0.440574,-3.8589 0.195021,-0.26087 0.568234,-0.63387 0.829361,-0.8289 0.462882,-0.34569 0.693803,-0.35577 9.215739,-0.40211 8.740957,-0.0475 8.740957,-0.0475 8.842921,-0.45377 0.05608,-0.22345 0.376212,-0.64705 0.711406,-0.94136 0.572427,-0.5026 0.692286,-0.5351 1.973308,-0.5351 1.279256,0 1.401443,0.033 1.969649,0.53189 0.339883,0.29842 0.693412,0.82436 0.805416,1.19819 0.16608,0.55433 0.150034,0.79618 -0.09547,1.43902 -0.19203,0.50283 -0.491747,0.89425 -0.858111,1.12067 -0.627606,0.38788 -2.112528,0.54739 -2.968192,0.31885 -0.577626,-0.15429 -1.604954,-1.18162 -1.604954,-1.60497 0,-0.2179 -1.140967,-0.25198 -8.435511,-0.25198 -6.989484,0 -8.517265,0.0423 -8.912437,0.24663 -0.93805,0.48508 -0.961473,0.58083 -1.053802,4.30756 -0.08599,3.47087 -0.08599,3.47087 -0.581602,4.12002 -0.272586,0.35704 -0.773417,0.76523 -1.112955,0.9071 -0.802344,0.33524 -2.063429,0.2136 -2.733722,-0.2637 -1.05272,-0.7496 -1.056369,-0.77944 -1.084214,-8.8659 -0.01393,-4.04547 -0.09722,-7.61578 -0.185092,-7.93402 -0.08787,-0.31823 -0.395609,-0.77707 -0.683865,-1.01962 -0.433453,-0.36472 -0.700289,-0.441 -1.54278,-0.441 h -1.018676 v 10.23276 10.23276 H 6.4558245 0.26458333 Z m 7.26275117,3.56764 c 1.430129,-2.15321 1.955791,-3.07653 1.805779,-3.17183 -0.116388,-0.0739 -0.811392,-0.1356 -1.544452,-0.13705 -0.73306,-10e-4 -1.332837,-0.0463 -1.332837,-0.0996 0,-0.0533 0.348257,-0.91219 0.773905,-1.90864 0.766039,-1.79332 0.924014,-2.37633 0.613807,-2.26526 -0.258696,0.0926 -4.452082,5.72013 -4.367843,5.86162 0.04224,0.0709 0.768737,0.12899 1.61445,0.12899 0.862793,0 1.537661,0.0721 1.537661,0.16434 0,0.0904 -0.348257,1.06541 -0.773905,2.16673 -0.425648,1.10131 -0.773906,2.07213 -0.773906,2.15737 0,0.0852 0.09674,0.15177 0.214974,0.14783 0.118236,-0.004 1.122801,-1.37399 2.232367,-3.04455 z m 36.8498045,-0.93511 c 0.360075,-0.42792 0.438441,-0.66228 0.35943,-1.07487 -0.05558,-0.2902 -0.298918,-0.70176 -0.540763,-0.91458 -0.351449,-0.30928 -0.646511,-0.38695 -1.469824,-0.38695 -0.864381,0 -1.098012,0.0679 -1.45223,0.42213 -0.291448,0.29145 -0.42213,0.61331 -0.42213,1.03969 0,0.42638 0.130682,0.74824 0.42213,1.03969 0.361013,0.36102 0.582892,0.42213 1.532522,0.42213 1.036758,0 1.14093,-0.0363 1.570865,-0.54724 z M 10.411344,273.69018 v -2.23572 H 6.4558265 2.5003115 v 2.23572 2.23574 h 3.955515 3.9555175 z"
       id="path213"
       inkscape:connector-curvature="0"
       sodipodi:nodetypes="sccsccscssscscscccccscscccsscscscsccscccccscccssccsssscccccscscscccccccccc" />
  </g>
</svg>
