M48
METRIC,LZ,000.000
;FILE_FORMAT=3:3
;TYPE=PLATED
;Layer: PTH_Through
;EasyEDA v6.5.22, 2023-01-05 13:27:54
;3fff428916324e5da58f8526390e409d,db865e68f4bc4fd99aa1dd1697a786d6,10
;Gerber Generator version 0.2
;Holesize 1 = 0.762 mm
T01C0.762
;Holesize 2 = 0.915 mm
T02C0.915
;Holesize 3 = 1.000 mm
T03C1.000
%
G05
G90
T01
X035052Y023622
X035052Y021082
X035052Y045847
X035052Y043307
X035052Y062992
X035052Y060452
X035052Y018034
X035052Y015494
T02
X019558Y066040
X022098Y066040
X024638Y066040
X027178Y066040
X035052Y049657
X035052Y052197
X035052Y054737
X035052Y057277
X016129Y066040
X013589Y066040
X011049Y066040
X008509Y066040
X035052Y027178
X035052Y029718
X035052Y032258
X035052Y034798
X035052Y037338
X035052Y039878
X007493Y061341
X007493Y058801
X007493Y056261
X007493Y053721
X007493Y051181
X007493Y048641
X007493Y046101
X007493Y043561
X007493Y041021
X007493Y038481
X007493Y035941
X007493Y033401
X007493Y030861
X007493Y028321
X007493Y025781
X007493Y023241
X007493Y020701
X007493Y018161
X007493Y015621
X030353Y015621
X030353Y018161
X030353Y020701
X030353Y023241
X030353Y025781
X030353Y028321
X030353Y030861
X030353Y033401
X030353Y035941
X030353Y038481
X030353Y041021
X030353Y043561
X030353Y046101
X030353Y048641
X030353Y051181
X030353Y053721
X030353Y056261
X030353Y058801
X030353Y061341
T03
X030861Y066040
X033401Y066040
X035941Y066040
M30
