G04 Layer: BottomLayer*
G04 EasyEDA v6.5.22, 2023-01-05 13:27:54*
G04 3fff428916324e5da58f8526390e409d,db865e68f4bc4fd99aa1dd1697a786d6,10*
G04 Gerber Generator version 0.2*
G04 Scale: 100 percent, Rotated: No, Reflected: No *
G04 Dimensions in millimeters *
G04 leading zeros omitted , absolute positions ,4 integer and 5 decimal *
%FSLAX45Y45*%
%MOMM*%

%ADD10C,0.3500*%
%ADD11C,1.5240*%
%ADD12R,1.5000X1.5000*%
%ADD13C,1.5000*%
%ADD14R,1.6510X1.6510*%
%ADD15C,1.6510*%
%ADD16R,1.5240X1.5240*%
%ADD17C,0.6100*%
%ADD18C,0.0144*%

%LPD*%
G36*
X2808782Y6528511D02*
G01*
X2804464Y6529476D01*
X2800959Y6532219D01*
X2798978Y6536181D01*
X2798826Y6540652D01*
X2800604Y6544716D01*
X2803855Y6549085D01*
X2810408Y6561023D01*
X2815285Y6573774D01*
X2818485Y6587032D01*
X2819806Y6600596D01*
X2819349Y6614210D01*
X2818790Y6617563D01*
X2819044Y6621932D01*
X2821076Y6625793D01*
X2824530Y6628434D01*
X2828848Y6629400D01*
X3230321Y6629400D01*
X3234537Y6628485D01*
X3237992Y6625945D01*
X3240074Y6622186D01*
X3240379Y6617868D01*
X3239465Y6610756D01*
X3239465Y6597243D01*
X3241243Y6583883D01*
X3244799Y6570929D01*
X3250082Y6558483D01*
X3256940Y6546900D01*
X3258464Y6544970D01*
X3260394Y6540906D01*
X3260394Y6536385D01*
X3258413Y6532321D01*
X3254857Y6529527D01*
X3250488Y6528511D01*
X3197148Y6528511D01*
X3193288Y6529273D01*
X3189986Y6531508D01*
X3187801Y6534759D01*
X3186988Y6538671D01*
X3186988Y6560159D01*
X3129940Y6560159D01*
X3129940Y6538671D01*
X3129178Y6534759D01*
X3126994Y6531508D01*
X3123692Y6529273D01*
X3119780Y6528511D01*
X3052419Y6528511D01*
X3048508Y6529273D01*
X3045206Y6531508D01*
X3043021Y6534759D01*
X3042259Y6538671D01*
X3042259Y6560159D01*
X2985211Y6560159D01*
X2985211Y6538671D01*
X2984398Y6534759D01*
X2982214Y6531508D01*
X2978912Y6529273D01*
X2975051Y6528511D01*
G37*

%LPD*%
G36*
X1510842Y6517640D02*
G01*
X1506982Y6518402D01*
X1503680Y6520637D01*
X1459179Y6565138D01*
X1457096Y6568135D01*
X1456232Y6571691D01*
X1456639Y6575298D01*
X1458214Y6580327D01*
X1460449Y6593789D01*
X1460906Y6607403D01*
X1459839Y6618224D01*
X1460296Y6622389D01*
X1462430Y6626047D01*
X1465834Y6628536D01*
X1469948Y6629400D01*
X2098751Y6629400D01*
X2103069Y6628434D01*
X2106523Y6625793D01*
X2108555Y6621932D01*
X2108809Y6617563D01*
X2108250Y6614210D01*
X2107793Y6600596D01*
X2109114Y6587032D01*
X2112111Y6574536D01*
X2112314Y6571132D01*
X2111400Y6567830D01*
X2109419Y6564985D01*
X2065020Y6520637D01*
X2061718Y6518402D01*
X2057857Y6517640D01*
X2037943Y6517640D01*
X2034082Y6518402D01*
X2030780Y6520586D01*
X2028596Y6523837D01*
X2027783Y6527698D01*
X2028494Y6531559D01*
X2030628Y6534861D01*
X2033778Y6538112D01*
X2041855Y6549085D01*
X2047595Y6559550D01*
X2000250Y6559550D01*
X2000250Y6527800D01*
X1999488Y6523888D01*
X1997252Y6520637D01*
X1994001Y6518402D01*
X1990089Y6517640D01*
X1921510Y6517640D01*
X1917598Y6518402D01*
X1914347Y6520637D01*
X1912112Y6523888D01*
X1911350Y6527800D01*
X1911350Y6559550D01*
X1864004Y6559550D01*
X1869744Y6549085D01*
X1877822Y6538112D01*
X1880971Y6534861D01*
X1883105Y6531559D01*
X1883816Y6527698D01*
X1883003Y6523837D01*
X1880819Y6520586D01*
X1877517Y6518402D01*
X1873656Y6517640D01*
X1695145Y6517640D01*
X1691386Y6518351D01*
X1688185Y6520434D01*
X1685950Y6523532D01*
X1685036Y6527241D01*
X1685543Y6531000D01*
X1687423Y6534353D01*
X1695094Y6543446D01*
X1702409Y6554927D01*
X1704543Y6559550D01*
X1657350Y6559550D01*
X1657350Y6527800D01*
X1656588Y6523888D01*
X1654352Y6520637D01*
X1651101Y6518402D01*
X1647189Y6517640D01*
X1578610Y6517640D01*
X1574698Y6518402D01*
X1571447Y6520637D01*
X1569212Y6523888D01*
X1568450Y6527800D01*
X1568450Y6559550D01*
X1521256Y6559550D01*
X1523390Y6554927D01*
X1530705Y6543446D01*
X1538376Y6534353D01*
X1540256Y6531000D01*
X1540764Y6527241D01*
X1539849Y6523532D01*
X1537614Y6520434D01*
X1534414Y6518351D01*
X1530654Y6517640D01*
G37*

%LPD*%
G36*
X653542Y1283208D02*
G01*
X649681Y1283970D01*
X646379Y1286154D01*
X644144Y1289405D01*
X643382Y1293266D01*
X640994Y1507896D01*
X641908Y1512214D01*
X644499Y1515719D01*
X648411Y1517802D01*
X652780Y1518056D01*
X656894Y1516430D01*
X659892Y1513179D01*
X665124Y1504340D01*
X673608Y1493621D01*
X683412Y1484122D01*
X694385Y1476044D01*
X706323Y1469491D01*
X719074Y1464614D01*
X732332Y1461414D01*
X745896Y1460093D01*
X759510Y1460550D01*
X772972Y1462786D01*
X785977Y1466850D01*
X798372Y1472590D01*
X809853Y1479905D01*
X820267Y1488694D01*
X829411Y1498854D01*
X837133Y1510080D01*
X843280Y1522222D01*
X847750Y1535125D01*
X850493Y1548485D01*
X851408Y1562100D01*
X850493Y1575714D01*
X847750Y1589074D01*
X843280Y1601978D01*
X837133Y1614119D01*
X829411Y1625346D01*
X820267Y1635506D01*
X809853Y1644294D01*
X798372Y1651609D01*
X785977Y1657350D01*
X772972Y1661414D01*
X759510Y1663649D01*
X745896Y1664106D01*
X732332Y1662785D01*
X719074Y1659585D01*
X706323Y1654708D01*
X694385Y1648155D01*
X683412Y1640078D01*
X673608Y1630578D01*
X665124Y1619859D01*
X658723Y1608988D01*
X655726Y1605838D01*
X651713Y1604162D01*
X647344Y1604365D01*
X643483Y1606397D01*
X640791Y1609852D01*
X639826Y1614068D01*
X638098Y1767332D01*
X638810Y1771243D01*
X640994Y1774545D01*
X644296Y1776780D01*
X648157Y1777593D01*
X652068Y1776882D01*
X655370Y1774698D01*
X665124Y1758340D01*
X673608Y1747621D01*
X683412Y1738122D01*
X694385Y1730044D01*
X706323Y1723491D01*
X719074Y1718614D01*
X732332Y1715414D01*
X745896Y1714093D01*
X759510Y1714550D01*
X772972Y1716786D01*
X785977Y1720850D01*
X798372Y1726590D01*
X809853Y1733905D01*
X820267Y1742693D01*
X829411Y1752854D01*
X837133Y1764080D01*
X843280Y1776222D01*
X847750Y1789125D01*
X850493Y1802485D01*
X851408Y1816100D01*
X850493Y1829714D01*
X847750Y1843074D01*
X843280Y1855978D01*
X837133Y1868119D01*
X829411Y1879346D01*
X820267Y1889506D01*
X809853Y1898294D01*
X798372Y1905609D01*
X785977Y1911350D01*
X772972Y1915414D01*
X759510Y1917649D01*
X745896Y1918106D01*
X732332Y1916785D01*
X719074Y1913585D01*
X706323Y1908708D01*
X694385Y1902155D01*
X683412Y1894078D01*
X673608Y1884578D01*
X665124Y1873859D01*
X658164Y1862124D01*
X656590Y1858314D01*
X654354Y1855063D01*
X651052Y1852879D01*
X647192Y1852117D01*
X643331Y1852879D01*
X640080Y1855063D01*
X637844Y1858314D01*
X637032Y1862175D01*
X635203Y2028139D01*
X635965Y2032050D01*
X638098Y2035352D01*
X641400Y2037588D01*
X645261Y2038400D01*
X649173Y2037689D01*
X652475Y2035505D01*
X654710Y2032203D01*
X658164Y2024075D01*
X665124Y2012340D01*
X673608Y2001621D01*
X683412Y1992122D01*
X694385Y1984044D01*
X706323Y1977491D01*
X719074Y1972614D01*
X732332Y1969414D01*
X745896Y1968093D01*
X759510Y1968550D01*
X772972Y1970786D01*
X785977Y1974850D01*
X798372Y1980590D01*
X809853Y1987905D01*
X820267Y1996693D01*
X829411Y2006854D01*
X837133Y2018080D01*
X843280Y2030222D01*
X847750Y2043125D01*
X850493Y2056485D01*
X851408Y2070100D01*
X850493Y2083714D01*
X847750Y2097074D01*
X843280Y2109978D01*
X837133Y2122119D01*
X829411Y2133346D01*
X820267Y2143506D01*
X809853Y2152294D01*
X798372Y2159609D01*
X785977Y2165350D01*
X772972Y2169414D01*
X759510Y2171649D01*
X745896Y2172106D01*
X732332Y2170785D01*
X719074Y2167585D01*
X706323Y2162708D01*
X694385Y2156155D01*
X683412Y2148078D01*
X673608Y2138578D01*
X665124Y2127859D01*
X658164Y2116124D01*
X653796Y2105863D01*
X651611Y2102612D01*
X648309Y2100427D01*
X644448Y2099665D01*
X640588Y2100427D01*
X637336Y2102612D01*
X635101Y2105863D01*
X634288Y2109673D01*
X632307Y2290013D01*
X633120Y2294077D01*
X635508Y2297480D01*
X639013Y2299665D01*
X643128Y2300224D01*
X647141Y2299106D01*
X650392Y2296515D01*
X652272Y2292807D01*
X652881Y2290622D01*
X658164Y2278075D01*
X665124Y2266340D01*
X673608Y2255621D01*
X683412Y2246122D01*
X694385Y2238044D01*
X706323Y2231491D01*
X719074Y2226614D01*
X732332Y2223414D01*
X745896Y2222093D01*
X759510Y2222550D01*
X772972Y2224786D01*
X785977Y2228850D01*
X798372Y2234590D01*
X809853Y2241905D01*
X820267Y2250694D01*
X829411Y2260854D01*
X837133Y2272080D01*
X843280Y2284222D01*
X847750Y2297125D01*
X850493Y2310485D01*
X851408Y2324100D01*
X850493Y2337714D01*
X847750Y2351074D01*
X843280Y2363978D01*
X837133Y2376119D01*
X829411Y2387346D01*
X820267Y2397506D01*
X809853Y2406294D01*
X798372Y2413609D01*
X785977Y2419350D01*
X772972Y2423414D01*
X759510Y2425649D01*
X745896Y2426106D01*
X732332Y2424785D01*
X719074Y2421585D01*
X706323Y2416708D01*
X694385Y2410155D01*
X683412Y2402078D01*
X673608Y2392578D01*
X665124Y2381859D01*
X658164Y2370124D01*
X652881Y2357577D01*
X651560Y2352751D01*
X649681Y2349093D01*
X646480Y2346452D01*
X642518Y2345334D01*
X638403Y2345842D01*
X634898Y2347976D01*
X632460Y2351328D01*
X631596Y2355342D01*
X629361Y2554681D01*
X630174Y2558796D01*
X632561Y2562199D01*
X636117Y2564384D01*
X640232Y2564942D01*
X644194Y2563825D01*
X647446Y2561183D01*
X649325Y2557526D01*
X652881Y2544622D01*
X658164Y2532075D01*
X665124Y2520340D01*
X673608Y2509621D01*
X683412Y2500122D01*
X694385Y2492044D01*
X706323Y2485491D01*
X719074Y2480614D01*
X732332Y2477414D01*
X745896Y2476093D01*
X759510Y2476550D01*
X772972Y2478786D01*
X785977Y2482850D01*
X798372Y2488590D01*
X809853Y2495905D01*
X820267Y2504694D01*
X829411Y2514854D01*
X837133Y2526080D01*
X843280Y2538222D01*
X847750Y2551125D01*
X850493Y2564485D01*
X851408Y2578100D01*
X850493Y2591714D01*
X847750Y2605074D01*
X843280Y2617978D01*
X837133Y2630119D01*
X829411Y2641346D01*
X820267Y2651506D01*
X809853Y2660294D01*
X798372Y2667609D01*
X785977Y2673350D01*
X772972Y2677414D01*
X759510Y2679649D01*
X745896Y2680106D01*
X732332Y2678785D01*
X719074Y2675585D01*
X706323Y2670708D01*
X694385Y2664155D01*
X683412Y2656078D01*
X673608Y2646578D01*
X665124Y2635859D01*
X658164Y2624124D01*
X652881Y2611577D01*
X649274Y2598420D01*
X647649Y2593289D01*
X644601Y2590241D01*
X640588Y2588666D01*
X636270Y2588920D01*
X632460Y2590952D01*
X629869Y2594406D01*
X628904Y2598623D01*
X584301Y6619138D01*
X585063Y6623050D01*
X587248Y6626402D01*
X590550Y6628638D01*
X594461Y6629400D01*
X739851Y6629400D01*
X743966Y6628536D01*
X747369Y6626047D01*
X749503Y6622389D01*
X749960Y6618224D01*
X748893Y6607403D01*
X749350Y6593789D01*
X751586Y6580327D01*
X755650Y6567322D01*
X761390Y6554927D01*
X768705Y6543446D01*
X777494Y6533032D01*
X787654Y6523888D01*
X798880Y6516166D01*
X811022Y6510020D01*
X823925Y6505549D01*
X837285Y6502806D01*
X850900Y6501892D01*
X864514Y6502806D01*
X883056Y6506616D01*
X886764Y6505752D01*
X889863Y6503619D01*
X931316Y6462217D01*
X933500Y6458915D01*
X934313Y6455003D01*
X934313Y4888026D01*
X935482Y4879797D01*
X938021Y4872177D01*
X941933Y4865217D01*
X947318Y4858664D01*
X2935020Y2870962D01*
X2937052Y2868066D01*
X2937967Y2864662D01*
X2937662Y2861106D01*
X2935274Y2852420D01*
X2933446Y2838907D01*
X2933446Y2825292D01*
X2935274Y2811780D01*
X2938881Y2798622D01*
X2944164Y2786075D01*
X2951124Y2774340D01*
X2959608Y2763621D01*
X2969412Y2754122D01*
X2980385Y2746044D01*
X2992323Y2739491D01*
X3005074Y2734614D01*
X3018332Y2731414D01*
X3031896Y2730093D01*
X3045510Y2730550D01*
X3058972Y2732786D01*
X3071977Y2736850D01*
X3084372Y2742590D01*
X3095853Y2749905D01*
X3106267Y2758694D01*
X3115411Y2768854D01*
X3123133Y2780080D01*
X3129280Y2792222D01*
X3133750Y2805125D01*
X3136493Y2818485D01*
X3137408Y2832100D01*
X3136493Y2845714D01*
X3133750Y2859074D01*
X3129280Y2871978D01*
X3123133Y2884119D01*
X3115411Y2895346D01*
X3106267Y2905506D01*
X3095853Y2914294D01*
X3084372Y2921609D01*
X3071977Y2927350D01*
X3058972Y2931414D01*
X3045510Y2933649D01*
X3031896Y2934106D01*
X3018332Y2932785D01*
X3005836Y2929788D01*
X3002432Y2929585D01*
X2999130Y2930499D01*
X2996285Y2932480D01*
X1024077Y4904689D01*
X1021892Y4907991D01*
X1021130Y4911902D01*
X1021080Y6478879D01*
X1019911Y6487109D01*
X1017371Y6494729D01*
X1013460Y6501688D01*
X1008075Y6508242D01*
X951179Y6565138D01*
X949096Y6568135D01*
X948232Y6571691D01*
X948639Y6575298D01*
X950214Y6580327D01*
X952449Y6593789D01*
X952906Y6607403D01*
X951839Y6618224D01*
X952296Y6622389D01*
X954430Y6626047D01*
X957834Y6628536D01*
X961948Y6629400D01*
X993851Y6629400D01*
X997966Y6628536D01*
X1001369Y6626047D01*
X1003503Y6622389D01*
X1003960Y6618224D01*
X1002893Y6607403D01*
X1003350Y6593789D01*
X1005586Y6580327D01*
X1009650Y6567322D01*
X1015390Y6554927D01*
X1022705Y6543446D01*
X1031494Y6533032D01*
X1041653Y6523888D01*
X1052880Y6516166D01*
X1055928Y6514642D01*
X1058875Y6512356D01*
X1060805Y6509207D01*
X1061516Y6505549D01*
X1061516Y4928209D01*
X1062685Y4919929D01*
X1065225Y4912360D01*
X1069136Y4905349D01*
X1074521Y4898847D01*
X2919171Y3054248D01*
X2925826Y3049219D01*
X2933090Y3045612D01*
X2938881Y3043834D01*
X2942183Y3042107D01*
X2944622Y3039313D01*
X2951124Y3028340D01*
X2959608Y3017621D01*
X2969412Y3008122D01*
X2980385Y3000044D01*
X2992323Y2993491D01*
X3005074Y2988614D01*
X3018332Y2985414D01*
X3031896Y2984093D01*
X3045510Y2984550D01*
X3058972Y2986786D01*
X3071977Y2990850D01*
X3084372Y2996590D01*
X3095853Y3003905D01*
X3106267Y3012694D01*
X3115411Y3022854D01*
X3123133Y3034080D01*
X3129280Y3046222D01*
X3133750Y3059125D01*
X3136493Y3072485D01*
X3137408Y3086100D01*
X3136493Y3099714D01*
X3133750Y3113074D01*
X3129280Y3125978D01*
X3123133Y3138119D01*
X3115411Y3149346D01*
X3106267Y3159506D01*
X3095853Y3168294D01*
X3084372Y3175609D01*
X3071977Y3181350D01*
X3058972Y3185414D01*
X3045510Y3187649D01*
X3031896Y3188106D01*
X3018332Y3186785D01*
X3005074Y3183585D01*
X2992323Y3178708D01*
X2980385Y3172155D01*
X2969412Y3164078D01*
X2955442Y3150768D01*
X2951327Y3149650D01*
X2947111Y3150260D01*
X2943555Y3152597D01*
X1688693Y4407458D01*
X1686560Y4410608D01*
X1685747Y4414316D01*
X1686356Y4418126D01*
X1688287Y4421378D01*
X1691335Y4423714D01*
X1694992Y4424730D01*
X1704797Y4425594D01*
X1714296Y4428134D01*
X1723186Y4432300D01*
X1731213Y4437938D01*
X1738172Y4444898D01*
X1743811Y4452924D01*
X1747977Y4461814D01*
X1751482Y4475327D01*
X1753514Y4478223D01*
X2727960Y5452719D01*
X2731262Y5454904D01*
X2735173Y5455666D01*
X2950565Y5455666D01*
X2954934Y5454700D01*
X2958490Y5451856D01*
X2960471Y5447842D01*
X2960471Y5443321D01*
X2958541Y5439257D01*
X2951124Y5429859D01*
X2944164Y5418124D01*
X2938881Y5405577D01*
X2935274Y5392420D01*
X2933446Y5378907D01*
X2933446Y5365292D01*
X2935274Y5351780D01*
X2938881Y5338622D01*
X2944164Y5326075D01*
X2951124Y5314340D01*
X2959608Y5303621D01*
X2969412Y5294122D01*
X2980385Y5286044D01*
X2992323Y5279491D01*
X3005074Y5274614D01*
X3018332Y5271414D01*
X3031896Y5270093D01*
X3045510Y5270550D01*
X3058972Y5272786D01*
X3071977Y5276850D01*
X3084372Y5282590D01*
X3095853Y5289905D01*
X3106267Y5298694D01*
X3115411Y5308854D01*
X3123133Y5320080D01*
X3129280Y5332222D01*
X3133750Y5345125D01*
X3136493Y5358485D01*
X3137408Y5372100D01*
X3136493Y5385714D01*
X3133750Y5399074D01*
X3129280Y5411978D01*
X3123133Y5424119D01*
X3115411Y5435346D01*
X3112363Y5438698D01*
X3110382Y5442051D01*
X3109772Y5445861D01*
X3110636Y5449671D01*
X3112871Y5452821D01*
X3116122Y5454954D01*
X3119932Y5455666D01*
X3396640Y5455666D01*
X3400044Y5455107D01*
X3403041Y5453380D01*
X3405327Y5450789D01*
X3411220Y5433822D01*
X3417366Y5421680D01*
X3425088Y5410454D01*
X3434232Y5400294D01*
X3444646Y5391505D01*
X3456127Y5384190D01*
X3468522Y5378450D01*
X3481527Y5374386D01*
X3494989Y5372150D01*
X3508603Y5371693D01*
X3522167Y5373014D01*
X3535426Y5376214D01*
X3548176Y5381091D01*
X3560114Y5387644D01*
X3571087Y5395722D01*
X3580892Y5405221D01*
X3589375Y5415940D01*
X3596335Y5427675D01*
X3601618Y5440222D01*
X3605225Y5453380D01*
X3607054Y5466892D01*
X3607054Y5480507D01*
X3605225Y5494020D01*
X3601618Y5507177D01*
X3596335Y5519724D01*
X3589375Y5531459D01*
X3580892Y5542178D01*
X3571087Y5551678D01*
X3560114Y5559755D01*
X3548176Y5566308D01*
X3535426Y5571185D01*
X3522167Y5574385D01*
X3508603Y5575706D01*
X3494989Y5575249D01*
X3481527Y5573014D01*
X3468522Y5568950D01*
X3456127Y5563209D01*
X3444646Y5555894D01*
X3434232Y5547106D01*
X3433114Y5545836D01*
X3429711Y5543397D01*
X3425596Y5542483D01*
X3119932Y5542483D01*
X3116122Y5543245D01*
X3112871Y5545378D01*
X3110636Y5548528D01*
X3109772Y5552338D01*
X3110382Y5556148D01*
X3112363Y5559501D01*
X3115411Y5562854D01*
X3123133Y5574080D01*
X3129280Y5586222D01*
X3133750Y5599125D01*
X3136493Y5612485D01*
X3137408Y5626100D01*
X3136493Y5639714D01*
X3133750Y5653074D01*
X3129280Y5665978D01*
X3123133Y5678119D01*
X3115411Y5689346D01*
X3112363Y5692698D01*
X3110382Y5696051D01*
X3109772Y5699861D01*
X3110636Y5703671D01*
X3112871Y5706821D01*
X3116122Y5708954D01*
X3119932Y5709666D01*
X3396640Y5709666D01*
X3400044Y5709107D01*
X3403041Y5707380D01*
X3405327Y5704789D01*
X3411220Y5687822D01*
X3417366Y5675680D01*
X3425088Y5664454D01*
X3434232Y5654294D01*
X3444646Y5645505D01*
X3456127Y5638190D01*
X3468522Y5632450D01*
X3481527Y5628386D01*
X3494989Y5626150D01*
X3508603Y5625693D01*
X3522167Y5627014D01*
X3535426Y5630214D01*
X3548176Y5635091D01*
X3560114Y5641644D01*
X3571087Y5649722D01*
X3580892Y5659221D01*
X3589375Y5669940D01*
X3596335Y5681675D01*
X3601618Y5694222D01*
X3605225Y5707380D01*
X3607054Y5720892D01*
X3607054Y5734507D01*
X3605225Y5748020D01*
X3601618Y5761177D01*
X3596335Y5773724D01*
X3589375Y5785459D01*
X3580892Y5796178D01*
X3571087Y5805678D01*
X3560114Y5813755D01*
X3548176Y5820308D01*
X3535426Y5825185D01*
X3522167Y5828385D01*
X3508603Y5829706D01*
X3494989Y5829249D01*
X3481527Y5827014D01*
X3468522Y5822950D01*
X3456127Y5817209D01*
X3444646Y5809894D01*
X3434232Y5801106D01*
X3433114Y5799836D01*
X3429711Y5797397D01*
X3425596Y5796483D01*
X3119932Y5796483D01*
X3116122Y5797245D01*
X3112871Y5799378D01*
X3110636Y5802528D01*
X3109772Y5806338D01*
X3110382Y5810148D01*
X3112363Y5813501D01*
X3115411Y5816854D01*
X3123133Y5828080D01*
X3129280Y5840222D01*
X3133750Y5853125D01*
X3136493Y5866485D01*
X3137408Y5880100D01*
X3136493Y5893714D01*
X3133750Y5907074D01*
X3129280Y5919978D01*
X3123133Y5932119D01*
X3115411Y5943346D01*
X3106267Y5953506D01*
X3095853Y5962294D01*
X3084372Y5969609D01*
X3071977Y5975350D01*
X3058972Y5979414D01*
X3045510Y5981649D01*
X3031896Y5982106D01*
X3018332Y5980785D01*
X3005074Y5977585D01*
X2992323Y5972708D01*
X2980385Y5966155D01*
X2969412Y5958078D01*
X2959608Y5948578D01*
X2951124Y5937859D01*
X2944164Y5926124D01*
X2938881Y5913577D01*
X2935274Y5900420D01*
X2933446Y5886907D01*
X2933446Y5873292D01*
X2935274Y5859780D01*
X2938881Y5846622D01*
X2944164Y5834075D01*
X2951124Y5822340D01*
X2958541Y5812942D01*
X2960471Y5808878D01*
X2960471Y5804357D01*
X2958490Y5800344D01*
X2954934Y5797499D01*
X2950565Y5796483D01*
X2361031Y5796483D01*
X2352802Y5795314D01*
X2345182Y5792774D01*
X2338222Y5788863D01*
X2331669Y5783478D01*
X1371041Y4822799D01*
X1368145Y4820767D01*
X1354632Y4817262D01*
X1345742Y4813096D01*
X1337665Y4807508D01*
X1330706Y4800549D01*
X1322120Y4787900D01*
X1318818Y4785817D01*
X1315008Y4785156D01*
X1311249Y4785969D01*
X1307998Y4788154D01*
X1151280Y4944872D01*
X1149096Y4948174D01*
X1148334Y4952034D01*
X1148334Y6505549D01*
X1148994Y6509207D01*
X1150924Y6512356D01*
X1153871Y6514642D01*
X1156919Y6516166D01*
X1168146Y6523888D01*
X1178306Y6533032D01*
X1187094Y6543446D01*
X1194409Y6554927D01*
X1200150Y6567322D01*
X1204214Y6580327D01*
X1206449Y6593789D01*
X1206906Y6607403D01*
X1205839Y6618224D01*
X1206296Y6622389D01*
X1208430Y6626047D01*
X1211834Y6628536D01*
X1215948Y6629400D01*
X1247851Y6629400D01*
X1251966Y6628536D01*
X1255369Y6626047D01*
X1257503Y6622389D01*
X1257960Y6618224D01*
X1256893Y6607403D01*
X1257350Y6593789D01*
X1259586Y6580327D01*
X1263650Y6567322D01*
X1269390Y6554927D01*
X1276705Y6543446D01*
X1285494Y6533032D01*
X1295654Y6523888D01*
X1306880Y6516166D01*
X1319022Y6510020D01*
X1331925Y6505549D01*
X1345285Y6502806D01*
X1358900Y6501892D01*
X1372514Y6502806D01*
X1391056Y6506616D01*
X1394764Y6505752D01*
X1397863Y6503619D01*
X1459179Y6442405D01*
X1465834Y6437376D01*
X1472996Y6433769D01*
X1480718Y6431584D01*
X1489151Y6430822D01*
X2081682Y6430873D01*
X2089962Y6432042D01*
X2097532Y6434582D01*
X2104542Y6438442D01*
X2111044Y6443878D01*
X2170938Y6503720D01*
X2173833Y6505752D01*
X2177237Y6506667D01*
X2180793Y6506362D01*
X2189480Y6503974D01*
X2202992Y6502146D01*
X2216607Y6502146D01*
X2230120Y6503974D01*
X2238806Y6506362D01*
X2242362Y6506667D01*
X2245766Y6505752D01*
X2248662Y6503720D01*
X2299208Y6453276D01*
X2305862Y6448247D01*
X2313025Y6444640D01*
X2320747Y6442456D01*
X2329180Y6441694D01*
X3476853Y6441744D01*
X3485134Y6442913D01*
X3492703Y6445453D01*
X3499713Y6449314D01*
X3506215Y6454749D01*
X3556101Y6504584D01*
X3558895Y6506565D01*
X3562197Y6507530D01*
X3565651Y6507327D01*
X3577336Y6504533D01*
X3590747Y6503162D01*
X3604209Y6503619D01*
X3617468Y6505854D01*
X3630371Y6509867D01*
X3642563Y6515506D01*
X3653942Y6522770D01*
X3664254Y6531457D01*
X3673297Y6541465D01*
X3680917Y6552590D01*
X3686962Y6564630D01*
X3691382Y6577330D01*
X3694074Y6590538D01*
X3694988Y6604000D01*
X3693972Y6618528D01*
X3694531Y6622643D01*
X3696665Y6626148D01*
X3700018Y6628536D01*
X3704082Y6629400D01*
X3812032Y6629400D01*
X3815892Y6628638D01*
X3819194Y6626402D01*
X3821429Y6623151D01*
X3822192Y6619240D01*
X3822192Y1293368D01*
X3821429Y1289456D01*
X3819194Y1286205D01*
X3815892Y1283970D01*
X3812032Y1283208D01*
G37*

%LPC*%
G36*
X3505200Y1440942D02*
G01*
X3519373Y1441907D01*
X3533241Y1444650D01*
X3546703Y1449222D01*
X3559403Y1455470D01*
X3571189Y1463395D01*
X3581857Y1472742D01*
X3591204Y1483410D01*
X3599129Y1495196D01*
X3605377Y1507896D01*
X3609949Y1521358D01*
X3612692Y1535226D01*
X3613658Y1549400D01*
X3612692Y1563573D01*
X3609949Y1577441D01*
X3605377Y1590903D01*
X3599129Y1603603D01*
X3591204Y1615389D01*
X3581857Y1626057D01*
X3571189Y1635404D01*
X3559403Y1643329D01*
X3546703Y1649577D01*
X3533241Y1654149D01*
X3519373Y1656892D01*
X3505200Y1657857D01*
X3491026Y1656892D01*
X3477158Y1654149D01*
X3463696Y1649577D01*
X3450996Y1643329D01*
X3439210Y1635404D01*
X3428542Y1626057D01*
X3419195Y1615389D01*
X3411270Y1603603D01*
X3405022Y1590903D01*
X3400450Y1577441D01*
X3397707Y1563573D01*
X3396742Y1549400D01*
X3397707Y1535226D01*
X3400450Y1521358D01*
X3405022Y1507896D01*
X3411270Y1495196D01*
X3419195Y1483410D01*
X3428542Y1472742D01*
X3439210Y1463395D01*
X3450996Y1455470D01*
X3463696Y1449222D01*
X3477158Y1444650D01*
X3491026Y1441907D01*
G37*
G36*
X3031896Y1460093D02*
G01*
X3045510Y1460550D01*
X3058972Y1462786D01*
X3071977Y1466850D01*
X3084372Y1472590D01*
X3095853Y1479905D01*
X3106267Y1488694D01*
X3115411Y1498854D01*
X3123133Y1510080D01*
X3129280Y1522222D01*
X3133750Y1535125D01*
X3136493Y1548485D01*
X3137408Y1562100D01*
X3136493Y1575714D01*
X3133750Y1589074D01*
X3129280Y1601978D01*
X3123133Y1614119D01*
X3115411Y1625346D01*
X3106267Y1635506D01*
X3095853Y1644294D01*
X3084372Y1651609D01*
X3071977Y1657350D01*
X3058972Y1661414D01*
X3045510Y1663649D01*
X3031896Y1664106D01*
X3018332Y1662785D01*
X3005074Y1659585D01*
X2992323Y1654708D01*
X2980385Y1648155D01*
X2969412Y1640078D01*
X2959608Y1630578D01*
X2951124Y1619859D01*
X2944164Y1608124D01*
X2938881Y1595577D01*
X2935274Y1582420D01*
X2933446Y1568907D01*
X2933446Y1555292D01*
X2935274Y1541780D01*
X2938881Y1528622D01*
X2944164Y1516075D01*
X2951124Y1504340D01*
X2959608Y1493621D01*
X2969412Y1484122D01*
X2980385Y1476044D01*
X2992323Y1469491D01*
X3005074Y1464614D01*
X3018332Y1461414D01*
G37*
G36*
X3552850Y1694942D02*
G01*
X3587191Y1694942D01*
X3593490Y1695653D01*
X3598976Y1697583D01*
X3603853Y1700631D01*
X3607968Y1704746D01*
X3611016Y1709623D01*
X3612946Y1715109D01*
X3613658Y1721408D01*
X3613658Y1755749D01*
X3552850Y1755749D01*
G37*
G36*
X3423208Y1694942D02*
G01*
X3457600Y1694942D01*
X3457600Y1755749D01*
X3396742Y1755749D01*
X3396742Y1721408D01*
X3397453Y1715109D01*
X3399383Y1709623D01*
X3402431Y1704746D01*
X3406546Y1700631D01*
X3411423Y1697583D01*
X3416909Y1695653D01*
G37*
G36*
X3031896Y1714093D02*
G01*
X3045510Y1714550D01*
X3058972Y1716786D01*
X3071977Y1720850D01*
X3084372Y1726590D01*
X3095853Y1733905D01*
X3106267Y1742693D01*
X3115411Y1752854D01*
X3123133Y1764080D01*
X3129280Y1776222D01*
X3133750Y1789125D01*
X3136493Y1802485D01*
X3137408Y1816100D01*
X3136493Y1829714D01*
X3133750Y1843074D01*
X3129280Y1855978D01*
X3123133Y1868119D01*
X3115411Y1879346D01*
X3106267Y1889506D01*
X3095853Y1898294D01*
X3084372Y1905609D01*
X3071977Y1911350D01*
X3058972Y1915414D01*
X3045510Y1917649D01*
X3031896Y1918106D01*
X3018332Y1916785D01*
X3005074Y1913585D01*
X2992323Y1908708D01*
X2980385Y1902155D01*
X2969412Y1894078D01*
X2959608Y1884578D01*
X2951124Y1873859D01*
X2944164Y1862124D01*
X2938881Y1849577D01*
X2935274Y1836420D01*
X2933446Y1822907D01*
X2933446Y1809292D01*
X2935274Y1795780D01*
X2938881Y1782622D01*
X2944164Y1770075D01*
X2951124Y1758340D01*
X2959608Y1747621D01*
X2969412Y1738122D01*
X2980385Y1730044D01*
X2992323Y1723491D01*
X3005074Y1718614D01*
X3018332Y1715414D01*
G37*
G36*
X3396742Y1850999D02*
G01*
X3457600Y1850999D01*
X3457600Y1911857D01*
X3423208Y1911857D01*
X3416909Y1911146D01*
X3411423Y1909216D01*
X3406546Y1906168D01*
X3402431Y1902053D01*
X3399383Y1897176D01*
X3397453Y1891690D01*
X3396742Y1885391D01*
G37*
G36*
X3552850Y1850999D02*
G01*
X3613658Y1850999D01*
X3613658Y1885391D01*
X3612946Y1891690D01*
X3611016Y1897176D01*
X3607968Y1902053D01*
X3603853Y1906168D01*
X3598976Y1909216D01*
X3593490Y1911146D01*
X3587191Y1911857D01*
X3552850Y1911857D01*
G37*
G36*
X3031896Y1968093D02*
G01*
X3045510Y1968550D01*
X3058972Y1970786D01*
X3071977Y1974850D01*
X3084372Y1980590D01*
X3095853Y1987905D01*
X3106267Y1996693D01*
X3115411Y2006854D01*
X3123133Y2018080D01*
X3129280Y2030222D01*
X3133750Y2043125D01*
X3136493Y2056485D01*
X3137408Y2070100D01*
X3136493Y2083714D01*
X3133750Y2097074D01*
X3129280Y2109978D01*
X3123133Y2122119D01*
X3115411Y2133346D01*
X3106267Y2143506D01*
X3095853Y2152294D01*
X3084372Y2159609D01*
X3071977Y2165350D01*
X3058972Y2169414D01*
X3045510Y2171649D01*
X3031896Y2172106D01*
X3018332Y2170785D01*
X3005074Y2167585D01*
X2992323Y2162708D01*
X2980385Y2156155D01*
X2969412Y2148078D01*
X2959608Y2138578D01*
X2951124Y2127859D01*
X2944164Y2116124D01*
X2938881Y2103577D01*
X2935274Y2090420D01*
X2933446Y2076907D01*
X2933446Y2063292D01*
X2935274Y2049780D01*
X2938881Y2036622D01*
X2944164Y2024075D01*
X2951124Y2012340D01*
X2959608Y2001621D01*
X2969412Y1992122D01*
X2980385Y1984044D01*
X2992323Y1977491D01*
X3005074Y1972614D01*
X3018332Y1969414D01*
G37*
G36*
X3505200Y1999742D02*
G01*
X3519373Y2000707D01*
X3533241Y2003450D01*
X3546703Y2008022D01*
X3559403Y2014270D01*
X3571189Y2022195D01*
X3581857Y2031542D01*
X3591204Y2042210D01*
X3599129Y2053996D01*
X3605377Y2066696D01*
X3609949Y2080158D01*
X3612692Y2094026D01*
X3613658Y2108200D01*
X3612692Y2122373D01*
X3609949Y2136241D01*
X3605377Y2149703D01*
X3599129Y2162403D01*
X3591204Y2174189D01*
X3581857Y2184857D01*
X3571189Y2194204D01*
X3559403Y2202129D01*
X3546703Y2208377D01*
X3533241Y2212949D01*
X3519373Y2215692D01*
X3505200Y2216658D01*
X3491026Y2215692D01*
X3477158Y2212949D01*
X3471722Y2211120D01*
X3468014Y2210562D01*
X3464356Y2211425D01*
X3461258Y2213559D01*
X3438398Y2236419D01*
X3436213Y2239670D01*
X3435400Y2243582D01*
X3436213Y2247493D01*
X3438398Y2250744D01*
X3441700Y2252980D01*
X3445560Y2253742D01*
X3457600Y2253742D01*
X3457600Y2314549D01*
X3430015Y2314549D01*
X3426104Y2315362D01*
X3422853Y2317546D01*
X3420618Y2320848D01*
X3419856Y2324709D01*
X3419856Y2399639D01*
X3420618Y2403551D01*
X3422853Y2406853D01*
X3426104Y2409037D01*
X3430015Y2409799D01*
X3457600Y2409799D01*
X3457600Y2470658D01*
X3430015Y2470658D01*
X3426104Y2471420D01*
X3422853Y2473655D01*
X3420618Y2476906D01*
X3419856Y2480818D01*
X3419856Y2605532D01*
X3420618Y2609443D01*
X3422853Y2612694D01*
X3426104Y2614930D01*
X3430015Y2615692D01*
X3460750Y2615692D01*
X3460750Y2673350D01*
X3430015Y2673350D01*
X3426104Y2674112D01*
X3422853Y2676347D01*
X3420618Y2679598D01*
X3419856Y2683510D01*
X3419856Y2752090D01*
X3420618Y2756001D01*
X3422853Y2759252D01*
X3426104Y2761488D01*
X3430015Y2762250D01*
X3460750Y2762250D01*
X3460750Y2819908D01*
X3430015Y2819908D01*
X3426104Y2820670D01*
X3422853Y2822905D01*
X3420618Y2826156D01*
X3419856Y2830068D01*
X3419856Y2888437D01*
X3420872Y2892856D01*
X3423665Y2896362D01*
X3427729Y2898343D01*
X3432251Y2898343D01*
X3436315Y2896412D01*
X3447440Y2887624D01*
X3459175Y2880664D01*
X3471722Y2875381D01*
X3484879Y2871774D01*
X3498392Y2869946D01*
X3512007Y2869946D01*
X3525520Y2871774D01*
X3538677Y2875381D01*
X3551224Y2880664D01*
X3562959Y2887624D01*
X3573678Y2896108D01*
X3583178Y2905912D01*
X3591255Y2916885D01*
X3597808Y2928823D01*
X3602685Y2941574D01*
X3605885Y2954832D01*
X3607206Y2968396D01*
X3606749Y2982010D01*
X3604514Y2995472D01*
X3600450Y3008477D01*
X3594709Y3020872D01*
X3587394Y3032353D01*
X3578606Y3042767D01*
X3568446Y3051911D01*
X3557219Y3059633D01*
X3545078Y3065780D01*
X3532174Y3070250D01*
X3518814Y3072993D01*
X3505200Y3073908D01*
X3491585Y3072993D01*
X3478225Y3070250D01*
X3465322Y3065780D01*
X3453180Y3059633D01*
X3441954Y3051911D01*
X3431794Y3042767D01*
X3423005Y3032353D01*
X3419398Y3028492D01*
X3415131Y3027019D01*
X3410661Y3027578D01*
X3406851Y3029966D01*
X3135680Y3301136D01*
X3133547Y3304235D01*
X3132683Y3307943D01*
X3136493Y3326485D01*
X3137408Y3340100D01*
X3136493Y3353714D01*
X3133750Y3367074D01*
X3129280Y3379978D01*
X3123133Y3392119D01*
X3115411Y3403346D01*
X3106267Y3413506D01*
X3095853Y3422294D01*
X3084372Y3429609D01*
X3071977Y3435350D01*
X3058972Y3439414D01*
X3045510Y3441649D01*
X3031896Y3442106D01*
X3018332Y3440785D01*
X3005074Y3437585D01*
X2992323Y3432708D01*
X2980385Y3426155D01*
X2969412Y3418078D01*
X2959608Y3408578D01*
X2951124Y3397859D01*
X2944164Y3386124D01*
X2938881Y3373577D01*
X2935274Y3360420D01*
X2933446Y3346907D01*
X2933446Y3333292D01*
X2935274Y3319779D01*
X2938881Y3306622D01*
X2944164Y3294075D01*
X2951124Y3282340D01*
X2959608Y3271621D01*
X2969412Y3262122D01*
X2980385Y3254044D01*
X2992323Y3247491D01*
X3005074Y3242614D01*
X3018332Y3239414D01*
X3031896Y3238093D01*
X3045510Y3238550D01*
X3058972Y3240786D01*
X3064002Y3242360D01*
X3067608Y3242767D01*
X3071164Y3241903D01*
X3074162Y3239820D01*
X3330041Y2983941D01*
X3332276Y2980639D01*
X3333038Y2976778D01*
X3333089Y2235301D01*
X3334258Y2227021D01*
X3336798Y2219452D01*
X3340658Y2212441D01*
X3346094Y2205939D01*
X3399840Y2152142D01*
X3401974Y2149043D01*
X3402837Y2145385D01*
X3402279Y2141677D01*
X3400450Y2136241D01*
X3397707Y2122373D01*
X3396742Y2108200D01*
X3397707Y2094026D01*
X3400450Y2080158D01*
X3405022Y2066696D01*
X3411270Y2053996D01*
X3419195Y2042210D01*
X3428542Y2031542D01*
X3439210Y2022195D01*
X3450996Y2014270D01*
X3463696Y2008022D01*
X3477158Y2003450D01*
X3491026Y2000707D01*
G37*
G36*
X3031896Y2222093D02*
G01*
X3045510Y2222550D01*
X3058972Y2224786D01*
X3071977Y2228850D01*
X3084372Y2234590D01*
X3095853Y2241905D01*
X3106267Y2250694D01*
X3115411Y2260854D01*
X3123133Y2272080D01*
X3129280Y2284222D01*
X3133750Y2297125D01*
X3136493Y2310485D01*
X3137408Y2324100D01*
X3136493Y2337714D01*
X3133750Y2351074D01*
X3129280Y2363978D01*
X3123133Y2376119D01*
X3115411Y2387346D01*
X3106267Y2397506D01*
X3095853Y2406294D01*
X3084372Y2413609D01*
X3071977Y2419350D01*
X3058972Y2423414D01*
X3045510Y2425649D01*
X3031896Y2426106D01*
X3018332Y2424785D01*
X3005074Y2421585D01*
X2992323Y2416708D01*
X2980385Y2410155D01*
X2969412Y2402078D01*
X2959608Y2392578D01*
X2951124Y2381859D01*
X2944164Y2370124D01*
X2938881Y2357577D01*
X2935274Y2344420D01*
X2933446Y2330907D01*
X2933446Y2317292D01*
X2935274Y2303780D01*
X2938881Y2290622D01*
X2944164Y2278075D01*
X2951124Y2266340D01*
X2959608Y2255621D01*
X2969412Y2246122D01*
X2980385Y2238044D01*
X2992323Y2231491D01*
X3005074Y2226614D01*
X3018332Y2223414D01*
G37*
G36*
X3552850Y2253742D02*
G01*
X3587191Y2253742D01*
X3593490Y2254453D01*
X3598976Y2256383D01*
X3603853Y2259431D01*
X3607968Y2263546D01*
X3611016Y2268423D01*
X3612946Y2273909D01*
X3613658Y2280208D01*
X3613658Y2314549D01*
X3552850Y2314549D01*
G37*
G36*
X3552850Y2409799D02*
G01*
X3613658Y2409799D01*
X3613658Y2444191D01*
X3612946Y2450490D01*
X3611016Y2455976D01*
X3607968Y2460853D01*
X3603853Y2464968D01*
X3598976Y2468016D01*
X3593490Y2469946D01*
X3587191Y2470658D01*
X3552850Y2470658D01*
G37*
G36*
X3031896Y2476093D02*
G01*
X3045510Y2476550D01*
X3058972Y2478786D01*
X3071977Y2482850D01*
X3084372Y2488590D01*
X3095853Y2495905D01*
X3106267Y2504694D01*
X3115411Y2514854D01*
X3123133Y2526080D01*
X3129280Y2538222D01*
X3133750Y2551125D01*
X3136493Y2564485D01*
X3137408Y2578100D01*
X3136493Y2591714D01*
X3133750Y2605074D01*
X3129280Y2617978D01*
X3123133Y2630119D01*
X3115411Y2641346D01*
X3106267Y2651506D01*
X3095853Y2660294D01*
X3084372Y2667609D01*
X3071977Y2673350D01*
X3058972Y2677414D01*
X3045510Y2679649D01*
X3031896Y2680106D01*
X3018332Y2678785D01*
X3005074Y2675585D01*
X2992323Y2670708D01*
X2980385Y2664155D01*
X2969412Y2656078D01*
X2959608Y2646578D01*
X2951124Y2635859D01*
X2944164Y2624124D01*
X2938881Y2611577D01*
X2935274Y2598420D01*
X2933446Y2584907D01*
X2933446Y2571292D01*
X2935274Y2557780D01*
X2938881Y2544622D01*
X2944164Y2532075D01*
X2951124Y2520340D01*
X2959608Y2509621D01*
X2969412Y2500122D01*
X2980385Y2492044D01*
X2992323Y2485491D01*
X3005074Y2480614D01*
X3018332Y2477414D01*
G37*
G36*
X3549650Y2615692D02*
G01*
X3580841Y2615692D01*
X3587140Y2616403D01*
X3592626Y2618333D01*
X3597503Y2621381D01*
X3601618Y2625496D01*
X3604666Y2630373D01*
X3606596Y2635859D01*
X3607308Y2642158D01*
X3607308Y2673350D01*
X3549650Y2673350D01*
G37*
G36*
X745896Y2730093D02*
G01*
X759510Y2730550D01*
X772972Y2732786D01*
X785977Y2736850D01*
X798372Y2742590D01*
X809853Y2749905D01*
X820267Y2758694D01*
X829411Y2768854D01*
X837133Y2780080D01*
X843280Y2792222D01*
X847750Y2805125D01*
X850493Y2818485D01*
X851408Y2832100D01*
X850493Y2845714D01*
X847750Y2859074D01*
X843280Y2871978D01*
X837133Y2884119D01*
X829411Y2895346D01*
X820267Y2905506D01*
X809853Y2914294D01*
X798372Y2921609D01*
X785977Y2927350D01*
X772972Y2931414D01*
X759510Y2933649D01*
X745896Y2934106D01*
X732332Y2932785D01*
X719074Y2929585D01*
X706323Y2924708D01*
X694385Y2918155D01*
X683412Y2910078D01*
X673608Y2900578D01*
X665124Y2889859D01*
X658164Y2878124D01*
X652881Y2865577D01*
X649274Y2852420D01*
X647446Y2838907D01*
X647446Y2825292D01*
X649274Y2811780D01*
X652881Y2798622D01*
X658164Y2786075D01*
X665124Y2774340D01*
X673608Y2763621D01*
X683412Y2754122D01*
X694385Y2746044D01*
X706323Y2739491D01*
X719074Y2734614D01*
X732332Y2731414D01*
G37*
G36*
X3549650Y2762250D02*
G01*
X3607308Y2762250D01*
X3607308Y2793441D01*
X3606596Y2799740D01*
X3604666Y2805226D01*
X3601618Y2810103D01*
X3597503Y2814218D01*
X3592626Y2817266D01*
X3587140Y2819196D01*
X3580841Y2819908D01*
X3549650Y2819908D01*
G37*
G36*
X745896Y2984093D02*
G01*
X759510Y2984550D01*
X772972Y2986786D01*
X785977Y2990850D01*
X798372Y2996590D01*
X809853Y3003905D01*
X820267Y3012694D01*
X829411Y3022854D01*
X837133Y3034080D01*
X843280Y3046222D01*
X847750Y3059125D01*
X850493Y3072485D01*
X851408Y3086100D01*
X850493Y3099714D01*
X847750Y3113074D01*
X843280Y3125978D01*
X837133Y3138119D01*
X829411Y3149346D01*
X820267Y3159506D01*
X809853Y3168294D01*
X798372Y3175609D01*
X785977Y3181350D01*
X772972Y3185414D01*
X759510Y3187649D01*
X745896Y3188106D01*
X732332Y3186785D01*
X719074Y3183585D01*
X706323Y3178708D01*
X694385Y3172155D01*
X683412Y3164078D01*
X673608Y3154578D01*
X665124Y3143859D01*
X658164Y3132124D01*
X652881Y3119577D01*
X649274Y3106420D01*
X647446Y3092907D01*
X647446Y3079292D01*
X649274Y3065780D01*
X652881Y3052622D01*
X658164Y3040075D01*
X665124Y3028340D01*
X673608Y3017621D01*
X683412Y3008122D01*
X694385Y3000044D01*
X706323Y2993491D01*
X719074Y2988614D01*
X732332Y2985414D01*
G37*
G36*
X3498392Y3123946D02*
G01*
X3512007Y3123946D01*
X3525520Y3125774D01*
X3538677Y3129381D01*
X3551224Y3134664D01*
X3562959Y3141624D01*
X3573678Y3150108D01*
X3583178Y3159912D01*
X3591255Y3170885D01*
X3597808Y3182823D01*
X3602685Y3195574D01*
X3605885Y3208832D01*
X3607206Y3222396D01*
X3606749Y3236010D01*
X3604514Y3249472D01*
X3600450Y3262477D01*
X3594709Y3274872D01*
X3587394Y3286353D01*
X3578606Y3296767D01*
X3568446Y3305911D01*
X3557219Y3313633D01*
X3545078Y3319779D01*
X3532174Y3324250D01*
X3518814Y3326993D01*
X3505200Y3327908D01*
X3491585Y3326993D01*
X3473043Y3323183D01*
X3469335Y3324047D01*
X3466236Y3326180D01*
X3340912Y3451504D01*
X3338677Y3454806D01*
X3337915Y3458667D01*
X3337915Y3561181D01*
X3338677Y3565042D01*
X3340912Y3568344D01*
X3344164Y3570528D01*
X3348075Y3571341D01*
X3351987Y3570528D01*
X3355238Y3568344D01*
X3404920Y3518662D01*
X3407003Y3515664D01*
X3407867Y3512108D01*
X3407460Y3508501D01*
X3405886Y3503472D01*
X3403650Y3490010D01*
X3403193Y3476396D01*
X3404514Y3462832D01*
X3407714Y3449574D01*
X3412591Y3436823D01*
X3419144Y3424885D01*
X3427222Y3413912D01*
X3436721Y3404108D01*
X3447440Y3395624D01*
X3459175Y3388664D01*
X3471722Y3383381D01*
X3484879Y3379774D01*
X3498392Y3377946D01*
X3512007Y3377946D01*
X3525520Y3379774D01*
X3538677Y3383381D01*
X3551224Y3388664D01*
X3562959Y3395624D01*
X3573678Y3404108D01*
X3583178Y3413912D01*
X3591255Y3424885D01*
X3597808Y3436823D01*
X3602685Y3449574D01*
X3605885Y3462832D01*
X3607206Y3476396D01*
X3606749Y3490010D01*
X3604514Y3503472D01*
X3600450Y3516477D01*
X3594709Y3528872D01*
X3587394Y3540353D01*
X3578606Y3550767D01*
X3568446Y3559911D01*
X3557219Y3567633D01*
X3545078Y3573779D01*
X3532174Y3578250D01*
X3518814Y3580993D01*
X3505200Y3581908D01*
X3491585Y3580993D01*
X3473043Y3577183D01*
X3469335Y3578047D01*
X3466236Y3580180D01*
X3416503Y3629914D01*
X3414268Y3633215D01*
X3413506Y3637076D01*
X3413506Y3656990D01*
X3414268Y3660901D01*
X3416503Y3664204D01*
X3419856Y3666388D01*
X3423767Y3667150D01*
X3427679Y3666286D01*
X3430981Y3664051D01*
X3436721Y3658108D01*
X3447440Y3649624D01*
X3459175Y3642664D01*
X3471722Y3637381D01*
X3484879Y3633774D01*
X3498392Y3631946D01*
X3512007Y3631946D01*
X3525520Y3633774D01*
X3538677Y3637381D01*
X3551224Y3642664D01*
X3562959Y3649624D01*
X3573678Y3658108D01*
X3583178Y3667912D01*
X3591255Y3678885D01*
X3597808Y3690823D01*
X3602685Y3703574D01*
X3605885Y3716832D01*
X3607206Y3730396D01*
X3606749Y3744010D01*
X3604514Y3757472D01*
X3600450Y3770477D01*
X3594709Y3782872D01*
X3587394Y3794353D01*
X3578606Y3804767D01*
X3568446Y3813911D01*
X3557219Y3821633D01*
X3545078Y3827779D01*
X3532174Y3832250D01*
X3518814Y3834993D01*
X3505200Y3835908D01*
X3491585Y3834993D01*
X3478225Y3832250D01*
X3465322Y3827779D01*
X3453180Y3821633D01*
X3441954Y3813911D01*
X3431438Y3804310D01*
X3428187Y3801770D01*
X3424224Y3800703D01*
X3420160Y3801313D01*
X3416706Y3803497D01*
X3414318Y3806850D01*
X3413506Y3810863D01*
X3413506Y3910990D01*
X3414268Y3914901D01*
X3416503Y3918204D01*
X3419856Y3920388D01*
X3423767Y3921150D01*
X3427679Y3920286D01*
X3430981Y3918051D01*
X3436721Y3912108D01*
X3447440Y3903624D01*
X3459175Y3896664D01*
X3471722Y3891381D01*
X3484879Y3887774D01*
X3498392Y3885946D01*
X3512007Y3885946D01*
X3525520Y3887774D01*
X3538677Y3891381D01*
X3551224Y3896664D01*
X3562959Y3903624D01*
X3573678Y3912108D01*
X3583178Y3921912D01*
X3591255Y3932885D01*
X3597808Y3944823D01*
X3602685Y3957574D01*
X3605885Y3970832D01*
X3607206Y3984396D01*
X3606749Y3998010D01*
X3604514Y4011472D01*
X3600450Y4024477D01*
X3594709Y4036872D01*
X3587394Y4048353D01*
X3578606Y4058767D01*
X3568446Y4067911D01*
X3557219Y4075633D01*
X3541776Y4083304D01*
X3539744Y4085183D01*
X3535578Y4090212D01*
X3112363Y4513376D01*
X3104692Y4519066D01*
X3102203Y4521758D01*
X3100832Y4525111D01*
X3100730Y4528718D01*
X3101898Y4532172D01*
X3104235Y4534966D01*
X3106267Y4536694D01*
X3115411Y4546854D01*
X3123133Y4558080D01*
X3126943Y4565650D01*
X3079750Y4565650D01*
X3079750Y4535119D01*
X3078988Y4531207D01*
X3076752Y4527956D01*
X3073501Y4525721D01*
X3069590Y4524959D01*
X3001010Y4524959D01*
X2997098Y4525721D01*
X2993847Y4527956D01*
X2991612Y4531207D01*
X2990850Y4535119D01*
X2990850Y4565650D01*
X2943504Y4565650D01*
X2944164Y4564075D01*
X2951124Y4552340D01*
X2959608Y4541621D01*
X2962656Y4538675D01*
X2964992Y4535271D01*
X2965754Y4531207D01*
X2964840Y4527143D01*
X2962402Y4523841D01*
X2958795Y4521708D01*
X2957271Y4521200D01*
X2950311Y4517339D01*
X2943758Y4511903D01*
X2877312Y4445406D01*
X2872282Y4438700D01*
X2868726Y4431538D01*
X2866491Y4423867D01*
X2865729Y4415434D01*
X2865780Y3972610D01*
X2866948Y3964330D01*
X2869488Y3956761D01*
X2873349Y3949750D01*
X2878785Y3943248D01*
X2935020Y3886962D01*
X2937052Y3884066D01*
X2937967Y3880662D01*
X2937662Y3877106D01*
X2935274Y3868420D01*
X2933446Y3854907D01*
X2933446Y3841292D01*
X2935274Y3827779D01*
X2938881Y3814622D01*
X2944164Y3802075D01*
X2951124Y3790340D01*
X2959608Y3779621D01*
X2969412Y3770122D01*
X2980385Y3762044D01*
X2992323Y3755491D01*
X3005074Y3750614D01*
X3018332Y3747414D01*
X3031896Y3746093D01*
X3045510Y3746550D01*
X3058972Y3748786D01*
X3071977Y3752850D01*
X3084372Y3758590D01*
X3095853Y3765905D01*
X3106267Y3774694D01*
X3115411Y3784854D01*
X3123133Y3796080D01*
X3129280Y3808222D01*
X3133750Y3821125D01*
X3136493Y3834485D01*
X3137408Y3848100D01*
X3136493Y3861714D01*
X3133750Y3875074D01*
X3129280Y3887978D01*
X3123133Y3900119D01*
X3115411Y3911346D01*
X3106267Y3921506D01*
X3095853Y3930294D01*
X3084372Y3937609D01*
X3071977Y3943350D01*
X3058972Y3947414D01*
X3045510Y3949649D01*
X3031896Y3950106D01*
X3018332Y3948785D01*
X3005836Y3945788D01*
X3002432Y3945585D01*
X2999130Y3946499D01*
X2996285Y3948480D01*
X2955544Y3989273D01*
X2953308Y3992575D01*
X2952546Y3996436D01*
X2952546Y4016451D01*
X2953512Y4020820D01*
X2956255Y4024325D01*
X2960217Y4026306D01*
X2964688Y4026458D01*
X2968752Y4024629D01*
X2980385Y4016044D01*
X2992323Y4009491D01*
X3005074Y4004614D01*
X3018332Y4001414D01*
X3031896Y4000093D01*
X3045510Y4000550D01*
X3058972Y4002786D01*
X3064002Y4004360D01*
X3067608Y4004767D01*
X3071164Y4003903D01*
X3074162Y4001820D01*
X3248101Y3827881D01*
X3250336Y3824579D01*
X3251098Y3820718D01*
X3251149Y3434842D01*
X3252317Y3426561D01*
X3254857Y3418992D01*
X3258718Y3411982D01*
X3264153Y3405479D01*
X3404920Y3264662D01*
X3407003Y3261664D01*
X3407867Y3258108D01*
X3407460Y3254502D01*
X3405886Y3249472D01*
X3403650Y3236010D01*
X3403193Y3222396D01*
X3404514Y3208832D01*
X3407714Y3195574D01*
X3412591Y3182823D01*
X3419144Y3170885D01*
X3427222Y3159912D01*
X3436721Y3150108D01*
X3447440Y3141624D01*
X3459175Y3134664D01*
X3471722Y3129381D01*
X3484879Y3125774D01*
G37*
G36*
X745896Y3238093D02*
G01*
X759510Y3238550D01*
X772972Y3240786D01*
X785977Y3244850D01*
X798372Y3250590D01*
X809853Y3257905D01*
X820267Y3266694D01*
X829411Y3276854D01*
X837133Y3288080D01*
X843280Y3300222D01*
X847750Y3313125D01*
X850493Y3326485D01*
X851408Y3340100D01*
X850493Y3353714D01*
X847750Y3367074D01*
X843280Y3379978D01*
X837133Y3392119D01*
X829411Y3403346D01*
X820267Y3413506D01*
X809853Y3422294D01*
X798372Y3429609D01*
X785977Y3435350D01*
X772972Y3439414D01*
X759510Y3441649D01*
X745896Y3442106D01*
X732332Y3440785D01*
X719074Y3437585D01*
X706323Y3432708D01*
X694385Y3426155D01*
X683412Y3418078D01*
X673608Y3408578D01*
X665124Y3397859D01*
X658164Y3386124D01*
X652881Y3373577D01*
X649274Y3360420D01*
X647446Y3346907D01*
X647446Y3333292D01*
X649274Y3319779D01*
X652881Y3306622D01*
X658164Y3294075D01*
X665124Y3282340D01*
X673608Y3271621D01*
X683412Y3262122D01*
X694385Y3254044D01*
X706323Y3247491D01*
X719074Y3242614D01*
X732332Y3239414D01*
G37*
G36*
X745896Y3492093D02*
G01*
X759510Y3492550D01*
X772972Y3494786D01*
X785977Y3498850D01*
X798372Y3504590D01*
X809853Y3511905D01*
X820267Y3520694D01*
X829411Y3530854D01*
X837133Y3542080D01*
X843280Y3554222D01*
X847750Y3567125D01*
X850493Y3580485D01*
X851408Y3594100D01*
X850493Y3607714D01*
X847750Y3621074D01*
X843280Y3633978D01*
X837133Y3646119D01*
X829411Y3657346D01*
X820267Y3667506D01*
X809853Y3676294D01*
X798372Y3683609D01*
X785977Y3689350D01*
X772972Y3693414D01*
X759510Y3695649D01*
X745896Y3696106D01*
X732332Y3694785D01*
X719074Y3691585D01*
X706323Y3686708D01*
X694385Y3680155D01*
X683412Y3672078D01*
X673608Y3662578D01*
X665124Y3651859D01*
X658164Y3640124D01*
X652881Y3627577D01*
X649274Y3614420D01*
X647446Y3600907D01*
X647446Y3587292D01*
X649274Y3573779D01*
X652881Y3560622D01*
X658164Y3548075D01*
X665124Y3536340D01*
X673608Y3525621D01*
X683412Y3516122D01*
X694385Y3508044D01*
X706323Y3501491D01*
X719074Y3496614D01*
X732332Y3493414D01*
G37*
G36*
X3031896Y3492093D02*
G01*
X3045510Y3492550D01*
X3058972Y3494786D01*
X3071977Y3498850D01*
X3084372Y3504590D01*
X3095853Y3511905D01*
X3106267Y3520694D01*
X3115411Y3530854D01*
X3123133Y3542080D01*
X3129280Y3554222D01*
X3133750Y3567125D01*
X3136493Y3580485D01*
X3137408Y3594100D01*
X3136493Y3607714D01*
X3133750Y3621074D01*
X3129280Y3633978D01*
X3123133Y3646119D01*
X3115411Y3657346D01*
X3106267Y3667506D01*
X3095853Y3676294D01*
X3084372Y3683609D01*
X3071977Y3689350D01*
X3058972Y3693414D01*
X3045510Y3695649D01*
X3031896Y3696106D01*
X3018332Y3694785D01*
X3005074Y3691585D01*
X2992323Y3686708D01*
X2980385Y3680155D01*
X2969412Y3672078D01*
X2959608Y3662578D01*
X2951124Y3651859D01*
X2944164Y3640124D01*
X2938881Y3627577D01*
X2935274Y3614420D01*
X2933446Y3600907D01*
X2933446Y3587292D01*
X2935274Y3573779D01*
X2938881Y3560622D01*
X2944164Y3548075D01*
X2951124Y3536340D01*
X2959608Y3525621D01*
X2969412Y3516122D01*
X2980385Y3508044D01*
X2992323Y3501491D01*
X3005074Y3496614D01*
X3018332Y3493414D01*
G37*
G36*
X745896Y3746093D02*
G01*
X759510Y3746550D01*
X772972Y3748786D01*
X785977Y3752850D01*
X798372Y3758590D01*
X809853Y3765905D01*
X820267Y3774694D01*
X829411Y3784854D01*
X837133Y3796080D01*
X843280Y3808222D01*
X847750Y3821125D01*
X850493Y3834485D01*
X851408Y3848100D01*
X850493Y3861714D01*
X847750Y3875074D01*
X843280Y3887978D01*
X837133Y3900119D01*
X829411Y3911346D01*
X820267Y3921506D01*
X809853Y3930294D01*
X798372Y3937609D01*
X785977Y3943350D01*
X772972Y3947414D01*
X759510Y3949649D01*
X745896Y3950106D01*
X732332Y3948785D01*
X719074Y3945585D01*
X706323Y3940708D01*
X694385Y3934155D01*
X683412Y3926078D01*
X673608Y3916578D01*
X665124Y3905859D01*
X658164Y3894124D01*
X652881Y3881577D01*
X649274Y3868420D01*
X647446Y3854907D01*
X647446Y3841292D01*
X649274Y3827779D01*
X652881Y3814622D01*
X658164Y3802075D01*
X665124Y3790340D01*
X673608Y3779621D01*
X683412Y3770122D01*
X694385Y3762044D01*
X706323Y3755491D01*
X719074Y3750614D01*
X732332Y3747414D01*
G37*
G36*
X745896Y4000093D02*
G01*
X759510Y4000550D01*
X772972Y4002786D01*
X785977Y4006850D01*
X798372Y4012590D01*
X809853Y4019905D01*
X820267Y4028694D01*
X829411Y4038854D01*
X837133Y4050080D01*
X843280Y4062222D01*
X847750Y4075125D01*
X850493Y4088485D01*
X851408Y4102100D01*
X850493Y4115714D01*
X847750Y4129074D01*
X843280Y4141978D01*
X837133Y4154119D01*
X829411Y4165346D01*
X820267Y4175506D01*
X809853Y4184294D01*
X798372Y4191609D01*
X785977Y4197350D01*
X772972Y4201414D01*
X759510Y4203649D01*
X745896Y4204106D01*
X732332Y4202785D01*
X719074Y4199585D01*
X706323Y4194708D01*
X694385Y4188155D01*
X683412Y4180078D01*
X673608Y4170578D01*
X665124Y4159859D01*
X658164Y4148124D01*
X652881Y4135577D01*
X649274Y4122420D01*
X647446Y4108907D01*
X647446Y4095292D01*
X649274Y4081779D01*
X652881Y4068622D01*
X658164Y4056075D01*
X665124Y4044340D01*
X673608Y4033621D01*
X683412Y4024122D01*
X694385Y4016044D01*
X706323Y4009491D01*
X719074Y4004614D01*
X732332Y4001414D01*
G37*
G36*
X3505200Y4222242D02*
G01*
X3519373Y4223207D01*
X3533241Y4225950D01*
X3546703Y4230522D01*
X3559403Y4236770D01*
X3571189Y4244695D01*
X3581857Y4254042D01*
X3591204Y4264710D01*
X3599129Y4276496D01*
X3605377Y4289196D01*
X3609949Y4302658D01*
X3612692Y4316526D01*
X3613658Y4330700D01*
X3612692Y4344873D01*
X3609949Y4358741D01*
X3605377Y4372203D01*
X3599129Y4384903D01*
X3591204Y4396689D01*
X3581857Y4407357D01*
X3571189Y4416704D01*
X3559403Y4424629D01*
X3546703Y4430877D01*
X3533241Y4435449D01*
X3519373Y4438192D01*
X3505200Y4439158D01*
X3491026Y4438192D01*
X3477158Y4435449D01*
X3463696Y4430877D01*
X3450996Y4424629D01*
X3439210Y4416704D01*
X3428542Y4407357D01*
X3419195Y4396689D01*
X3411270Y4384903D01*
X3405022Y4372203D01*
X3400450Y4358741D01*
X3397707Y4344873D01*
X3396742Y4330700D01*
X3397707Y4316526D01*
X3400450Y4302658D01*
X3405022Y4289196D01*
X3411270Y4276496D01*
X3419195Y4264710D01*
X3428542Y4254042D01*
X3439210Y4244695D01*
X3450996Y4236770D01*
X3463696Y4230522D01*
X3477158Y4225950D01*
X3491026Y4223207D01*
G37*
G36*
X745896Y4254093D02*
G01*
X759510Y4254550D01*
X772972Y4256786D01*
X785977Y4260850D01*
X798372Y4266590D01*
X809853Y4273905D01*
X820267Y4282694D01*
X829411Y4292854D01*
X837133Y4304080D01*
X843280Y4316222D01*
X847750Y4329125D01*
X850493Y4342485D01*
X851408Y4356100D01*
X850493Y4369714D01*
X847750Y4383074D01*
X843280Y4395978D01*
X837133Y4408119D01*
X829411Y4419346D01*
X820267Y4429506D01*
X809853Y4438294D01*
X798372Y4445609D01*
X785977Y4451350D01*
X772972Y4455414D01*
X759510Y4457649D01*
X745896Y4458106D01*
X732332Y4456785D01*
X719074Y4453585D01*
X706323Y4448708D01*
X694385Y4442155D01*
X683412Y4434078D01*
X673608Y4424578D01*
X665124Y4413859D01*
X658164Y4402124D01*
X652881Y4389577D01*
X649274Y4376420D01*
X647446Y4362907D01*
X647446Y4349292D01*
X649274Y4335780D01*
X652881Y4322622D01*
X658164Y4310075D01*
X665124Y4298340D01*
X673608Y4287621D01*
X683412Y4278122D01*
X694385Y4270044D01*
X706323Y4263491D01*
X719074Y4258614D01*
X732332Y4255414D01*
G37*
G36*
X3552850Y4476242D02*
G01*
X3587191Y4476242D01*
X3593490Y4476953D01*
X3598976Y4478883D01*
X3603853Y4481931D01*
X3607968Y4486046D01*
X3611016Y4490923D01*
X3612946Y4496409D01*
X3613658Y4502708D01*
X3613658Y4537049D01*
X3552850Y4537049D01*
G37*
G36*
X3423208Y4476242D02*
G01*
X3457600Y4476242D01*
X3457600Y4537049D01*
X3396742Y4537049D01*
X3396742Y4502708D01*
X3397453Y4496409D01*
X3399383Y4490923D01*
X3402431Y4486046D01*
X3406546Y4481931D01*
X3411423Y4478883D01*
X3416909Y4476953D01*
G37*
G36*
X745896Y4508093D02*
G01*
X759510Y4508550D01*
X772972Y4510786D01*
X785977Y4514850D01*
X798372Y4520590D01*
X809853Y4527905D01*
X820267Y4536694D01*
X829411Y4546854D01*
X837133Y4558080D01*
X843280Y4570222D01*
X847750Y4583125D01*
X850493Y4596485D01*
X851408Y4610100D01*
X850493Y4623714D01*
X847750Y4637074D01*
X843280Y4649978D01*
X837133Y4662119D01*
X829411Y4673346D01*
X820267Y4683506D01*
X809853Y4692294D01*
X798372Y4699609D01*
X785977Y4705350D01*
X772972Y4709414D01*
X759510Y4711649D01*
X745896Y4712106D01*
X732332Y4710785D01*
X719074Y4707585D01*
X706323Y4702708D01*
X694385Y4696155D01*
X683412Y4688078D01*
X673608Y4678578D01*
X665124Y4667859D01*
X658164Y4656124D01*
X652881Y4643577D01*
X649274Y4630420D01*
X647446Y4616907D01*
X647446Y4603292D01*
X649274Y4589780D01*
X652881Y4576622D01*
X658164Y4564075D01*
X665124Y4552340D01*
X673608Y4541621D01*
X683412Y4532122D01*
X694385Y4524044D01*
X706323Y4517491D01*
X719074Y4512614D01*
X732332Y4509414D01*
G37*
G36*
X3552850Y4632299D02*
G01*
X3613658Y4632299D01*
X3613658Y4666691D01*
X3612946Y4672990D01*
X3611016Y4678476D01*
X3607968Y4683353D01*
X3603853Y4687468D01*
X3598976Y4690516D01*
X3593490Y4692446D01*
X3587191Y4693158D01*
X3552850Y4693158D01*
G37*
G36*
X3396742Y4632299D02*
G01*
X3457600Y4632299D01*
X3457600Y4693158D01*
X3423208Y4693158D01*
X3416909Y4692446D01*
X3411423Y4690516D01*
X3406546Y4687468D01*
X3402431Y4683353D01*
X3399383Y4678476D01*
X3397453Y4672990D01*
X3396742Y4666691D01*
G37*
G36*
X3079750Y4654550D02*
G01*
X3126943Y4654550D01*
X3123133Y4662119D01*
X3115411Y4673346D01*
X3106267Y4683506D01*
X3095853Y4692294D01*
X3084372Y4699609D01*
X3079750Y4701743D01*
G37*
G36*
X2943504Y4654550D02*
G01*
X2990850Y4654550D01*
X2990850Y4701895D01*
X2980385Y4696155D01*
X2969412Y4688078D01*
X2959608Y4678578D01*
X2951124Y4667859D01*
X2944164Y4656124D01*
G37*
G36*
X3031896Y4762093D02*
G01*
X3045510Y4762550D01*
X3058972Y4764786D01*
X3071977Y4768850D01*
X3084372Y4774590D01*
X3095853Y4781905D01*
X3106267Y4790694D01*
X3115411Y4800854D01*
X3123133Y4812080D01*
X3129280Y4824222D01*
X3133750Y4837125D01*
X3136493Y4850485D01*
X3137408Y4864100D01*
X3136493Y4877714D01*
X3133750Y4891074D01*
X3129280Y4903978D01*
X3123133Y4916119D01*
X3115411Y4927346D01*
X3106267Y4937506D01*
X3095853Y4946294D01*
X3084372Y4953609D01*
X3071977Y4959350D01*
X3058972Y4963414D01*
X3045510Y4965649D01*
X3031896Y4966106D01*
X3018332Y4964785D01*
X3005074Y4961585D01*
X2992323Y4956708D01*
X2980385Y4950155D01*
X2969412Y4942078D01*
X2959608Y4932578D01*
X2951124Y4921859D01*
X2944164Y4910124D01*
X2938881Y4897577D01*
X2935274Y4884420D01*
X2933446Y4870907D01*
X2933446Y4857292D01*
X2935274Y4843780D01*
X2938881Y4830622D01*
X2944164Y4818075D01*
X2951124Y4806340D01*
X2959608Y4795621D01*
X2969412Y4786122D01*
X2980385Y4778044D01*
X2992323Y4771491D01*
X3005074Y4766614D01*
X3018332Y4763414D01*
G37*
G36*
X704850Y4772304D02*
G01*
X704850Y4819650D01*
X657504Y4819650D01*
X658164Y4818075D01*
X665124Y4806340D01*
X673608Y4795621D01*
X683412Y4786122D01*
X694385Y4778044D01*
G37*
G36*
X793750Y4772456D02*
G01*
X798372Y4774590D01*
X809853Y4781905D01*
X820267Y4790694D01*
X829411Y4800854D01*
X837133Y4812080D01*
X840943Y4819650D01*
X793750Y4819650D01*
G37*
G36*
X3549650Y4873904D02*
G01*
X3560114Y4879644D01*
X3571087Y4887722D01*
X3580892Y4897221D01*
X3589375Y4907940D01*
X3596335Y4919675D01*
X3596995Y4921250D01*
X3549650Y4921250D01*
G37*
G36*
X3460750Y4874056D02*
G01*
X3460750Y4921250D01*
X3413556Y4921250D01*
X3417366Y4913680D01*
X3425088Y4902454D01*
X3434232Y4892294D01*
X3444646Y4883505D01*
X3456127Y4876190D01*
G37*
G36*
X793750Y4908550D02*
G01*
X840943Y4908550D01*
X837133Y4916119D01*
X829411Y4927346D01*
X820267Y4937506D01*
X809853Y4946294D01*
X798372Y4953609D01*
X793750Y4955743D01*
G37*
G36*
X657504Y4908550D02*
G01*
X704850Y4908550D01*
X704850Y4955895D01*
X694385Y4950155D01*
X683412Y4942078D01*
X673608Y4932578D01*
X665124Y4921859D01*
X658164Y4910124D01*
G37*
G36*
X3413556Y5010150D02*
G01*
X3460750Y5010150D01*
X3460750Y5057343D01*
X3456127Y5055209D01*
X3444646Y5047894D01*
X3434232Y5039106D01*
X3425088Y5028946D01*
X3417366Y5017719D01*
G37*
G36*
X3549650Y5010150D02*
G01*
X3596995Y5010150D01*
X3596335Y5011724D01*
X3589375Y5023459D01*
X3580892Y5034178D01*
X3571087Y5043678D01*
X3560114Y5051755D01*
X3549650Y5057495D01*
G37*
G36*
X745896Y5016093D02*
G01*
X759510Y5016550D01*
X772972Y5018786D01*
X785977Y5022850D01*
X798372Y5028590D01*
X809853Y5035905D01*
X820267Y5044694D01*
X829411Y5054854D01*
X837133Y5066080D01*
X843280Y5078222D01*
X847750Y5091125D01*
X850493Y5104485D01*
X851408Y5118100D01*
X850493Y5131714D01*
X847750Y5145074D01*
X843280Y5157978D01*
X837133Y5170119D01*
X829411Y5181346D01*
X820267Y5191506D01*
X809853Y5200294D01*
X798372Y5207609D01*
X785977Y5213350D01*
X772972Y5217414D01*
X759510Y5219649D01*
X745896Y5220106D01*
X732332Y5218785D01*
X719074Y5215585D01*
X706323Y5210708D01*
X694385Y5204155D01*
X683412Y5196078D01*
X673608Y5186578D01*
X665124Y5175859D01*
X658164Y5164124D01*
X652881Y5151577D01*
X649274Y5138420D01*
X647446Y5124907D01*
X647446Y5111292D01*
X649274Y5097780D01*
X652881Y5084622D01*
X658164Y5072075D01*
X665124Y5060340D01*
X673608Y5049621D01*
X683412Y5040122D01*
X694385Y5032044D01*
X706323Y5025491D01*
X719074Y5020614D01*
X732332Y5017414D01*
G37*
G36*
X3031896Y5016093D02*
G01*
X3045510Y5016550D01*
X3058972Y5018786D01*
X3071977Y5022850D01*
X3084372Y5028590D01*
X3095853Y5035905D01*
X3106267Y5044694D01*
X3115411Y5054854D01*
X3123133Y5066080D01*
X3129280Y5078222D01*
X3133750Y5091125D01*
X3136493Y5104485D01*
X3137408Y5118100D01*
X3136493Y5131714D01*
X3133750Y5145074D01*
X3129280Y5157978D01*
X3123133Y5170119D01*
X3115411Y5181346D01*
X3106267Y5191506D01*
X3095853Y5200294D01*
X3084372Y5207609D01*
X3071977Y5213350D01*
X3058972Y5217414D01*
X3045510Y5219649D01*
X3031896Y5220106D01*
X3018332Y5218785D01*
X3005074Y5215585D01*
X2992323Y5210708D01*
X2980385Y5204155D01*
X2969412Y5196078D01*
X2959608Y5186578D01*
X2951124Y5175859D01*
X2944164Y5164124D01*
X2938881Y5151577D01*
X2935274Y5138420D01*
X2933446Y5124907D01*
X2933446Y5111292D01*
X2935274Y5097780D01*
X2938881Y5084622D01*
X2944164Y5072075D01*
X2951124Y5060340D01*
X2959608Y5049621D01*
X2969412Y5040122D01*
X2980385Y5032044D01*
X2992323Y5025491D01*
X3005074Y5020614D01*
X3018332Y5017414D01*
G37*
G36*
X3508603Y5117693D02*
G01*
X3522167Y5119014D01*
X3535426Y5122214D01*
X3548176Y5127091D01*
X3560114Y5133644D01*
X3571087Y5141722D01*
X3580892Y5151221D01*
X3589375Y5161940D01*
X3596335Y5173675D01*
X3601618Y5186222D01*
X3605225Y5199380D01*
X3607054Y5212892D01*
X3607054Y5226507D01*
X3605225Y5240020D01*
X3601618Y5253177D01*
X3596335Y5265724D01*
X3589375Y5277459D01*
X3580892Y5288178D01*
X3571087Y5297678D01*
X3560114Y5305755D01*
X3548176Y5312308D01*
X3535426Y5317185D01*
X3522167Y5320385D01*
X3508603Y5321706D01*
X3494989Y5321249D01*
X3481527Y5319014D01*
X3468522Y5314950D01*
X3456127Y5309209D01*
X3444646Y5301894D01*
X3434232Y5293106D01*
X3425088Y5282946D01*
X3417366Y5271719D01*
X3411220Y5259578D01*
X3406749Y5246674D01*
X3404006Y5233314D01*
X3403092Y5219700D01*
X3404006Y5206085D01*
X3406749Y5192725D01*
X3411220Y5179822D01*
X3417366Y5167680D01*
X3425088Y5156454D01*
X3434232Y5146294D01*
X3444646Y5137505D01*
X3456127Y5130190D01*
X3468522Y5124450D01*
X3481527Y5120386D01*
X3494989Y5118150D01*
G37*
G36*
X745896Y5270093D02*
G01*
X759510Y5270550D01*
X772972Y5272786D01*
X785977Y5276850D01*
X798372Y5282590D01*
X809853Y5289905D01*
X820267Y5298694D01*
X829411Y5308854D01*
X837133Y5320080D01*
X843280Y5332222D01*
X847750Y5345125D01*
X850493Y5358485D01*
X851408Y5372100D01*
X850493Y5385714D01*
X847750Y5399074D01*
X843280Y5411978D01*
X837133Y5424119D01*
X829411Y5435346D01*
X820267Y5445506D01*
X809853Y5454294D01*
X798372Y5461609D01*
X785977Y5467350D01*
X772972Y5471414D01*
X759510Y5473649D01*
X745896Y5474106D01*
X732332Y5472785D01*
X719074Y5469585D01*
X706323Y5464708D01*
X694385Y5458155D01*
X683412Y5450078D01*
X673608Y5440578D01*
X665124Y5429859D01*
X658164Y5418124D01*
X652881Y5405577D01*
X649274Y5392420D01*
X647446Y5378907D01*
X647446Y5365292D01*
X649274Y5351780D01*
X652881Y5338622D01*
X658164Y5326075D01*
X665124Y5314340D01*
X673608Y5303621D01*
X683412Y5294122D01*
X694385Y5286044D01*
X706323Y5279491D01*
X719074Y5274614D01*
X732332Y5271414D01*
G37*
G36*
X745896Y5524093D02*
G01*
X759510Y5524550D01*
X772972Y5526786D01*
X785977Y5530850D01*
X798372Y5536590D01*
X809853Y5543905D01*
X820267Y5552694D01*
X829411Y5562854D01*
X837133Y5574080D01*
X843280Y5586222D01*
X847750Y5599125D01*
X850493Y5612485D01*
X851408Y5626100D01*
X850493Y5639714D01*
X847750Y5653074D01*
X843280Y5665978D01*
X837133Y5678119D01*
X829411Y5689346D01*
X820267Y5699506D01*
X809853Y5708294D01*
X798372Y5715609D01*
X785977Y5721350D01*
X772972Y5725414D01*
X759510Y5727649D01*
X745896Y5728106D01*
X732332Y5726785D01*
X719074Y5723585D01*
X706323Y5718708D01*
X694385Y5712155D01*
X683412Y5704078D01*
X673608Y5694578D01*
X665124Y5683859D01*
X658164Y5672124D01*
X652881Y5659577D01*
X649274Y5646420D01*
X647446Y5632907D01*
X647446Y5619292D01*
X649274Y5605780D01*
X652881Y5592622D01*
X658164Y5580075D01*
X665124Y5568340D01*
X673608Y5557621D01*
X683412Y5548122D01*
X694385Y5540044D01*
X706323Y5533491D01*
X719074Y5528614D01*
X732332Y5525414D01*
G37*
G36*
X745896Y5778093D02*
G01*
X759510Y5778550D01*
X772972Y5780786D01*
X785977Y5784850D01*
X798372Y5790590D01*
X809853Y5797905D01*
X820267Y5806694D01*
X829411Y5816854D01*
X837133Y5828080D01*
X843280Y5840222D01*
X847750Y5853125D01*
X850493Y5866485D01*
X851408Y5880100D01*
X850493Y5893714D01*
X847750Y5907074D01*
X843280Y5919978D01*
X837133Y5932119D01*
X829411Y5943346D01*
X820267Y5953506D01*
X809853Y5962294D01*
X798372Y5969609D01*
X785977Y5975350D01*
X772972Y5979414D01*
X759510Y5981649D01*
X745896Y5982106D01*
X732332Y5980785D01*
X719074Y5977585D01*
X706323Y5972708D01*
X694385Y5966155D01*
X683412Y5958078D01*
X673608Y5948578D01*
X665124Y5937859D01*
X658164Y5926124D01*
X652881Y5913577D01*
X649274Y5900420D01*
X647446Y5886907D01*
X647446Y5873292D01*
X649274Y5859780D01*
X652881Y5846622D01*
X658164Y5834075D01*
X665124Y5822340D01*
X673608Y5811621D01*
X683412Y5802122D01*
X694385Y5794044D01*
X706323Y5787491D01*
X719074Y5782614D01*
X732332Y5779414D01*
G37*
G36*
X3505200Y5936742D02*
G01*
X3519373Y5937707D01*
X3533241Y5940450D01*
X3546703Y5945022D01*
X3559403Y5951270D01*
X3571189Y5959195D01*
X3581857Y5968542D01*
X3591204Y5979210D01*
X3599129Y5990996D01*
X3605377Y6003696D01*
X3609949Y6017158D01*
X3612692Y6031026D01*
X3613658Y6045200D01*
X3612692Y6059373D01*
X3609949Y6073241D01*
X3605377Y6086703D01*
X3599129Y6099403D01*
X3591204Y6111189D01*
X3581857Y6121857D01*
X3571189Y6131204D01*
X3559403Y6139129D01*
X3546703Y6145377D01*
X3533241Y6149949D01*
X3519373Y6152692D01*
X3505200Y6153658D01*
X3491026Y6152692D01*
X3477158Y6149949D01*
X3463696Y6145377D01*
X3450996Y6139129D01*
X3439210Y6131204D01*
X3428542Y6121857D01*
X3419195Y6111189D01*
X3411270Y6099403D01*
X3405022Y6086703D01*
X3400450Y6073241D01*
X3397707Y6059373D01*
X3396742Y6045200D01*
X3397707Y6031026D01*
X3400450Y6017158D01*
X3405022Y6003696D01*
X3411270Y5990996D01*
X3419195Y5979210D01*
X3428542Y5968542D01*
X3439210Y5959195D01*
X3450996Y5951270D01*
X3463696Y5945022D01*
X3477158Y5940450D01*
X3491026Y5937707D01*
G37*
G36*
X745896Y6032093D02*
G01*
X759510Y6032550D01*
X772972Y6034786D01*
X785977Y6038850D01*
X798372Y6044590D01*
X809853Y6051905D01*
X820267Y6060694D01*
X829411Y6070854D01*
X837133Y6082080D01*
X843280Y6094222D01*
X847750Y6107125D01*
X850493Y6120485D01*
X851408Y6134100D01*
X850493Y6147714D01*
X847750Y6161074D01*
X843280Y6173978D01*
X837133Y6186119D01*
X829411Y6197346D01*
X820267Y6207506D01*
X809853Y6216294D01*
X798372Y6223609D01*
X785977Y6229350D01*
X772972Y6233414D01*
X759510Y6235649D01*
X745896Y6236106D01*
X732332Y6234785D01*
X719074Y6231585D01*
X706323Y6226708D01*
X694385Y6220155D01*
X683412Y6212078D01*
X673608Y6202578D01*
X665124Y6191859D01*
X658164Y6180124D01*
X652881Y6167577D01*
X649274Y6154420D01*
X647446Y6140907D01*
X647446Y6127292D01*
X649274Y6113780D01*
X652881Y6100622D01*
X658164Y6088075D01*
X665124Y6076340D01*
X673608Y6065621D01*
X683412Y6056122D01*
X694385Y6048044D01*
X706323Y6041491D01*
X719074Y6036614D01*
X732332Y6033414D01*
G37*
G36*
X2990850Y6042304D02*
G01*
X2990850Y6089650D01*
X2943504Y6089650D01*
X2944164Y6088075D01*
X2951124Y6076340D01*
X2959608Y6065621D01*
X2969412Y6056122D01*
X2980385Y6048044D01*
G37*
G36*
X3079750Y6042456D02*
G01*
X3084372Y6044590D01*
X3095853Y6051905D01*
X3106267Y6060694D01*
X3115411Y6070854D01*
X3123133Y6082080D01*
X3126943Y6089650D01*
X3079750Y6089650D01*
G37*
G36*
X3079750Y6178550D02*
G01*
X3126943Y6178550D01*
X3123133Y6186119D01*
X3115411Y6197346D01*
X3106267Y6207506D01*
X3095853Y6216294D01*
X3084372Y6223609D01*
X3079750Y6225743D01*
G37*
G36*
X2943504Y6178550D02*
G01*
X2990850Y6178550D01*
X2990850Y6225895D01*
X2980385Y6220155D01*
X2969412Y6212078D01*
X2959608Y6202578D01*
X2951124Y6191859D01*
X2944164Y6180124D01*
G37*
G36*
X3552850Y6190742D02*
G01*
X3587191Y6190742D01*
X3593490Y6191453D01*
X3598976Y6193383D01*
X3603853Y6196431D01*
X3607968Y6200546D01*
X3611016Y6205423D01*
X3612946Y6210909D01*
X3613658Y6217208D01*
X3613658Y6251549D01*
X3552850Y6251549D01*
G37*
G36*
X3423208Y6190742D02*
G01*
X3457600Y6190742D01*
X3457600Y6251549D01*
X3396742Y6251549D01*
X3396742Y6217208D01*
X3397453Y6210909D01*
X3399383Y6205423D01*
X3402431Y6200546D01*
X3406546Y6196431D01*
X3411423Y6193383D01*
X3416909Y6191453D01*
G37*
G36*
X3552850Y6346799D02*
G01*
X3613658Y6346799D01*
X3613658Y6381191D01*
X3612946Y6387490D01*
X3611016Y6392976D01*
X3607968Y6397853D01*
X3603853Y6401968D01*
X3598976Y6405016D01*
X3593490Y6406946D01*
X3587191Y6407658D01*
X3552850Y6407658D01*
G37*
G36*
X3396742Y6346799D02*
G01*
X3457600Y6346799D01*
X3457600Y6407658D01*
X3423208Y6407658D01*
X3416909Y6406946D01*
X3411423Y6405016D01*
X3406546Y6401968D01*
X3402431Y6397853D01*
X3399383Y6392976D01*
X3397453Y6387490D01*
X3396742Y6381191D01*
G37*

%LPD*%
D10*
X1694992Y4481118D02*
G01*
X2712974Y5499100D01*
X3479800Y5499100D01*
X3505200Y5473700D01*
X1373911Y4764303D02*
G01*
X2362708Y5753100D01*
X3479800Y5753100D01*
X3505200Y5727700D01*
X3505200Y4965700D02*
G01*
X3637711Y5098211D01*
X3637711Y5782690D01*
X3537127Y5883275D01*
X3286125Y5883275D01*
X3035300Y6134100D01*
X1612900Y6604000D02*
G01*
X1955800Y6604000D01*
X3086100Y6604000D02*
G01*
X2968574Y6604000D01*
X2968574Y6604000D02*
G01*
X2848863Y6723710D01*
X2075510Y6723710D01*
X1955800Y6604000D01*
X3505200Y4584700D02*
G01*
X3505200Y4459630D01*
X3505200Y2717800D02*
G01*
X3505200Y2836519D01*
X3505200Y2836519D02*
G01*
X3564559Y2836519D01*
X3633952Y2905912D01*
X3633952Y4393412D01*
X3567734Y4459630D01*
X3505200Y4459630D01*
X3505200Y2362200D02*
G01*
X3505200Y2237130D01*
X3505200Y1803400D02*
G01*
X3505200Y1928469D01*
X3505200Y1928469D02*
G01*
X3633952Y2057222D01*
X3633952Y2170912D01*
X3567734Y2237130D01*
X3505200Y2237130D01*
X3505200Y4584700D02*
G01*
X3380130Y4584700D01*
X3035300Y4610100D02*
G01*
X3354730Y4610100D01*
X3380130Y4584700D01*
X3035300Y6134100D02*
G01*
X3200400Y6299200D01*
X3505200Y6299200D01*
X3035300Y3848100D02*
G01*
X2909138Y3974261D01*
X2909138Y4415891D01*
X2974797Y4481550D01*
X3082823Y4481550D01*
X3505200Y4059173D01*
X3505200Y3987800D01*
X3035300Y4356100D02*
G01*
X3370097Y4021302D01*
X3370097Y3614902D01*
X3505200Y3479800D01*
X3035300Y4102100D02*
G01*
X3294506Y3842893D01*
X3294506Y3436493D01*
X3505200Y3225800D01*
X3035300Y3340100D02*
G01*
X3376447Y2998952D01*
X3376447Y2236952D01*
X3505200Y2108200D01*
X3035300Y2832100D02*
G01*
X977696Y4889703D01*
X977696Y6477203D01*
X850900Y6604000D01*
X1104900Y6604000D02*
G01*
X1104900Y4929860D01*
X2948660Y3086100D01*
X3035300Y3086100D01*
X3594100Y6604000D02*
G01*
X3475202Y6485102D01*
X2328697Y6485102D01*
X2209800Y6604000D01*
X1358900Y6604000D02*
G01*
X1488668Y6474231D01*
X2080031Y6474231D01*
X2209800Y6604000D01*
D11*
G01*
X1955800Y6604000D03*
G01*
X2209800Y6604000D03*
G01*
X2463800Y6604000D03*
G01*
X2717800Y6604000D03*
G01*
X3505200Y4965700D03*
G01*
X3505200Y5219700D03*
G01*
X3505200Y5473700D03*
G01*
X3505200Y5727700D03*
G01*
X1612900Y6604000D03*
G01*
X1358900Y6604000D03*
G01*
X1104900Y6604000D03*
G01*
X850900Y6604000D03*
D12*
G01*
X3086100Y6604000D03*
D13*
G01*
X3340100Y6604000D03*
G01*
X3594100Y6604000D03*
D14*
G01*
X3505200Y2362200D03*
D15*
G01*
X3505200Y2108200D03*
D14*
G01*
X3505200Y4584700D03*
D15*
G01*
X3505200Y4330700D03*
D14*
G01*
X3505200Y6299200D03*
D15*
G01*
X3505200Y6045200D03*
D14*
G01*
X3505200Y1803400D03*
D15*
G01*
X3505200Y1549400D03*
D16*
G01*
X3505200Y2717800D03*
D11*
G01*
X3505200Y2971800D03*
G01*
X3505200Y3225800D03*
G01*
X3505200Y3479800D03*
G01*
X3505200Y3733800D03*
G01*
X3505200Y3987800D03*
G01*
X749300Y6134100D03*
G01*
X749300Y5880100D03*
G01*
X749300Y5626100D03*
G01*
X749300Y5372100D03*
G01*
X749300Y5118100D03*
G01*
X749300Y4864100D03*
G01*
X749300Y4610100D03*
G01*
X749300Y4356100D03*
G01*
X749300Y4102100D03*
G01*
X749300Y3848100D03*
G01*
X749300Y3594100D03*
G01*
X749300Y3340100D03*
G01*
X749300Y3086100D03*
G01*
X749300Y2832100D03*
G01*
X749300Y2578100D03*
G01*
X749300Y2324100D03*
G01*
X749300Y2070100D03*
G01*
X749300Y1816100D03*
G01*
X749300Y1562100D03*
G01*
X3035300Y1562100D03*
G01*
X3035300Y1816100D03*
G01*
X3035300Y2070100D03*
G01*
X3035300Y2324100D03*
G01*
X3035300Y2578100D03*
G01*
X3035300Y2832100D03*
G01*
X3035300Y3086100D03*
G01*
X3035300Y3340100D03*
G01*
X3035300Y3594100D03*
G01*
X3035300Y3848100D03*
G01*
X3035300Y4102100D03*
G01*
X3035300Y4356100D03*
G01*
X3035300Y4610100D03*
G01*
X3035300Y4864100D03*
G01*
X3035300Y5118100D03*
G01*
X3035300Y5372100D03*
G01*
X3035300Y5626100D03*
G01*
X3035300Y5880100D03*
G01*
X3035300Y6134100D03*
D17*
G01*
X1694992Y4481118D03*
G01*
X1373911Y4764303D03*
M02*
