G04 Layer: TopSilkscreenLayer*
G04 EasyEDA v6.5.22, 2023-01-05 13:27:54*
G04 3fff428916324e5da58f8526390e409d,db865e68f4bc4fd99aa1dd1697a786d6,10*
G04 Gerber Generator version 0.2*
G04 Scale: 100 percent, Rotated: No, Reflected: No *
G04 Dimensions in millimeters *
G04 leading zeros omitted , absolute positions ,4 integer and 5 decimal *
%FSLAX45Y45*%
%MOMM*%

%ADD10C,0.1524*%
%ADD11C,0.1270*%
%ADD12C,0.2540*%
%ADD13C,0.2997*%

%LPD*%
G36*
X1892604Y5201666D02*
G01*
X1885137Y5184190D01*
X1882241Y5176164D01*
X1881835Y5174183D01*
X1883460Y5172608D01*
X1887931Y5170220D01*
X1894586Y5167325D01*
X1913839Y5159959D01*
X1934362Y5151272D01*
X1962454Y5138420D01*
X1984654Y5127345D01*
X2006396Y5115458D01*
X2017064Y5109260D01*
X2032812Y5099608D01*
X2048256Y5089499D01*
X2058416Y5082590D01*
X2073351Y5071821D01*
X2092706Y5056936D01*
X2102205Y5049215D01*
X2116124Y5037378D01*
X2129688Y5025136D01*
X2142896Y5012537D01*
X2159914Y4995265D01*
X2176272Y4977333D01*
X2188108Y4963566D01*
X2203246Y4944668D01*
X2217674Y4925263D01*
X2231339Y4905298D01*
X2244242Y4884877D01*
X2250440Y4874463D01*
X2259330Y4858664D01*
X2270455Y4837176D01*
X2278278Y4820767D01*
X2287930Y4798568D01*
X2296007Y4779213D01*
X2300122Y4771999D01*
X2304135Y4769561D01*
X2309520Y4770170D01*
X2316480Y4771898D01*
X2321763Y4773676D01*
X2325624Y4775860D01*
X2328265Y4778959D01*
X2329891Y4783226D01*
X2330805Y4789170D01*
X2331212Y4797044D01*
X2331212Y4813909D01*
X2330754Y4826965D01*
X2329840Y4839970D01*
X2328468Y4852974D01*
X2326690Y4865979D01*
X2324455Y4878882D01*
X2321763Y4891735D01*
X2318664Y4904486D01*
X2315108Y4917186D01*
X2311146Y4929784D01*
X2306777Y4942230D01*
X2302002Y4954524D01*
X2296769Y4966716D01*
X2291181Y4978704D01*
X2285187Y4990541D01*
X2278786Y5002174D01*
X2271979Y5013604D01*
X2264816Y5024831D01*
X2258161Y5034432D01*
X2251506Y5043119D01*
X2243836Y5052263D01*
X2235352Y5061813D01*
X2226259Y5071516D01*
X2216607Y5081270D01*
X2206701Y5090871D01*
X2196592Y5100167D01*
X2186533Y5108956D01*
X2176729Y5117134D01*
X2167229Y5124500D01*
X2158339Y5130901D01*
X2148890Y5136997D01*
X2138375Y5143296D01*
X2127707Y5149342D01*
X2116836Y5155031D01*
X2105863Y5160416D01*
X2094738Y5165496D01*
X2083460Y5170220D01*
X2072081Y5174691D01*
X2060549Y5178755D01*
X2048967Y5182514D01*
X2037232Y5185968D01*
X2025446Y5189067D01*
X2013559Y5191861D01*
X2001621Y5194300D01*
X1989582Y5196382D01*
X1977491Y5198110D01*
X1965401Y5199532D01*
X1953209Y5200599D01*
X1941017Y5201310D01*
X1928774Y5201666D01*
G37*
G36*
X1739849Y5156911D02*
G01*
X1735683Y5155793D01*
X1728774Y5152694D01*
X1720088Y5148224D01*
X1705610Y5139588D01*
X1694738Y5132425D01*
X1683918Y5124907D01*
X1674368Y5117896D01*
X1665071Y5110429D01*
X1660956Y5106822D01*
X1657959Y5103622D01*
X1655927Y5100574D01*
X1654606Y5097322D01*
X1653895Y5093563D01*
X1653590Y5088890D01*
X1653692Y5074767D01*
X1654911Y5056581D01*
X1658061Y5033010D01*
X1690979Y5032959D01*
X1702104Y5032552D01*
X1713382Y5031841D01*
X1724812Y5030724D01*
X1736394Y5029250D01*
X1748078Y5027422D01*
X1759813Y5025237D01*
X1771700Y5022748D01*
X1783638Y5019903D01*
X1795627Y5016703D01*
X1807616Y5013198D01*
X1819656Y5009337D01*
X1831644Y5005222D01*
X1843633Y5000752D01*
X1855622Y4995976D01*
X1879346Y4985562D01*
X1891131Y4979924D01*
X1902764Y4973980D01*
X1914296Y4967782D01*
X1925675Y4961280D01*
X1936902Y4954524D01*
X1946503Y4948428D01*
X1955241Y4942281D01*
X1964537Y4935220D01*
X1974342Y4927295D01*
X1984502Y4918710D01*
X1994865Y4909566D01*
X2015540Y4890211D01*
X2025599Y4880305D01*
X2044344Y4860594D01*
X2052726Y4851146D01*
X2060346Y4842103D01*
X2066950Y4833620D01*
X2073503Y4824374D01*
X2080615Y4813706D01*
X2087473Y4802784D01*
X2094026Y4791760D01*
X2100275Y4780534D01*
X2106218Y4769205D01*
X2111857Y4757724D01*
X2117191Y4746142D01*
X2122220Y4734458D01*
X2126894Y4722672D01*
X2131263Y4710836D01*
X2135276Y4698949D01*
X2138934Y4687011D01*
X2142286Y4675022D01*
X2145233Y4663084D01*
X2147874Y4651095D01*
X2150110Y4639157D01*
X2151989Y4627270D01*
X2153513Y4615434D01*
X2154682Y4603597D01*
X2156510Y4573016D01*
X2157526Y4562348D01*
X2158288Y4558436D01*
X2159304Y4555337D01*
X2160625Y4553000D01*
X2162403Y4551273D01*
X2164689Y4550054D01*
X2167534Y4549292D01*
X2171039Y4548835D01*
X2227224Y4547362D01*
X2246833Y4570679D01*
X2254605Y4580686D01*
X2262530Y4591507D01*
X2269642Y4601870D01*
X2285796Y4627321D01*
X2280361Y4659528D01*
X2278126Y4671466D01*
X2272842Y4695190D01*
X2266594Y4718659D01*
X2263089Y4730343D01*
X2255367Y4753457D01*
X2251151Y4764887D01*
X2242007Y4787493D01*
X2231948Y4809794D01*
X2223770Y4826254D01*
X2218080Y4837074D01*
X2205990Y4858410D01*
X2196338Y4874056D01*
X2182723Y4894529D01*
X2168296Y4914442D01*
X2160778Y4924145D01*
X2145080Y4943195D01*
X2128469Y4961686D01*
X2110994Y4979517D01*
X2097379Y4992420D01*
X2083307Y5004968D01*
X2063902Y5021072D01*
X2043785Y5036413D01*
X2033473Y5043830D01*
X2012442Y5058003D01*
X2001723Y5064810D01*
X1985314Y5074615D01*
X1963064Y5086908D01*
X1946046Y5095595D01*
X1934565Y5101132D01*
X1917141Y5108956D01*
X1893620Y5118608D01*
X1875739Y5125212D01*
X1851660Y5133136D01*
X1839518Y5136743D01*
X1827326Y5140096D01*
X1802841Y5146040D01*
X1784350Y5149799D01*
X1755393Y5154828D01*
X1745234Y5156352D01*
G37*
G36*
X1584960Y5136286D02*
G01*
X1582420Y5134457D01*
X1577289Y5129428D01*
X1570278Y5122062D01*
X1557832Y5108041D01*
X1549349Y5097932D01*
X1541221Y5087620D01*
X1533398Y5077206D01*
X1525930Y5066639D01*
X1515262Y5050536D01*
X1508607Y5039614D01*
X1502257Y5028539D01*
X1496263Y5017363D01*
X1490573Y5006035D01*
X1485188Y4994554D01*
X1480159Y4982972D01*
X1475486Y4971237D01*
X1471117Y4959350D01*
X1467053Y4947361D01*
X1463344Y4935220D01*
X1459992Y4922977D01*
X1456944Y4910632D01*
X1454251Y4898136D01*
X1451914Y4885486D01*
X1450238Y4874768D01*
X1448917Y4863490D01*
X1447850Y4851755D01*
X1447139Y4839665D01*
X1446530Y4821021D01*
X1446631Y4802022D01*
X1447038Y4789271D01*
X1448206Y4770272D01*
X1449324Y4757775D01*
X1450695Y4745532D01*
X1452372Y4733594D01*
X1454302Y4722063D01*
X1456486Y4710988D01*
X1458925Y4700473D01*
X1461922Y4689398D01*
X1465580Y4677359D01*
X1469491Y4665421D01*
X1473657Y4653686D01*
X1478178Y4642104D01*
X1482902Y4630724D01*
X1487932Y4619447D01*
X1493266Y4608372D01*
X1498854Y4597501D01*
X1504696Y4586782D01*
X1510842Y4576216D01*
X1517243Y4565853D01*
X1523898Y4555693D01*
X1530807Y4545736D01*
X1537970Y4535932D01*
X1545437Y4526330D01*
X1553108Y4516932D01*
X1561084Y4507738D01*
X1569262Y4498746D01*
X1577746Y4489958D01*
X1586433Y4481372D01*
X1595424Y4472990D01*
X1604619Y4464862D01*
X1614068Y4456887D01*
X1623771Y4449165D01*
X1633677Y4441647D01*
X1643786Y4434433D01*
X1654048Y4427474D01*
X1664411Y4420819D01*
X1674875Y4414469D01*
X1685493Y4408373D01*
X1696212Y4402531D01*
X1707032Y4397044D01*
X1728927Y4386834D01*
X1740052Y4382160D01*
X1756867Y4375708D01*
X1768195Y4371746D01*
X1779574Y4368088D01*
X1796745Y4363110D01*
X1808276Y4360164D01*
X1819859Y4357471D01*
X1831492Y4355084D01*
X1843176Y4353001D01*
X1854911Y4351172D01*
X1878380Y4348378D01*
X1902002Y4346702D01*
X1913839Y4346295D01*
X1937461Y4346346D01*
X1949297Y4346803D01*
X1961083Y4347514D01*
X1978761Y4349140D01*
X2002282Y4352290D01*
X2013966Y4354322D01*
X2037232Y4359148D01*
X2060295Y4365142D01*
X2071725Y4368546D01*
X2083104Y4372254D01*
X2094382Y4376267D01*
X2105609Y4380534D01*
X2116734Y4385056D01*
X2127808Y4389882D01*
X2138781Y4395012D01*
X2149652Y4400397D01*
X2165705Y4408982D01*
X2176322Y4415078D01*
X2191969Y4424781D01*
X2202281Y4431588D01*
X2212441Y4438650D01*
X2222449Y4446016D01*
X2234082Y4454956D01*
X2244648Y4463389D01*
X2252929Y4470349D01*
X2257856Y4474921D01*
X2261616Y4479391D01*
X2262327Y4482896D01*
X2259533Y4487265D01*
X2252726Y4494276D01*
X2247798Y4498949D01*
X2243378Y4502759D01*
X2239924Y4505350D01*
X2237841Y4506264D01*
X2235250Y4504944D01*
X2230221Y4501337D01*
X2223516Y4496003D01*
X2211374Y4485690D01*
X2202230Y4478223D01*
X2192680Y4470958D01*
X2182774Y4463897D01*
X2172512Y4457039D01*
X2161946Y4450435D01*
X2151126Y4444085D01*
X2140000Y4437989D01*
X2122881Y4429353D01*
X2111197Y4423968D01*
X2099360Y4418838D01*
X2087321Y4414062D01*
X2075180Y4409592D01*
X2062937Y4405426D01*
X2050592Y4401616D01*
X2038197Y4398162D01*
X2025751Y4395063D01*
X2013305Y4392371D01*
X2002840Y4390440D01*
X1991614Y4388815D01*
X1979726Y4387443D01*
X1967433Y4386326D01*
X1954784Y4385513D01*
X1941880Y4384954D01*
X1928926Y4384649D01*
X1916023Y4384649D01*
X1903272Y4384903D01*
X1890826Y4385462D01*
X1878787Y4386275D01*
X1867357Y4387342D01*
X1856638Y4388713D01*
X1846732Y4390390D01*
X1833676Y4393082D01*
X1820621Y4396181D01*
X1807616Y4399635D01*
X1794713Y4403445D01*
X1781860Y4407611D01*
X1769160Y4412081D01*
X1756613Y4416907D01*
X1744268Y4422038D01*
X1732127Y4427423D01*
X1720240Y4433112D01*
X1708607Y4439056D01*
X1697278Y4445304D01*
X1686306Y4451705D01*
X1675688Y4458411D01*
X1665478Y4465269D01*
X1655673Y4472330D01*
X1646326Y4479594D01*
X1619656Y4502607D01*
X1635455Y4495444D01*
X1640738Y4493310D01*
X1646021Y4491583D01*
X1651304Y4490313D01*
X1656537Y4489500D01*
X1661718Y4489094D01*
X1666849Y4489043D01*
X1671878Y4489450D01*
X1676806Y4490161D01*
X1681683Y4491278D01*
X1686407Y4492701D01*
X1690979Y4494428D01*
X1695399Y4496460D01*
X1699717Y4498797D01*
X1707743Y4504283D01*
X1711452Y4507382D01*
X1714957Y4510735D01*
X1718208Y4514291D01*
X1721256Y4518050D01*
X1724050Y4521962D01*
X1726590Y4526026D01*
X1730756Y4534662D01*
X1732381Y4539132D01*
X1733651Y4543704D01*
X1734616Y4548378D01*
X1735277Y4553153D01*
X1735531Y4557928D01*
X1735378Y4562754D01*
X1734870Y4567631D01*
X1733956Y4572508D01*
X1732635Y4577334D01*
X1730857Y4582210D01*
X1728673Y4586986D01*
X1725980Y4591710D01*
X1722882Y4596384D01*
X1719072Y4601210D01*
X1714957Y4605578D01*
X1710639Y4609541D01*
X1706067Y4613097D01*
X1701241Y4616196D01*
X1696313Y4618939D01*
X1691182Y4621225D01*
X1685950Y4623104D01*
X1680565Y4624527D01*
X1675180Y4625594D01*
X1669694Y4626203D01*
X1664207Y4626406D01*
X1658670Y4626152D01*
X1653184Y4625543D01*
X1647748Y4624476D01*
X1642414Y4623003D01*
X1637182Y4621123D01*
X1632051Y4618786D01*
X1627073Y4616094D01*
X1622298Y4612944D01*
X1617726Y4609338D01*
X1613357Y4605375D01*
X1609242Y4601006D01*
X1605432Y4596180D01*
X1602384Y4591812D01*
X1599996Y4587900D01*
X1598117Y4584141D01*
X1596745Y4580382D01*
X1595780Y4576318D01*
X1595170Y4571746D01*
X1594764Y4560265D01*
X1595120Y4550410D01*
X1596339Y4541418D01*
X1598269Y4533595D01*
X1601012Y4527143D01*
X1607312Y4515256D01*
X1595475Y4526127D01*
X1589176Y4532731D01*
X1582521Y4540554D01*
X1575612Y4549343D01*
X1568500Y4559046D01*
X1561338Y4569460D01*
X1554175Y4580483D01*
X1547114Y4591913D01*
X1540205Y4603699D01*
X1533601Y4615586D01*
X1527352Y4627524D01*
X1521510Y4639310D01*
X1516278Y4650841D01*
X1511655Y4661916D01*
X1507490Y4673041D01*
X1503629Y4684928D01*
X1500073Y4697272D01*
X1496872Y4710023D01*
X1494028Y4723130D01*
X1491589Y4736490D01*
X1489456Y4750054D01*
X1487779Y4763770D01*
X1486408Y4777536D01*
X1485493Y4791354D01*
X1484934Y4805070D01*
X1484782Y4818634D01*
X1485036Y4832045D01*
X1485696Y4845151D01*
X1486814Y4857953D01*
X1488338Y4870348D01*
X1490319Y4882286D01*
X1492707Y4894275D01*
X1495501Y4906264D01*
X1498701Y4918252D01*
X1502359Y4930241D01*
X1506372Y4942230D01*
X1510741Y4954117D01*
X1515465Y4965954D01*
X1520545Y4977688D01*
X1525981Y4989271D01*
X1534668Y5006390D01*
X1540916Y5017566D01*
X1547418Y5028488D01*
X1554175Y5039207D01*
X1561236Y5049672D01*
X1568500Y5059832D01*
X1576070Y5069636D01*
X1583842Y5079187D01*
X1591868Y5088331D01*
X1600047Y5097068D01*
X1613814Y5111242D01*
X1595170Y5128615D01*
X1590446Y5132628D01*
X1586890Y5135270D01*
G37*
G36*
X1676704Y4987899D02*
G01*
X1663090Y4987391D01*
X1649780Y4986375D01*
X1638300Y4984902D01*
X1630172Y4983175D01*
X1623771Y4981092D01*
X1611477Y4976266D01*
X1599793Y4970627D01*
X1588871Y4964176D01*
X1583639Y4960670D01*
X1573733Y4953101D01*
X1564589Y4944821D01*
X1556258Y4935829D01*
X1548688Y4926177D01*
X1545234Y4921148D01*
X1541983Y4915916D01*
X1536141Y4905095D01*
X1533550Y4899456D01*
X1529080Y4887772D01*
X1527149Y4881778D01*
X1525473Y4875631D01*
X1524050Y4869332D01*
X1522882Y4862982D01*
X1521307Y4850231D01*
X1520647Y4838090D01*
X1520647Y4832146D01*
X1521358Y4820513D01*
X1522984Y4809286D01*
X1524101Y4803800D01*
X1527048Y4793081D01*
X1530908Y4782718D01*
X1535684Y4772710D01*
X1541373Y4763058D01*
X1547977Y4753711D01*
X1555496Y4744720D01*
X1563928Y4736033D01*
X1573326Y4727600D01*
X1583029Y4719980D01*
X1592834Y4713376D01*
X1602892Y4707737D01*
X1608074Y4705248D01*
X1618792Y4700930D01*
X1630121Y4697374D01*
X1642262Y4694529D01*
X1655318Y4692345D01*
X1694535Y4686757D01*
X1699717Y4685842D01*
X1704949Y4684522D01*
X1710283Y4682845D01*
X1715617Y4680813D01*
X1726285Y4675784D01*
X1736801Y4669536D01*
X1747012Y4662271D01*
X1751939Y4658309D01*
X1761388Y4649724D01*
X1770075Y4640427D01*
X1774037Y4635601D01*
X1777796Y4630572D01*
X1781251Y4625492D01*
X1784451Y4620310D01*
X1787296Y4615027D01*
X1789633Y4610100D01*
X1793595Y4599787D01*
X1796542Y4589018D01*
X1797710Y4583480D01*
X1799285Y4572152D01*
X1799894Y4560722D01*
X1799589Y4549190D01*
X1798320Y4537710D01*
X1796186Y4526432D01*
X1794764Y4520895D01*
X1791258Y4510176D01*
X1786839Y4499914D01*
X1784299Y4494987D01*
X1778558Y4485690D01*
X1767839Y4470247D01*
X1783994Y4454398D01*
X1788718Y4450181D01*
X1793392Y4446422D01*
X1798116Y4442968D01*
X1802892Y4439920D01*
X1807819Y4437126D01*
X1812950Y4434687D01*
X1818335Y4432452D01*
X1823974Y4430471D01*
X1836420Y4427067D01*
X1854250Y4423460D01*
X1871014Y4420666D01*
X1877314Y4420108D01*
X1882444Y4420260D01*
X1886712Y4421073D01*
X1890268Y4422698D01*
X1893366Y4425188D01*
X1896160Y4428642D01*
X1898954Y4433062D01*
X1905152Y4445152D01*
X1910334Y4456379D01*
X1914956Y4467656D01*
X1918970Y4479086D01*
X1922475Y4490567D01*
X1925421Y4502150D01*
X1927809Y4513732D01*
X1929638Y4525416D01*
X1930907Y4537100D01*
X1931619Y4548784D01*
X1931822Y4560468D01*
X1931416Y4572101D01*
X1930501Y4583734D01*
X1929028Y4595317D01*
X1926996Y4606798D01*
X1924456Y4618278D01*
X1921306Y4629607D01*
X1917700Y4640834D01*
X1913483Y4651959D01*
X1908759Y4662932D01*
X1903526Y4673752D01*
X1897735Y4684369D01*
X1891385Y4694885D01*
X1884527Y4705146D01*
X1877110Y4715205D01*
X1869948Y4724044D01*
X1862226Y4732578D01*
X1853946Y4740808D01*
X1845157Y4748733D01*
X1835962Y4756353D01*
X1826310Y4763566D01*
X1816303Y4770424D01*
X1805939Y4776876D01*
X1795272Y4782870D01*
X1784350Y4788458D01*
X1773174Y4793589D01*
X1761794Y4798263D01*
X1750314Y4802378D01*
X1738630Y4806035D01*
X1726946Y4809134D01*
X1715160Y4811674D01*
X1703374Y4813604D01*
X1682953Y4816043D01*
X1675231Y4817567D01*
X1668525Y4819548D01*
X1662836Y4821936D01*
X1658112Y4824730D01*
X1654505Y4827930D01*
X1651914Y4831486D01*
X1650441Y4835347D01*
X1650085Y4839512D01*
X1650847Y4843983D01*
X1652778Y4848707D01*
X1655876Y4853686D01*
X1657857Y4856276D01*
X1659839Y4858207D01*
X1662277Y4859578D01*
X1665478Y4860391D01*
X1669846Y4860798D01*
X1683816Y4860391D01*
X1700123Y4859375D01*
X1711858Y4858156D01*
X1723542Y4856480D01*
X1735074Y4854346D01*
X1746554Y4851755D01*
X1757883Y4848707D01*
X1769059Y4845202D01*
X1780133Y4841290D01*
X1791055Y4836922D01*
X1801825Y4832096D01*
X1812442Y4826812D01*
X1822907Y4821123D01*
X1833168Y4815027D01*
X1843278Y4808474D01*
X1853184Y4801514D01*
X1862886Y4794097D01*
X1872386Y4786325D01*
X1881682Y4778095D01*
X1890877Y4769358D01*
X1899767Y4760214D01*
X1908149Y4750968D01*
X1916023Y4741519D01*
X1923389Y4731816D01*
X1930298Y4721809D01*
X1936750Y4711547D01*
X1942846Y4700879D01*
X1948535Y4689856D01*
X1953869Y4678375D01*
X1958848Y4666386D01*
X1963572Y4653889D01*
X1967788Y4641392D01*
X1970989Y4630470D01*
X1973325Y4619904D01*
X1974951Y4608474D01*
X1976120Y4594910D01*
X1976932Y4577994D01*
X1977542Y4558893D01*
X1977796Y4543247D01*
X1977542Y4529836D01*
X1976678Y4517796D01*
X1975104Y4506163D01*
X1972614Y4494123D01*
X1969211Y4480712D01*
X1961946Y4456023D01*
X1961489Y4453839D01*
X1961743Y4451908D01*
X1962861Y4450080D01*
X1965096Y4448251D01*
X1968652Y4446270D01*
X1973783Y4443984D01*
X1989480Y4438040D01*
X2019147Y4427270D01*
X2049322Y4436465D01*
X2068017Y4443018D01*
X2086000Y4449826D01*
X2097684Y4454804D01*
X2099411Y4455922D01*
X2104745Y4485640D01*
X2106320Y4495698D01*
X2107641Y4506925D01*
X2108657Y4518964D01*
X2109774Y4544872D01*
X2109724Y4571746D01*
X2109266Y4585004D01*
X2108504Y4597857D01*
X2107488Y4610100D01*
X2106117Y4621530D01*
X2104491Y4631944D01*
X2102104Y4644186D01*
X2099360Y4656378D01*
X2096211Y4668418D01*
X2092706Y4680356D01*
X2088845Y4692192D01*
X2084679Y4703927D01*
X2080107Y4715459D01*
X2075230Y4726889D01*
X2069998Y4738166D01*
X2064461Y4749292D01*
X2058568Y4760264D01*
X2052421Y4771034D01*
X2045919Y4781651D01*
X2039112Y4792116D01*
X2032000Y4802327D01*
X2024583Y4812385D01*
X2016912Y4822190D01*
X2008936Y4831791D01*
X2000707Y4841189D01*
X1992172Y4850384D01*
X1983384Y4859324D01*
X1974291Y4868011D01*
X1964994Y4876444D01*
X1955444Y4884623D01*
X1945639Y4892598D01*
X1935581Y4900218D01*
X1925269Y4907584D01*
X1914753Y4914696D01*
X1904034Y4921504D01*
X1893062Y4928006D01*
X1881886Y4934204D01*
X1870506Y4940096D01*
X1858670Y4945786D01*
X1846681Y4951120D01*
X1834591Y4956149D01*
X1822399Y4960823D01*
X1810156Y4965141D01*
X1797862Y4969103D01*
X1785518Y4972710D01*
X1773123Y4975961D01*
X1760778Y4978806D01*
X1748485Y4981295D01*
X1736242Y4983378D01*
X1724101Y4985105D01*
X1712061Y4986375D01*
X1700123Y4987290D01*
X1688338Y4987798D01*
G37*
G36*
X1910791Y3447643D02*
G01*
X1820164Y3447440D01*
X1679498Y3446373D01*
X1624380Y3445611D01*
X1579422Y3444646D01*
X1546860Y3443478D01*
X1535938Y3442868D01*
X1528927Y3442157D01*
X1527048Y3441801D01*
X1516329Y3438448D01*
X1511096Y3436467D01*
X1500886Y3431844D01*
X1491030Y3426460D01*
X1481582Y3420313D01*
X1472590Y3413506D01*
X1464106Y3406038D01*
X1456131Y3398012D01*
X1448816Y3389426D01*
X1442110Y3380282D01*
X1438960Y3375558D01*
X1433322Y3365754D01*
X1430731Y3360724D01*
X1426210Y3350361D01*
X1424228Y3345078D01*
X1420977Y3334258D01*
X1420215Y3329228D01*
X1418894Y3307283D01*
X1417777Y3271316D01*
X1416862Y3223615D01*
X1415592Y3101898D01*
X1415237Y3032353D01*
X1415213Y2864307D01*
X1467256Y2864307D01*
X1467408Y2873146D01*
X1467967Y2882036D01*
X1469034Y2890926D01*
X1470558Y2899867D01*
X1472590Y2908808D01*
X1475079Y2917748D01*
X1478076Y2926689D01*
X1481582Y2935579D01*
X1485595Y2944520D01*
X1488236Y2949702D01*
X1491234Y2954883D01*
X1498092Y2965145D01*
X1506067Y2975152D01*
X1510385Y2980080D01*
X1519732Y2989529D01*
X1529791Y2998571D01*
X1540408Y3006953D01*
X1551533Y3014573D01*
X1557172Y3018129D01*
X1568704Y3024479D01*
X1580286Y3029813D01*
X1586026Y3032099D01*
X1591818Y3034080D01*
X1612646Y3039364D01*
X1618488Y3041751D01*
X1621739Y3044952D01*
X1623364Y3049473D01*
X1626107Y3061157D01*
X1629257Y3072638D01*
X1632813Y3083864D01*
X1636725Y3094939D01*
X1643278Y3111042D01*
X1648155Y3121507D01*
X1653286Y3131718D01*
X1658823Y3141675D01*
X1664665Y3151378D01*
X1670812Y3160826D01*
X1677314Y3170021D01*
X1684070Y3178911D01*
X1691132Y3187547D01*
X1698498Y3195878D01*
X1706118Y3203905D01*
X1713992Y3211677D01*
X1722120Y3219145D01*
X1730502Y3226257D01*
X1739087Y3233064D01*
X1747926Y3239566D01*
X1756968Y3245764D01*
X1766214Y3251606D01*
X1775663Y3257092D01*
X1785315Y3262274D01*
X1795119Y3267049D01*
X1805127Y3271520D01*
X1815236Y3275634D01*
X1825548Y3279343D01*
X1835962Y3282696D01*
X1846529Y3285642D01*
X1857197Y3288233D01*
X1867966Y3290417D01*
X1878888Y3292195D01*
X1889861Y3293567D01*
X1900936Y3294532D01*
X1912061Y3295091D01*
X1923237Y3295192D01*
X1934514Y3294887D01*
X1945792Y3294176D01*
X1957120Y3293008D01*
X1968500Y3291382D01*
X1979879Y3289300D01*
X1991258Y3286760D01*
X2002891Y3283661D01*
X2014677Y3280054D01*
X2026259Y3275990D01*
X2037588Y3271469D01*
X2048662Y3266541D01*
X2059533Y3261156D01*
X2070100Y3255365D01*
X2080412Y3249218D01*
X2090470Y3242614D01*
X2100275Y3235655D01*
X2109724Y3228340D01*
X2118918Y3220618D01*
X2127758Y3212592D01*
X2136343Y3204159D01*
X2144522Y3195421D01*
X2152446Y3186379D01*
X2159965Y3176981D01*
X2167128Y3167329D01*
X2173986Y3157321D01*
X2180386Y3147060D01*
X2186482Y3136493D01*
X2192172Y3125673D01*
X2197404Y3114598D01*
X2202281Y3103270D01*
X2206752Y3091688D01*
X2210765Y3079902D01*
X2214321Y3067913D01*
X2218893Y3049473D01*
X2220518Y3044952D01*
X2223770Y3041802D01*
X2229612Y3039364D01*
X2244496Y3035808D01*
X2255113Y3032760D01*
X2265476Y3028899D01*
X2275535Y3024327D01*
X2285288Y3019044D01*
X2294686Y3013151D01*
X2303729Y3006598D01*
X2312365Y2999486D01*
X2320544Y2991866D01*
X2328316Y2983687D01*
X2335580Y2975102D01*
X2342337Y2966059D01*
X2348534Y2956661D01*
X2354173Y2946908D01*
X2359202Y2936849D01*
X2363571Y2926537D01*
X2367330Y2915970D01*
X2370378Y2905201D01*
X2372715Y2894330D01*
X2374341Y2883306D01*
X2375154Y2872181D01*
X2375204Y2861056D01*
X2374493Y2851048D01*
X2373426Y2842158D01*
X2371902Y2833370D01*
X2369921Y2824683D01*
X2367534Y2816098D01*
X2364790Y2807665D01*
X2361590Y2799283D01*
X2357983Y2791002D01*
X2354021Y2782874D01*
X2349652Y2774848D01*
X2344877Y2766974D01*
X2339797Y2759151D01*
X2334310Y2751531D01*
X2325471Y2740304D01*
X2319121Y2732989D01*
X2312416Y2725775D01*
X2305405Y2718765D01*
X2298090Y2711856D01*
X2290470Y2705150D01*
X2282545Y2698546D01*
X2274265Y2692095D01*
X2265781Y2685846D01*
X2256942Y2679750D01*
X2247849Y2673807D01*
X2238502Y2668016D01*
X2228900Y2662428D01*
X2218994Y2656992D01*
X2198522Y2646680D01*
X2187956Y2641803D01*
X2166112Y2632608D01*
X2143455Y2624226D01*
X2131822Y2620314D01*
X2107996Y2613152D01*
X2083511Y2606802D01*
X2064715Y2602636D01*
X2039162Y2597861D01*
X2026208Y2595829D01*
X2006498Y2593187D01*
X1979879Y2590546D01*
X1952853Y2588869D01*
X1939188Y2588412D01*
X1925472Y2588209D01*
X1897837Y2588564D01*
X1883918Y2589123D01*
X1855978Y2591104D01*
X1834946Y2593289D01*
X1813915Y2596134D01*
X1799843Y2598369D01*
X1785366Y2601010D01*
X1764080Y2605430D01*
X1750263Y2608732D01*
X1736699Y2612237D01*
X1723339Y2616047D01*
X1710334Y2620060D01*
X1697532Y2624328D01*
X1685086Y2628849D01*
X1672894Y2633573D01*
X1660956Y2638501D01*
X1649374Y2643682D01*
X1638096Y2649016D01*
X1627073Y2654604D01*
X1616405Y2660345D01*
X1606092Y2666339D01*
X1596034Y2672486D01*
X1586382Y2678785D01*
X1577035Y2685288D01*
X1567992Y2691942D01*
X1559356Y2698750D01*
X1551025Y2705709D01*
X1543100Y2712872D01*
X1535480Y2720136D01*
X1528267Y2727553D01*
X1521460Y2735072D01*
X1514957Y2742742D01*
X1508912Y2750515D01*
X1503222Y2758389D01*
X1497939Y2766415D01*
X1493012Y2774543D01*
X1488541Y2782722D01*
X1484477Y2791002D01*
X1480820Y2799384D01*
X1477568Y2807868D01*
X1474774Y2816352D01*
X1472438Y2824988D01*
X1470507Y2833624D01*
X1468983Y2842310D01*
X1467967Y2851099D01*
X1467256Y2864307D01*
X1415213Y2864307D01*
X1415999Y2732633D01*
X1416659Y2673400D01*
X1417523Y2623058D01*
X1418590Y2583992D01*
X1419860Y2558338D01*
X1420571Y2551226D01*
X1422501Y2543708D01*
X1426260Y2532888D01*
X1430832Y2522474D01*
X1436166Y2512415D01*
X1442262Y2502814D01*
X1449019Y2493670D01*
X1456436Y2485085D01*
X1464462Y2477058D01*
X1473047Y2469642D01*
X1482191Y2462834D01*
X1491742Y2456738D01*
X1501800Y2451404D01*
X1512214Y2446832D01*
X1522984Y2443073D01*
X1529384Y2441346D01*
X1535480Y2440635D01*
X1545539Y2439924D01*
X1576527Y2438755D01*
X1620113Y2437739D01*
X1674063Y2436926D01*
X1736089Y2436266D01*
X1804009Y2435860D01*
X1884629Y2435656D01*
X2011730Y2435758D01*
X2153361Y2436723D01*
X2209495Y2437485D01*
X2255875Y2438450D01*
X2290267Y2439619D01*
X2302205Y2440279D01*
X2312873Y2441346D01*
X2319274Y2443073D01*
X2330043Y2446832D01*
X2340457Y2451404D01*
X2350465Y2456738D01*
X2360066Y2462834D01*
X2369159Y2469642D01*
X2377744Y2477058D01*
X2381859Y2480970D01*
X2389581Y2489301D01*
X2396693Y2498191D01*
X2403094Y2507538D01*
X2408834Y2517394D01*
X2413812Y2527655D01*
X2417978Y2538272D01*
X2419756Y2543708D01*
X2421483Y2550109D01*
X2422194Y2556205D01*
X2423515Y2580030D01*
X2424582Y2617571D01*
X2425496Y2666593D01*
X2426208Y2724861D01*
X2427071Y2869133D01*
X2427071Y2996488D01*
X2426817Y3076397D01*
X2425649Y3203244D01*
X2424785Y3254806D01*
X2423769Y3295446D01*
X2422499Y3322929D01*
X2421432Y3333597D01*
X2419705Y3339947D01*
X2415946Y3350717D01*
X2411374Y3361182D01*
X2406040Y3371189D01*
X2399944Y3380790D01*
X2393188Y3389884D01*
X2385720Y3398469D01*
X2381808Y3402584D01*
X2373477Y3410305D01*
X2364587Y3417417D01*
X2355240Y3423818D01*
X2345385Y3429558D01*
X2335123Y3434537D01*
X2324506Y3438702D01*
X2319070Y3440480D01*
X2312720Y3442208D01*
X2306675Y3442919D01*
X2282901Y3444138D01*
X2245309Y3445205D01*
X2196134Y3446068D01*
X2137714Y3446779D01*
X1992934Y3447542D01*
G37*
G36*
X1845310Y3194456D02*
G01*
X1841296Y3193796D01*
X1836724Y3192068D01*
X1832203Y3189427D01*
X1828342Y3186226D01*
X1825752Y3183483D01*
X1823770Y3180791D01*
X1822348Y3177794D01*
X1821281Y3174034D01*
X1820621Y3169158D01*
X1820265Y3162808D01*
X1820062Y3143910D01*
X1820164Y3134969D01*
X1820621Y3127044D01*
X1821332Y3120085D01*
X1822399Y3114040D01*
X1823821Y3108807D01*
X1825599Y3104489D01*
X1827784Y3100882D01*
X1830374Y3098088D01*
X1833422Y3095955D01*
X1836877Y3094482D01*
X1840839Y3093669D01*
X1845310Y3093364D01*
X1849780Y3093669D01*
X1853742Y3094482D01*
X1857248Y3095955D01*
X1860296Y3098088D01*
X1862886Y3100882D01*
X1865020Y3104489D01*
X1866849Y3108807D01*
X1868220Y3114040D01*
X1869287Y3120085D01*
X1870049Y3127044D01*
X1870456Y3134969D01*
X1870608Y3143910D01*
X1870456Y3152851D01*
X1870049Y3160776D01*
X1869287Y3167786D01*
X1868220Y3173831D01*
X1866849Y3179013D01*
X1865020Y3183382D01*
X1862886Y3186938D01*
X1860296Y3189782D01*
X1857248Y3191865D01*
X1853742Y3193338D01*
X1849780Y3194202D01*
G37*
G36*
X1921103Y3194456D02*
G01*
X1916836Y3193948D01*
X1912162Y3192576D01*
X1907641Y3190544D01*
X1903831Y3188055D01*
X1901342Y3185871D01*
X1899412Y3183585D01*
X1897989Y3180791D01*
X1897024Y3177032D01*
X1896414Y3171901D01*
X1896059Y3164941D01*
X1895856Y3143910D01*
X1896262Y3125673D01*
X1896872Y3118408D01*
X1897786Y3112211D01*
X1899005Y3107131D01*
X1900631Y3102965D01*
X1902714Y3099663D01*
X1905254Y3097174D01*
X1908352Y3095396D01*
X1912010Y3094228D01*
X1916226Y3093567D01*
X1921103Y3093364D01*
X1925980Y3093567D01*
X1930247Y3094228D01*
X1933905Y3095396D01*
X1936953Y3097174D01*
X1939493Y3099663D01*
X1941575Y3102965D01*
X1943252Y3107131D01*
X1944471Y3112211D01*
X1945386Y3118408D01*
X1945944Y3125673D01*
X1946300Y3134156D01*
X1946300Y3153714D01*
X1945944Y3162198D01*
X1945386Y3169462D01*
X1944471Y3175609D01*
X1943252Y3180740D01*
X1941575Y3184906D01*
X1939493Y3188157D01*
X1936953Y3190646D01*
X1933905Y3192475D01*
X1930247Y3193643D01*
X1925980Y3194253D01*
G37*
G36*
X1996948Y3194456D02*
G01*
X1992884Y3193796D01*
X1988362Y3192068D01*
X1983841Y3189427D01*
X1979930Y3186226D01*
X1977339Y3183483D01*
X1975408Y3180791D01*
X1973935Y3177794D01*
X1972919Y3174034D01*
X1972259Y3169158D01*
X1971852Y3162808D01*
X1971649Y3143910D01*
X1971802Y3134969D01*
X1972208Y3127044D01*
X1972970Y3120085D01*
X1974037Y3114040D01*
X1975408Y3108807D01*
X1977186Y3104489D01*
X1979371Y3100882D01*
X1981962Y3098088D01*
X1985010Y3095955D01*
X1988515Y3094482D01*
X1992477Y3093669D01*
X1996948Y3093364D01*
X2001418Y3093669D01*
X2005380Y3094482D01*
X2008835Y3095955D01*
X2011883Y3098088D01*
X2014474Y3100882D01*
X2016658Y3104489D01*
X2018436Y3108807D01*
X2019858Y3114040D01*
X2020874Y3120085D01*
X2021636Y3127044D01*
X2022043Y3134969D01*
X2022195Y3143910D01*
X2022043Y3152851D01*
X2021636Y3160776D01*
X2020874Y3167786D01*
X2019858Y3173831D01*
X2018436Y3179013D01*
X2016658Y3183382D01*
X2014474Y3186938D01*
X2011883Y3189782D01*
X2008835Y3191865D01*
X2005380Y3193338D01*
X2001418Y3194202D01*
G37*
G36*
X1873453Y3069640D02*
G01*
X1842414Y3069183D01*
X1829663Y3068777D01*
X1819300Y3068116D01*
X1811731Y3067354D01*
X1807362Y3066389D01*
X1803704Y3064459D01*
X1802079Y3063240D01*
X1800656Y3061665D01*
X1799386Y3059785D01*
X1798269Y3057448D01*
X1797304Y3054553D01*
X1795729Y3046984D01*
X1794662Y3036417D01*
X1793951Y3022295D01*
X1793595Y3004007D01*
X1793697Y2952648D01*
X1794111Y2904540D01*
X1858264Y2904540D01*
X1858619Y2908808D01*
X1859991Y2913126D01*
X1862378Y2917444D01*
X1867001Y2923590D01*
X1868017Y2926029D01*
X1868830Y2929280D01*
X1869490Y2933395D01*
X1870354Y2944469D01*
X1870608Y2959709D01*
X1870608Y2992323D01*
X1887270Y2992170D01*
X1890826Y2991561D01*
X1894230Y2990342D01*
X1897837Y2988360D01*
X1901850Y2985363D01*
X1906625Y2981198D01*
X1928723Y2959557D01*
X1936750Y2952038D01*
X1942592Y2946958D01*
X1945436Y2945130D01*
X1947773Y2946654D01*
X1947773Y2950768D01*
X1945538Y2956458D01*
X1938324Y2967482D01*
X1936292Y2972257D01*
X1935175Y2977032D01*
X1935022Y2981756D01*
X1935683Y2986278D01*
X1937207Y2990596D01*
X1939493Y2994507D01*
X1942490Y2998012D01*
X1946198Y3000959D01*
X1950567Y3003296D01*
X1955495Y3004820D01*
X1960981Y3005582D01*
X1963521Y3004820D01*
X1967128Y3002737D01*
X1971344Y2999536D01*
X1975612Y2995574D01*
X1979218Y2991459D01*
X1981809Y2987294D01*
X1983384Y2983128D01*
X1983993Y2978861D01*
X1983587Y2974594D01*
X1982216Y2970326D01*
X1979828Y2966008D01*
X1975256Y2959963D01*
X1974240Y2957474D01*
X1973427Y2954223D01*
X1972767Y2950108D01*
X1971903Y2939084D01*
X1971649Y2923794D01*
X1971649Y2891231D01*
X1954987Y2891383D01*
X1951431Y2891942D01*
X1948027Y2893161D01*
X1944420Y2895142D01*
X1940356Y2898140D01*
X1929841Y2907792D01*
X1913534Y2923946D01*
X1905507Y2931464D01*
X1899666Y2936544D01*
X1896770Y2938373D01*
X1894433Y2936849D01*
X1894484Y2932734D01*
X1896719Y2927045D01*
X1904136Y2915716D01*
X1906219Y2910840D01*
X1907286Y2906014D01*
X1907387Y2901340D01*
X1906676Y2896870D01*
X1905152Y2892755D01*
X1902968Y2889046D01*
X1900174Y2885795D01*
X1896872Y2883154D01*
X1893163Y2881122D01*
X1889099Y2879852D01*
X1884832Y2879394D01*
X1880362Y2879852D01*
X1875840Y2881325D01*
X1871370Y2883865D01*
X1866950Y2887573D01*
X1863242Y2891790D01*
X1860550Y2896057D01*
X1858873Y2900273D01*
X1858264Y2904540D01*
X1794111Y2904540D01*
X1794662Y2868726D01*
X1795576Y2843682D01*
X1796237Y2835605D01*
X1797050Y2829864D01*
X1798066Y2825902D01*
X1799285Y2823260D01*
X1800809Y2821381D01*
X1801875Y2820720D01*
X1803704Y2820060D01*
X1809546Y2818892D01*
X1817878Y2817876D01*
X1828495Y2816961D01*
X1855114Y2815590D01*
X1886864Y2814777D01*
X1929790Y2814523D01*
X1963674Y2814929D01*
X1994357Y2815894D01*
X2019300Y2817418D01*
X2028850Y2818384D01*
X2035962Y2819501D01*
X2040331Y2820720D01*
X2041448Y2821432D01*
X2042109Y2822498D01*
X2042769Y2824327D01*
X2043938Y2830169D01*
X2044954Y2838500D01*
X2045868Y2849118D01*
X2047239Y2875737D01*
X2048103Y2907436D01*
X2048357Y2950413D01*
X2047951Y2984296D01*
X2046986Y3015030D01*
X2045462Y3039973D01*
X2044496Y3049473D01*
X2043379Y3056636D01*
X2042109Y3061004D01*
X2041448Y3062122D01*
X2040432Y3062681D01*
X2035708Y3063748D01*
X2027834Y3064764D01*
X2004212Y3066542D01*
X1972818Y3067964D01*
X1936953Y3069031D01*
X1899970Y3069539D01*
G37*
G36*
X1718970Y3043986D02*
G01*
X1712264Y3043834D01*
X1705660Y3043428D01*
X1699361Y3042666D01*
X1693468Y3041650D01*
X1688084Y3040329D01*
X1683461Y3038703D01*
X1679600Y3036773D01*
X1676704Y3034588D01*
X1673504Y3030677D01*
X1670862Y3026156D01*
X1669135Y3021634D01*
X1668475Y3017570D01*
X1668729Y3013100D01*
X1669592Y3009138D01*
X1671066Y3005632D01*
X1673148Y3002635D01*
X1675993Y3000044D01*
X1679549Y2997860D01*
X1683918Y2996082D01*
X1689100Y2994660D01*
X1695145Y2993593D01*
X1702104Y2992882D01*
X1710029Y2992424D01*
X1737817Y2992526D01*
X1744218Y2992882D01*
X1749094Y2993542D01*
X1752854Y2994558D01*
X1755851Y2996031D01*
X1758543Y2998012D01*
X1761236Y3000552D01*
X1764690Y3004616D01*
X1767179Y3008833D01*
X1768652Y3013202D01*
X1769160Y3017570D01*
X1768652Y3021939D01*
X1767179Y3026308D01*
X1764690Y3030524D01*
X1761236Y3034588D01*
X1758340Y3036773D01*
X1754530Y3038703D01*
X1749856Y3040329D01*
X1744522Y3041650D01*
X1738579Y3042666D01*
X1732280Y3043428D01*
X1725726Y3043834D01*
G37*
G36*
X2123287Y3043986D02*
G01*
X2116531Y3043834D01*
X2109978Y3043428D01*
X2103628Y3042666D01*
X2097735Y3041650D01*
X2092401Y3040329D01*
X2087727Y3038703D01*
X2083866Y3036773D01*
X2081022Y3034588D01*
X2077821Y3030677D01*
X2075180Y3026156D01*
X2073402Y3021634D01*
X2072741Y3017570D01*
X2072995Y3013100D01*
X2073859Y3009138D01*
X2075332Y3005632D01*
X2077415Y3002635D01*
X2080260Y3000044D01*
X2083816Y2997860D01*
X2088184Y2996082D01*
X2093366Y2994660D01*
X2099411Y2993593D01*
X2106422Y2992882D01*
X2114346Y2992424D01*
X2142134Y2992526D01*
X2148484Y2992882D01*
X2153361Y2993542D01*
X2157120Y2994558D01*
X2160117Y2996031D01*
X2162810Y2998012D01*
X2165553Y3000552D01*
X2169007Y3004616D01*
X2171446Y3008833D01*
X2172919Y3013202D01*
X2173427Y3017570D01*
X2172919Y3021939D01*
X2171446Y3026308D01*
X2169007Y3030524D01*
X2165553Y3034588D01*
X2162657Y3036773D01*
X2158796Y3038703D01*
X2154123Y3040329D01*
X2148789Y3041650D01*
X2142896Y3042666D01*
X2136597Y3043428D01*
X2129993Y3043834D01*
G37*
G36*
X1708353Y2968142D02*
G01*
X1696466Y2967634D01*
X1691690Y2967126D01*
X1687677Y2966415D01*
X1684477Y2965551D01*
X1681988Y2964535D01*
X1678228Y2962046D01*
X1675028Y2958896D01*
X1672437Y2955137D01*
X1670557Y2950972D01*
X1669338Y2946552D01*
X1668881Y2941878D01*
X1669237Y2937205D01*
X1670405Y2932582D01*
X1671828Y2929128D01*
X1673555Y2926130D01*
X1675638Y2923590D01*
X1678178Y2921406D01*
X1681276Y2919577D01*
X1684934Y2918155D01*
X1689252Y2917037D01*
X1694332Y2916224D01*
X1700225Y2915666D01*
X1714754Y2915361D01*
X1732127Y2915869D01*
X1739696Y2916478D01*
X1746199Y2917291D01*
X1751787Y2918358D01*
X1756460Y2919780D01*
X1760321Y2921558D01*
X1763420Y2923743D01*
X1765757Y2926334D01*
X1767535Y2929432D01*
X1768652Y2932988D01*
X1769313Y2937103D01*
X1769516Y2941777D01*
X1769313Y2946450D01*
X1768652Y2950565D01*
X1767535Y2954121D01*
X1765757Y2957169D01*
X1763420Y2959760D01*
X1760321Y2961944D01*
X1756460Y2963722D01*
X1751787Y2965145D01*
X1746199Y2966212D01*
X1739696Y2967024D01*
X1732127Y2967634D01*
X1715516Y2968142D01*
G37*
G36*
X2112619Y2968142D02*
G01*
X2100732Y2967634D01*
X2095957Y2967126D01*
X2091994Y2966415D01*
X2088743Y2965551D01*
X2086254Y2964535D01*
X2082495Y2962046D01*
X2079294Y2958896D01*
X2076754Y2955137D01*
X2074824Y2950972D01*
X2073605Y2946552D01*
X2073148Y2941878D01*
X2073503Y2937205D01*
X2074672Y2932582D01*
X2076094Y2929128D01*
X2077821Y2926130D01*
X2079904Y2923590D01*
X2082444Y2921406D01*
X2085543Y2919577D01*
X2089200Y2918155D01*
X2093518Y2917037D01*
X2098598Y2916224D01*
X2104491Y2915666D01*
X2119020Y2915361D01*
X2136394Y2915869D01*
X2143963Y2916478D01*
X2150465Y2917291D01*
X2156053Y2918358D01*
X2160727Y2919780D01*
X2164588Y2921558D01*
X2167686Y2923743D01*
X2170023Y2926334D01*
X2171801Y2929432D01*
X2172919Y2932988D01*
X2173579Y2937103D01*
X2173782Y2941777D01*
X2173579Y2946450D01*
X2172919Y2950565D01*
X2171801Y2954121D01*
X2170023Y2957169D01*
X2167686Y2959760D01*
X2164588Y2961944D01*
X2160727Y2963722D01*
X2156053Y2965145D01*
X2150465Y2966212D01*
X2143963Y2967024D01*
X2136394Y2967634D01*
X2119782Y2968142D01*
G37*
G36*
X1718970Y2891231D02*
G01*
X1700123Y2891028D01*
X1693773Y2890621D01*
X1688896Y2889961D01*
X1685137Y2888945D01*
X1682140Y2887472D01*
X1679448Y2885490D01*
X1676704Y2882950D01*
X1673504Y2879039D01*
X1670862Y2874518D01*
X1669135Y2869996D01*
X1668475Y2865932D01*
X1668729Y2861462D01*
X1669592Y2857500D01*
X1671066Y2853994D01*
X1673148Y2850997D01*
X1675993Y2848406D01*
X1679549Y2846222D01*
X1683918Y2844444D01*
X1689100Y2843022D01*
X1695145Y2841955D01*
X1702104Y2841244D01*
X1710029Y2840786D01*
X1727911Y2840786D01*
X1735836Y2841244D01*
X1742846Y2841955D01*
X1748891Y2843022D01*
X1754073Y2844444D01*
X1758442Y2846222D01*
X1761998Y2848406D01*
X1764842Y2850997D01*
X1766925Y2853994D01*
X1768398Y2857500D01*
X1769262Y2861462D01*
X1769516Y2865932D01*
X1769262Y2870403D01*
X1768398Y2874365D01*
X1766925Y2877870D01*
X1764842Y2880918D01*
X1761998Y2883509D01*
X1758442Y2885643D01*
X1754073Y2887472D01*
X1748891Y2888843D01*
X1742846Y2889910D01*
X1735836Y2890672D01*
X1727911Y2891078D01*
G37*
G36*
X2123287Y2891231D02*
G01*
X2104390Y2891028D01*
X2098040Y2890621D01*
X2093163Y2889961D01*
X2089404Y2888945D01*
X2086406Y2887472D01*
X2083714Y2885490D01*
X2081022Y2882950D01*
X2077821Y2879039D01*
X2075180Y2874518D01*
X2073402Y2869996D01*
X2072741Y2865932D01*
X2072995Y2861462D01*
X2073859Y2857500D01*
X2075332Y2853994D01*
X2077415Y2850997D01*
X2080260Y2848406D01*
X2083816Y2846222D01*
X2088184Y2844444D01*
X2093366Y2843022D01*
X2099411Y2841955D01*
X2106422Y2841244D01*
X2114346Y2840786D01*
X2132228Y2840786D01*
X2140153Y2841244D01*
X2147112Y2841955D01*
X2153158Y2843022D01*
X2158339Y2844444D01*
X2162708Y2846222D01*
X2166264Y2848406D01*
X2169109Y2850997D01*
X2171192Y2853994D01*
X2172665Y2857500D01*
X2173528Y2861462D01*
X2173782Y2865932D01*
X2173528Y2870403D01*
X2172665Y2874365D01*
X2171192Y2877870D01*
X2169109Y2880918D01*
X2166264Y2883509D01*
X2162708Y2885643D01*
X2158339Y2887472D01*
X2153158Y2888843D01*
X2147112Y2889910D01*
X2140153Y2890672D01*
X2132228Y2891078D01*
G37*
G36*
X1845310Y2790139D02*
G01*
X1841296Y2789478D01*
X1836724Y2787700D01*
X1832203Y2785059D01*
X1828342Y2781858D01*
X1825752Y2779115D01*
X1823770Y2776423D01*
X1822348Y2773426D01*
X1821281Y2769666D01*
X1820621Y2764790D01*
X1820265Y2758440D01*
X1820062Y2739593D01*
X1820164Y2730652D01*
X1820621Y2722727D01*
X1821332Y2715717D01*
X1822399Y2709672D01*
X1823821Y2704490D01*
X1825599Y2700121D01*
X1827784Y2696565D01*
X1830374Y2693720D01*
X1833422Y2691638D01*
X1836877Y2690164D01*
X1840839Y2689301D01*
X1845310Y2689047D01*
X1849780Y2689301D01*
X1853742Y2690164D01*
X1857248Y2691638D01*
X1860296Y2693720D01*
X1862886Y2696565D01*
X1865020Y2700121D01*
X1866849Y2704490D01*
X1868220Y2709672D01*
X1869287Y2715717D01*
X1870049Y2722727D01*
X1870456Y2730652D01*
X1870608Y2739593D01*
X1870456Y2748534D01*
X1870049Y2756458D01*
X1869287Y2763418D01*
X1868220Y2769463D01*
X1866849Y2774645D01*
X1865020Y2779014D01*
X1862886Y2782620D01*
X1860296Y2785414D01*
X1857248Y2787548D01*
X1853742Y2789021D01*
X1849780Y2789834D01*
G37*
G36*
X1921103Y2790139D02*
G01*
X1916836Y2789631D01*
X1912162Y2788208D01*
X1907641Y2786176D01*
X1903831Y2783687D01*
X1901342Y2781503D01*
X1899412Y2779217D01*
X1897989Y2776423D01*
X1897024Y2772664D01*
X1896414Y2767533D01*
X1896059Y2760573D01*
X1895856Y2739593D01*
X1896262Y2721305D01*
X1896872Y2714040D01*
X1897786Y2707894D01*
X1899005Y2702763D01*
X1900631Y2698597D01*
X1902714Y2695346D01*
X1905254Y2692857D01*
X1908352Y2691028D01*
X1912010Y2689860D01*
X1916226Y2689250D01*
X1921103Y2689047D01*
X1925980Y2689250D01*
X1930247Y2689860D01*
X1933905Y2691028D01*
X1936953Y2692857D01*
X1939493Y2695346D01*
X1941575Y2698597D01*
X1943252Y2702763D01*
X1944471Y2707894D01*
X1945386Y2714040D01*
X1945944Y2721305D01*
X1946300Y2729788D01*
X1946300Y2749346D01*
X1945944Y2757830D01*
X1945386Y2765094D01*
X1944471Y2771241D01*
X1943252Y2776372D01*
X1941575Y2780538D01*
X1939493Y2783840D01*
X1936953Y2786329D01*
X1933905Y2788107D01*
X1930247Y2789275D01*
X1925980Y2789936D01*
G37*
G36*
X1996948Y2790139D02*
G01*
X1992884Y2789478D01*
X1988362Y2787700D01*
X1983841Y2785059D01*
X1979930Y2781858D01*
X1977339Y2779115D01*
X1975408Y2776423D01*
X1973935Y2773426D01*
X1972919Y2769666D01*
X1972259Y2764790D01*
X1971852Y2758440D01*
X1971649Y2739593D01*
X1971802Y2730652D01*
X1972208Y2722727D01*
X1972970Y2715717D01*
X1974037Y2709672D01*
X1975408Y2704490D01*
X1977186Y2700121D01*
X1979371Y2696565D01*
X1981962Y2693720D01*
X1985010Y2691638D01*
X1988515Y2690164D01*
X1992477Y2689301D01*
X1996948Y2689047D01*
X2001418Y2689301D01*
X2005380Y2690164D01*
X2008835Y2691638D01*
X2011883Y2693720D01*
X2014474Y2696565D01*
X2016658Y2700121D01*
X2018436Y2704490D01*
X2019858Y2709672D01*
X2020874Y2715717D01*
X2021636Y2722727D01*
X2022043Y2730652D01*
X2022195Y2739593D01*
X2022043Y2748534D01*
X2021636Y2756458D01*
X2020874Y2763418D01*
X2019858Y2769463D01*
X2018436Y2774645D01*
X2016658Y2779014D01*
X2014474Y2782620D01*
X2011883Y2785414D01*
X2008835Y2787548D01*
X2005380Y2789021D01*
X2001418Y2789834D01*
G37*
G36*
X1969007Y2326944D02*
G01*
X1969007Y2318004D01*
X2003856Y2318004D01*
X2010613Y2317699D01*
X2016302Y2316734D01*
X2021179Y2314803D01*
X2025446Y2311755D01*
X2029358Y2307437D01*
X2033066Y2301595D01*
X2036825Y2294077D01*
X2040889Y2284679D01*
X2054504Y2251354D01*
X2066848Y2278024D01*
X2071471Y2288895D01*
X2075027Y2298801D01*
X2077212Y2306624D01*
X2077516Y2311298D01*
X2079193Y2313940D01*
X2084832Y2316022D01*
X2093569Y2317496D01*
X2104593Y2318004D01*
X2133244Y2318004D01*
X2133244Y2255621D01*
X2137054Y2255621D01*
X2137257Y2261209D01*
X2137918Y2266543D01*
X2139035Y2271725D01*
X2140508Y2276652D01*
X2142388Y2281377D01*
X2144674Y2285796D01*
X2147265Y2290013D01*
X2150262Y2293975D01*
X2153513Y2297684D01*
X2157120Y2301087D01*
X2161032Y2304288D01*
X2165197Y2307132D01*
X2169617Y2309723D01*
X2174290Y2312009D01*
X2179167Y2313990D01*
X2184298Y2315667D01*
X2189581Y2316988D01*
X2195068Y2318004D01*
X2200757Y2318715D01*
X2206548Y2319070D01*
X2212492Y2319070D01*
X2218537Y2318715D01*
X2224633Y2318004D01*
X2230882Y2316886D01*
X2237181Y2315464D01*
X2243531Y2313584D01*
X2249881Y2311349D01*
X2256282Y2308707D01*
X2262530Y2305812D01*
X2267204Y2303322D01*
X2270302Y2301036D01*
X2271928Y2298700D01*
X2272182Y2296210D01*
X2271115Y2293315D01*
X2268778Y2289810D01*
X2265324Y2285542D01*
X2261565Y2281428D01*
X2258314Y2278532D01*
X2255215Y2276856D01*
X2252065Y2276398D01*
X2248509Y2277211D01*
X2244394Y2279243D01*
X2239314Y2282596D01*
X2227681Y2290927D01*
X2222296Y2293772D01*
X2217013Y2295753D01*
X2211832Y2296922D01*
X2206853Y2297328D01*
X2202078Y2296922D01*
X2197557Y2295804D01*
X2193340Y2293924D01*
X2189429Y2291384D01*
X2185924Y2288133D01*
X2182825Y2284222D01*
X2180234Y2279650D01*
X2178100Y2274519D01*
X2176526Y2268778D01*
X2176230Y2266848D01*
X2279904Y2266848D01*
X2280158Y2272944D01*
X2281478Y2284679D01*
X2282545Y2290216D01*
X2283866Y2295398D01*
X2285390Y2300173D01*
X2287219Y2304542D01*
X2289302Y2308402D01*
X2291588Y2311704D01*
X2294178Y2314397D01*
X2296922Y2316378D01*
X2299970Y2317597D01*
X2303221Y2318004D01*
X2311755Y2317699D01*
X2315006Y2317089D01*
X2317648Y2315921D01*
X2319680Y2314194D01*
X2321255Y2311654D01*
X2322423Y2308199D01*
X2323236Y2303678D01*
X2323744Y2297988D01*
X2324201Y2282393D01*
X2324404Y2262784D01*
X2324912Y2254046D01*
X2325827Y2246071D01*
X2326995Y2238857D01*
X2328519Y2232456D01*
X2330348Y2226868D01*
X2332482Y2222093D01*
X2334869Y2218232D01*
X2337511Y2215184D01*
X2340457Y2213051D01*
X2343556Y2211832D01*
X2346960Y2211527D01*
X2350516Y2212187D01*
X2354326Y2213813D01*
X2358288Y2216353D01*
X2362403Y2219960D01*
X2365654Y2223668D01*
X2368245Y2227986D01*
X2370277Y2233066D01*
X2371750Y2239060D01*
X2372715Y2246122D01*
X2373122Y2254402D01*
X2373071Y2264003D01*
X2371852Y2288641D01*
X2371598Y2298954D01*
X2372004Y2306523D01*
X2373172Y2311806D01*
X2375306Y2315159D01*
X2378608Y2317038D01*
X2383129Y2317851D01*
X2389124Y2318004D01*
X2391613Y2317597D01*
X2393950Y2316327D01*
X2396083Y2314244D01*
X2398064Y2311501D01*
X2399842Y2308098D01*
X2401417Y2304084D01*
X2402840Y2299563D01*
X2404059Y2294636D01*
X2405938Y2283561D01*
X2407005Y2271420D01*
X2407208Y2258720D01*
X2407056Y2252319D01*
X2405989Y2239670D01*
X2404059Y2227783D01*
X2402738Y2222246D01*
X2401163Y2217064D01*
X2399385Y2212340D01*
X2397353Y2208072D01*
X2395067Y2204364D01*
X2392883Y2201976D01*
X2389936Y2199894D01*
X2386228Y2198116D01*
X2381910Y2196592D01*
X2377033Y2195372D01*
X2371750Y2194407D01*
X2366010Y2193696D01*
X2353868Y2193086D01*
X2347518Y2193188D01*
X2334869Y2194204D01*
X2328722Y2195068D01*
X2322728Y2196185D01*
X2317089Y2197557D01*
X2311806Y2199132D01*
X2306980Y2201011D01*
X2302713Y2203094D01*
X2299055Y2205431D01*
X2296160Y2207971D01*
X2293162Y2211578D01*
X2290521Y2215692D01*
X2288133Y2220315D01*
X2286101Y2225344D01*
X2284323Y2230729D01*
X2282850Y2236368D01*
X2281682Y2242261D01*
X2280818Y2248306D01*
X2280259Y2254453D01*
X2279904Y2266848D01*
X2176230Y2266848D01*
X2175560Y2262479D01*
X2175256Y2255621D01*
X2175560Y2248814D01*
X2176526Y2242515D01*
X2178100Y2236774D01*
X2180183Y2231644D01*
X2182825Y2227072D01*
X2185873Y2223160D01*
X2189378Y2219909D01*
X2193290Y2217318D01*
X2197455Y2215438D01*
X2201976Y2214270D01*
X2206752Y2213864D01*
X2211679Y2214168D01*
X2216810Y2215337D01*
X2222042Y2217267D01*
X2227376Y2220061D01*
X2232761Y2223719D01*
X2238349Y2227834D01*
X2243124Y2230831D01*
X2247290Y2232812D01*
X2250998Y2233777D01*
X2254351Y2233777D01*
X2257552Y2232761D01*
X2260752Y2230780D01*
X2264105Y2227884D01*
X2266696Y2224836D01*
X2268220Y2221788D01*
X2268728Y2218740D01*
X2268270Y2215743D01*
X2266899Y2212848D01*
X2264714Y2210003D01*
X2261666Y2207361D01*
X2257856Y2204821D01*
X2253284Y2202434D01*
X2248103Y2200300D01*
X2242261Y2198420D01*
X2235809Y2196795D01*
X2228900Y2195474D01*
X2221433Y2194458D01*
X2213610Y2193798D01*
X2205329Y2193544D01*
X2199132Y2193645D01*
X2193137Y2194102D01*
X2187397Y2194966D01*
X2181961Y2196084D01*
X2176780Y2197608D01*
X2171903Y2199436D01*
X2167331Y2201570D01*
X2163013Y2204008D01*
X2159000Y2206802D01*
X2155291Y2209850D01*
X2151938Y2213203D01*
X2148890Y2216861D01*
X2146198Y2220772D01*
X2143810Y2224989D01*
X2141778Y2229459D01*
X2140102Y2234184D01*
X2138781Y2239162D01*
X2137816Y2244394D01*
X2137257Y2249881D01*
X2137054Y2255621D01*
X2133244Y2255621D01*
X2133244Y2193239D01*
X2102408Y2193340D01*
X2096820Y2193899D01*
X2092807Y2195220D01*
X2090166Y2197506D01*
X2088692Y2201062D01*
X2088134Y2206193D01*
X2088438Y2213152D01*
X2092299Y2251151D01*
X2070912Y2213914D01*
X2066645Y2207158D01*
X2062835Y2201926D01*
X2059381Y2198166D01*
X2056130Y2195931D01*
X2053031Y2195169D01*
X2049881Y2195931D01*
X2046681Y2198166D01*
X2043226Y2201926D01*
X2039416Y2207158D01*
X2035149Y2213914D01*
X2013762Y2251151D01*
X2017572Y2213457D01*
X2017826Y2206650D01*
X2017420Y2201570D01*
X2016150Y2197912D01*
X2013915Y2195474D01*
X2010613Y2194052D01*
X2006041Y2193391D01*
X1995678Y2193290D01*
X1991969Y2193594D01*
X1988921Y2194356D01*
X1986483Y2195830D01*
X1984552Y2198116D01*
X1983079Y2201519D01*
X1982012Y2206142D01*
X1981250Y2212289D01*
X1980793Y2220061D01*
X1980488Y2241550D01*
X1980438Y2318004D01*
X1969007Y2318004D01*
X1969007Y2184298D01*
X2427325Y2184298D01*
X2427325Y2326944D01*
G37*
G36*
X1514551Y2324150D02*
G01*
X1513179Y2324049D01*
X1511808Y2323388D01*
X1510436Y2322169D01*
X1509115Y2320290D01*
X1507896Y2317851D01*
X1506677Y2314752D01*
X1504543Y2306624D01*
X1502816Y2295906D01*
X1501546Y2282444D01*
X1499209Y2246884D01*
X1462938Y2288438D01*
X1452676Y2299462D01*
X1443837Y2307996D01*
X1439875Y2311298D01*
X1436217Y2313940D01*
X1432915Y2315921D01*
X1429867Y2317292D01*
X1427124Y2318004D01*
X1424635Y2318004D01*
X1422400Y2317394D01*
X1420368Y2316073D01*
X1418640Y2314092D01*
X1417066Y2311400D01*
X1415745Y2308047D01*
X1414627Y2303983D01*
X1412900Y2293721D01*
X1411884Y2280666D01*
X1411376Y2264714D01*
X1411376Y2243074D01*
X1411833Y2223160D01*
X1412240Y2215489D01*
X1412900Y2209241D01*
X1413713Y2204212D01*
X1414830Y2200351D01*
X1416202Y2197404D01*
X1417828Y2195372D01*
X1419860Y2194102D01*
X1422196Y2193391D01*
X1424889Y2193239D01*
X1428699Y2193544D01*
X1431645Y2194661D01*
X1433830Y2196693D01*
X1435354Y2199995D01*
X1436217Y2204618D01*
X1436471Y2210866D01*
X1436268Y2218842D01*
X1434998Y2236774D01*
X1434795Y2243632D01*
X1434896Y2249424D01*
X1435354Y2254148D01*
X1436166Y2257856D01*
X1437386Y2260498D01*
X1438960Y2262073D01*
X1441043Y2262581D01*
X1443532Y2262073D01*
X1446479Y2260498D01*
X1449984Y2257856D01*
X1453946Y2254148D01*
X1458468Y2249424D01*
X1469136Y2236774D01*
X1480515Y2222296D01*
X1489913Y2211120D01*
X1498142Y2202535D01*
X1501800Y2199182D01*
X1505204Y2196541D01*
X1508353Y2194509D01*
X1511249Y2193188D01*
X1513890Y2192528D01*
X1516329Y2192528D01*
X1518513Y2193188D01*
X1520444Y2194560D01*
X1522222Y2196592D01*
X1523746Y2199335D01*
X1525117Y2202738D01*
X1526235Y2206853D01*
X1527251Y2211679D01*
X1528673Y2223465D01*
X1529486Y2238095D01*
X1529740Y2255621D01*
X1529384Y2270607D01*
X1528419Y2283917D01*
X1526895Y2295499D01*
X1524965Y2305253D01*
X1522628Y2313076D01*
X1521409Y2316226D01*
X1520088Y2318918D01*
X1518716Y2321052D01*
X1517345Y2322626D01*
X1515973Y2323642D01*
G37*
G36*
X1705457Y2318004D02*
G01*
X1705457Y2245410D01*
X1732178Y2245410D01*
X1732178Y2255621D01*
X1732432Y2262428D01*
X1733143Y2268778D01*
X1734261Y2274671D01*
X1735785Y2280107D01*
X1737715Y2285034D01*
X1739950Y2289505D01*
X1742541Y2293416D01*
X1745386Y2296769D01*
X1748536Y2299614D01*
X1751888Y2301849D01*
X1755444Y2303526D01*
X1759153Y2304592D01*
X1763014Y2305050D01*
X1767027Y2304846D01*
X1771091Y2304034D01*
X1775206Y2302510D01*
X1779371Y2300325D01*
X1783537Y2297430D01*
X1787702Y2293823D01*
X1791766Y2289505D01*
X1795322Y2284780D01*
X1798167Y2279904D01*
X1800402Y2274824D01*
X1801977Y2269642D01*
X1802892Y2264410D01*
X1803247Y2259126D01*
X1803044Y2253894D01*
X1802231Y2248763D01*
X1800910Y2243734D01*
X1799082Y2238857D01*
X1796796Y2234234D01*
X1794002Y2229916D01*
X1790750Y2225903D01*
X1787093Y2222246D01*
X1783029Y2219045D01*
X1778558Y2216302D01*
X1773783Y2214067D01*
X1768602Y2212390D01*
X1763166Y2211374D01*
X1757375Y2211019D01*
X1746808Y2211273D01*
X1742846Y2211730D01*
X1739696Y2212695D01*
X1737207Y2214270D01*
X1735328Y2216658D01*
X1734007Y2219909D01*
X1733143Y2224278D01*
X1732584Y2229866D01*
X1732178Y2245410D01*
X1705457Y2245410D01*
X1705457Y2193239D01*
X1752193Y2193493D01*
X1760118Y2193848D01*
X1767484Y2194458D01*
X1774240Y2195322D01*
X1780489Y2196439D01*
X1786178Y2197811D01*
X1791360Y2199538D01*
X1796034Y2201570D01*
X1800199Y2203907D01*
X1803958Y2206599D01*
X1807260Y2209647D01*
X1810156Y2213051D01*
X1812594Y2216861D01*
X1814677Y2221077D01*
X1816404Y2225700D01*
X1817725Y2230780D01*
X1818792Y2236266D01*
X1819503Y2242210D01*
X1819910Y2248662D01*
X1819910Y2262530D01*
X1819503Y2268982D01*
X1818792Y2274925D01*
X1817725Y2280462D01*
X1816404Y2285492D01*
X1814677Y2290114D01*
X1812594Y2294331D01*
X1810156Y2298141D01*
X1807260Y2301595D01*
X1803958Y2304643D01*
X1800199Y2307336D01*
X1796034Y2309672D01*
X1791360Y2311704D01*
X1786178Y2313381D01*
X1780489Y2314803D01*
X1774240Y2315921D01*
X1767484Y2316784D01*
X1760118Y2317394D01*
X1743659Y2317902D01*
G37*
G36*
X1846783Y2318004D02*
G01*
X1846783Y2193239D01*
X1911299Y2193391D01*
X1921510Y2193899D01*
X1930603Y2194712D01*
X1938426Y2195779D01*
X1944827Y2197049D01*
X1949653Y2198573D01*
X1952650Y2200300D01*
X1953717Y2202129D01*
X1952955Y2203907D01*
X1950720Y2205583D01*
X1947164Y2207107D01*
X1942490Y2208428D01*
X1936851Y2209495D01*
X1930349Y2210358D01*
X1923186Y2210866D01*
X1903628Y2211120D01*
X1894535Y2211578D01*
X1887778Y2212594D01*
X1883054Y2214372D01*
X1880006Y2217115D01*
X1878279Y2221077D01*
X1877517Y2226411D01*
X1877314Y2233320D01*
X1877517Y2239873D01*
X1878228Y2245055D01*
X1879600Y2248966D01*
X1881886Y2251811D01*
X1885289Y2253691D01*
X1890014Y2254859D01*
X1896160Y2255469D01*
X1904085Y2255621D01*
X1914448Y2256332D01*
X1922932Y2258212D01*
X1928672Y2261057D01*
X1930806Y2264511D01*
X1928672Y2267966D01*
X1922932Y2270810D01*
X1914448Y2272741D01*
X1891995Y2274214D01*
X1883664Y2276602D01*
X1878888Y2280767D01*
X1877314Y2286812D01*
X1877771Y2290267D01*
X1879244Y2293162D01*
X1881784Y2295499D01*
X1885594Y2297277D01*
X1890775Y2298598D01*
X1897380Y2299512D01*
X1905609Y2300020D01*
X1923186Y2300376D01*
X1930349Y2300884D01*
X1936851Y2301697D01*
X1942490Y2302814D01*
X1947164Y2304135D01*
X1950720Y2305608D01*
X1952955Y2307285D01*
X1953717Y2309114D01*
X1952650Y2310942D01*
X1949653Y2312619D01*
X1944827Y2314143D01*
X1938426Y2315464D01*
X1930603Y2316530D01*
X1921510Y2317343D01*
X1911299Y2317851D01*
G37*
G36*
X1617980Y2314905D02*
G01*
X1612239Y2314498D01*
X1606448Y2313635D01*
X1600504Y2312263D01*
X1594510Y2310434D01*
X1588465Y2308098D01*
X1582420Y2305253D01*
X1577949Y2302764D01*
X1573834Y2300020D01*
X1570075Y2297074D01*
X1566722Y2293924D01*
X1563776Y2290572D01*
X1561134Y2287066D01*
X1558848Y2283409D01*
X1556918Y2279599D01*
X1555343Y2275687D01*
X1554073Y2271725D01*
X1553159Y2267661D01*
X1552549Y2263546D01*
X1552295Y2259380D01*
X1552340Y2255621D01*
X1579422Y2255621D01*
X1579676Y2261768D01*
X1580489Y2267559D01*
X1581810Y2272944D01*
X1583639Y2277922D01*
X1585823Y2282444D01*
X1588465Y2286508D01*
X1591411Y2290165D01*
X1594662Y2293264D01*
X1598168Y2295906D01*
X1601927Y2297988D01*
X1605889Y2299563D01*
X1610004Y2300579D01*
X1614220Y2300986D01*
X1618538Y2300782D01*
X1622856Y2300020D01*
X1627225Y2298598D01*
X1631492Y2296515D01*
X1635709Y2293772D01*
X1639824Y2290318D01*
X1643786Y2286152D01*
X1647088Y2281783D01*
X1649780Y2277211D01*
X1651914Y2272436D01*
X1653438Y2267508D01*
X1654403Y2262530D01*
X1654860Y2257501D01*
X1654759Y2252472D01*
X1654149Y2247493D01*
X1653082Y2242667D01*
X1651507Y2237994D01*
X1649526Y2233523D01*
X1647139Y2229358D01*
X1644294Y2225446D01*
X1641093Y2221941D01*
X1637538Y2218791D01*
X1633575Y2216150D01*
X1629359Y2213965D01*
X1624787Y2212390D01*
X1619910Y2211374D01*
X1614779Y2211019D01*
X1609344Y2211374D01*
X1604314Y2212390D01*
X1599742Y2214016D01*
X1595577Y2216302D01*
X1591868Y2219147D01*
X1588617Y2222652D01*
X1585823Y2226767D01*
X1583537Y2231440D01*
X1581759Y2236673D01*
X1580438Y2242464D01*
X1579676Y2248763D01*
X1579422Y2255621D01*
X1552340Y2255621D01*
X1552651Y2250948D01*
X1554226Y2242616D01*
X1556969Y2234488D01*
X1558747Y2230526D01*
X1563116Y2222957D01*
X1565706Y2219350D01*
X1568551Y2215896D01*
X1571599Y2212644D01*
X1578457Y2206701D01*
X1582267Y2204059D01*
X1586280Y2201672D01*
X1590497Y2199538D01*
X1594916Y2197658D01*
X1599539Y2196134D01*
X1604365Y2194864D01*
X1609394Y2193950D01*
X1614627Y2193391D01*
X1620012Y2193239D01*
X1625295Y2193594D01*
X1630629Y2194661D01*
X1635861Y2196388D01*
X1641043Y2198776D01*
X1646123Y2201672D01*
X1650949Y2205075D01*
X1655572Y2208936D01*
X1659940Y2213203D01*
X1663954Y2217775D01*
X1667560Y2222703D01*
X1670761Y2227884D01*
X1673504Y2233218D01*
X1675688Y2238756D01*
X1677314Y2244344D01*
X1678381Y2249982D01*
X1678686Y2255621D01*
X1678482Y2261717D01*
X1677720Y2267508D01*
X1676552Y2273046D01*
X1674926Y2278278D01*
X1672894Y2283206D01*
X1670507Y2287828D01*
X1667713Y2292096D01*
X1664563Y2296058D01*
X1661058Y2299665D01*
X1657248Y2302967D01*
X1653133Y2305812D01*
X1648764Y2308352D01*
X1644142Y2310485D01*
X1639316Y2312212D01*
X1634236Y2313533D01*
X1629003Y2314397D01*
X1623568Y2314905D01*
G37*
D10*
X1648205Y6772910D02*
G01*
X1651000Y6767576D01*
X1656334Y6761987D01*
X1661921Y6759447D01*
X1672844Y6759447D01*
X1678178Y6761987D01*
X1683765Y6767576D01*
X1686305Y6772910D01*
X1689100Y6781292D01*
X1689100Y6794754D01*
X1686305Y6802881D01*
X1683765Y6808470D01*
X1678178Y6813804D01*
X1672844Y6816597D01*
X1661921Y6816597D01*
X1656334Y6813804D01*
X1651000Y6808470D01*
X1648205Y6802881D01*
X1648205Y6794754D01*
X1661921Y6794754D02*
G01*
X1648205Y6794754D01*
X1630171Y6759447D02*
G01*
X1630171Y6816597D01*
X1630171Y6759447D02*
G01*
X1592071Y6816597D01*
X1592071Y6759447D02*
G01*
X1592071Y6816597D01*
X1574037Y6759447D02*
G01*
X1574037Y6816597D01*
X1574037Y6759447D02*
G01*
X1554987Y6759447D01*
X1546860Y6761987D01*
X1541271Y6767576D01*
X1538478Y6772910D01*
X1535937Y6781292D01*
X1535937Y6794754D01*
X1538478Y6802881D01*
X1541271Y6808470D01*
X1546860Y6813804D01*
X1554987Y6816597D01*
X1574037Y6816597D01*
X1978406Y6772910D02*
G01*
X1981200Y6767576D01*
X1986534Y6761987D01*
X1992122Y6759447D01*
X2003043Y6759447D01*
X2008377Y6761987D01*
X2013965Y6767576D01*
X2016506Y6772910D01*
X2019300Y6781292D01*
X2019300Y6794754D01*
X2016506Y6802881D01*
X2013965Y6808470D01*
X2008377Y6813804D01*
X2003043Y6816597D01*
X1992122Y6816597D01*
X1986534Y6813804D01*
X1981200Y6808470D01*
X1978406Y6802881D01*
X1978406Y6794754D01*
X1992122Y6794754D02*
G01*
X1978406Y6794754D01*
X1960372Y6759447D02*
G01*
X1960372Y6816597D01*
X1960372Y6759447D02*
G01*
X1922271Y6816597D01*
X1922271Y6759447D02*
G01*
X1922271Y6816597D01*
X1904237Y6759447D02*
G01*
X1904237Y6816597D01*
X1904237Y6759447D02*
G01*
X1885187Y6759447D01*
X1877060Y6761987D01*
X1871471Y6767576D01*
X1868678Y6772910D01*
X1866137Y6781292D01*
X1866137Y6794754D01*
X1868678Y6802881D01*
X1871471Y6808470D01*
X1877060Y6813804D01*
X1885187Y6816597D01*
X1904237Y6816597D01*
X3121406Y6772910D02*
G01*
X3124200Y6767576D01*
X3129534Y6761987D01*
X3135122Y6759447D01*
X3146043Y6759447D01*
X3151377Y6761987D01*
X3156965Y6767576D01*
X3159506Y6772910D01*
X3162300Y6781292D01*
X3162300Y6794754D01*
X3159506Y6802881D01*
X3156965Y6808470D01*
X3151377Y6813804D01*
X3146043Y6816597D01*
X3135122Y6816597D01*
X3129534Y6813804D01*
X3124200Y6808470D01*
X3121406Y6802881D01*
X3121406Y6794754D01*
X3135122Y6794754D02*
G01*
X3121406Y6794754D01*
X3103372Y6759447D02*
G01*
X3103372Y6816597D01*
X3103372Y6759447D02*
G01*
X3065272Y6816597D01*
X3065272Y6759447D02*
G01*
X3065272Y6816597D01*
X3047238Y6759447D02*
G01*
X3047238Y6816597D01*
X3047238Y6759447D02*
G01*
X3028188Y6759447D01*
X3020059Y6761987D01*
X3014472Y6767576D01*
X3011677Y6772910D01*
X3009138Y6781292D01*
X3009138Y6794754D01*
X3011677Y6802881D01*
X3014472Y6808470D01*
X3020059Y6813804D01*
X3028188Y6816597D01*
X3047238Y6816597D01*
X1376934Y6759447D02*
G01*
X1404365Y6759447D01*
X1406905Y6783831D01*
X1404365Y6781292D01*
X1395984Y6778497D01*
X1387855Y6778497D01*
X1379728Y6781292D01*
X1374139Y6786626D01*
X1371600Y6794754D01*
X1371600Y6800342D01*
X1374139Y6808470D01*
X1379728Y6813804D01*
X1387855Y6816597D01*
X1395984Y6816597D01*
X1404365Y6813804D01*
X1406905Y6811263D01*
X1409700Y6805676D01*
X1353565Y6759447D02*
G01*
X1331721Y6816597D01*
X1309878Y6759447D02*
G01*
X1331721Y6816597D01*
X2227834Y6759447D02*
G01*
X2255265Y6759447D01*
X2257806Y6783831D01*
X2255265Y6781292D01*
X2246884Y6778497D01*
X2238756Y6778497D01*
X2230627Y6781292D01*
X2225040Y6786626D01*
X2222500Y6794754D01*
X2222500Y6800342D01*
X2225040Y6808470D01*
X2230627Y6813804D01*
X2238756Y6816597D01*
X2246884Y6816597D01*
X2255265Y6813804D01*
X2257806Y6811263D01*
X2260600Y6805676D01*
X2204465Y6759447D02*
G01*
X2182622Y6816597D01*
X2160777Y6759447D02*
G01*
X2182622Y6816597D01*
X2495550Y6759447D02*
G01*
X2495550Y6816597D01*
X2514600Y6759447D02*
G01*
X2476500Y6759447D01*
X2458465Y6759447D02*
G01*
X2420111Y6816597D01*
X2420111Y6759447D02*
G01*
X2458465Y6816597D01*
X1155700Y6759447D02*
G01*
X1155700Y6816597D01*
X1155700Y6759447D02*
G01*
X1136650Y6759447D01*
X1128521Y6761987D01*
X1122934Y6767576D01*
X1120139Y6772910D01*
X1117600Y6781292D01*
X1117600Y6794754D01*
X1120139Y6802881D01*
X1122934Y6808470D01*
X1128521Y6813804D01*
X1136650Y6816597D01*
X1155700Y6816597D01*
X1058671Y6772910D02*
G01*
X1061212Y6767576D01*
X1066800Y6761987D01*
X1072134Y6759447D01*
X1083055Y6759447D01*
X1088644Y6761987D01*
X1093978Y6767576D01*
X1096771Y6772910D01*
X1099565Y6781292D01*
X1099565Y6794754D01*
X1096771Y6802881D01*
X1093978Y6808470D01*
X1088644Y6813804D01*
X1083055Y6816597D01*
X1072134Y6816597D01*
X1066800Y6813804D01*
X1061212Y6808470D01*
X1058671Y6802881D01*
X860805Y6772910D02*
G01*
X863600Y6767576D01*
X868934Y6761987D01*
X874521Y6759447D01*
X885444Y6759447D01*
X890778Y6761987D01*
X896365Y6767576D01*
X898905Y6772910D01*
X901700Y6781292D01*
X901700Y6794754D01*
X898905Y6802881D01*
X896365Y6808470D01*
X890778Y6813804D01*
X885444Y6816597D01*
X874521Y6816597D01*
X868934Y6813804D01*
X863600Y6808470D01*
X860805Y6802881D01*
X804671Y6767576D02*
G01*
X810005Y6761987D01*
X818134Y6759447D01*
X829055Y6759447D01*
X837437Y6761987D01*
X842771Y6767576D01*
X842771Y6772910D01*
X839978Y6778497D01*
X837437Y6781292D01*
X831850Y6783831D01*
X815594Y6789420D01*
X810005Y6791960D01*
X807212Y6794754D01*
X804671Y6800342D01*
X804671Y6808470D01*
X810005Y6813804D01*
X818134Y6816597D01*
X829055Y6816597D01*
X837437Y6813804D01*
X842771Y6808470D01*
X2768600Y6759447D02*
G01*
X2768600Y6816597D01*
X2768600Y6759447D02*
G01*
X2743961Y6759447D01*
X2735834Y6761987D01*
X2733040Y6764781D01*
X2730500Y6770370D01*
X2730500Y6775704D01*
X2733040Y6781292D01*
X2735834Y6783831D01*
X2743961Y6786626D01*
X2768600Y6786626D01*
X2749550Y6786626D02*
G01*
X2730500Y6816597D01*
X2712465Y6759447D02*
G01*
X2674111Y6816597D01*
X2674111Y6759447D02*
G01*
X2712465Y6816597D01*
X3403600Y6759447D02*
G01*
X3403600Y6816597D01*
X3403600Y6759447D02*
G01*
X3378961Y6759447D01*
X3370834Y6761987D01*
X3368040Y6764781D01*
X3365500Y6770370D01*
X3365500Y6775704D01*
X3368040Y6781292D01*
X3370834Y6783831D01*
X3378961Y6786626D01*
X3403600Y6786626D01*
X3384550Y6786626D02*
G01*
X3365500Y6816597D01*
X3347465Y6759447D02*
G01*
X3347465Y6816597D01*
X3347465Y6759447D02*
G01*
X3311906Y6759447D01*
X3347465Y6786626D02*
G01*
X3325622Y6786626D01*
X3347465Y6816597D02*
G01*
X3311906Y6816597D01*
X3293872Y6759447D02*
G01*
X3293872Y6816597D01*
X3293872Y6816597D02*
G01*
X3261359Y6816597D01*
X3674109Y6276594D02*
G01*
X3668775Y6273800D01*
X3663188Y6268465D01*
X3660647Y6262878D01*
X3660647Y6251955D01*
X3663188Y6246621D01*
X3668775Y6241034D01*
X3674109Y6238494D01*
X3682491Y6235700D01*
X3695954Y6235700D01*
X3704081Y6238494D01*
X3709670Y6241034D01*
X3715004Y6246621D01*
X3717797Y6251955D01*
X3717797Y6262878D01*
X3715004Y6268465D01*
X3709670Y6273800D01*
X3704081Y6276594D01*
X3695954Y6276594D01*
X3695954Y6262878D02*
G01*
X3695954Y6276594D01*
X3660647Y6294628D02*
G01*
X3717797Y6294628D01*
X3660647Y6294628D02*
G01*
X3717797Y6332728D01*
X3660647Y6332728D02*
G01*
X3717797Y6332728D01*
X3660647Y6350762D02*
G01*
X3717797Y6350762D01*
X3660647Y6350762D02*
G01*
X3660647Y6369812D01*
X3663188Y6377939D01*
X3668775Y6383528D01*
X3674109Y6386321D01*
X3682491Y6388862D01*
X3695954Y6388862D01*
X3704081Y6386321D01*
X3709670Y6383528D01*
X3715004Y6377939D01*
X3717797Y6369812D01*
X3717797Y6350762D01*
X3686809Y4562094D02*
G01*
X3681475Y4559300D01*
X3675888Y4553965D01*
X3673347Y4548378D01*
X3673347Y4537455D01*
X3675888Y4532121D01*
X3681475Y4526534D01*
X3686809Y4523994D01*
X3695191Y4521200D01*
X3708654Y4521200D01*
X3716781Y4523994D01*
X3722370Y4526534D01*
X3727704Y4532121D01*
X3730497Y4537455D01*
X3730497Y4548378D01*
X3727704Y4553965D01*
X3722370Y4559300D01*
X3716781Y4562094D01*
X3708654Y4562094D01*
X3708654Y4548378D02*
G01*
X3708654Y4562094D01*
X3673347Y4580128D02*
G01*
X3730497Y4580128D01*
X3673347Y4580128D02*
G01*
X3730497Y4618228D01*
X3673347Y4618228D02*
G01*
X3730497Y4618228D01*
X3673347Y4636262D02*
G01*
X3730497Y4636262D01*
X3673347Y4636262D02*
G01*
X3673347Y4655312D01*
X3675888Y4663439D01*
X3681475Y4669028D01*
X3686809Y4671821D01*
X3695191Y4674362D01*
X3708654Y4674362D01*
X3716781Y4671821D01*
X3722370Y4669028D01*
X3727704Y4663439D01*
X3730497Y4655312D01*
X3730497Y4636262D01*
X3686809Y4917694D02*
G01*
X3681475Y4914900D01*
X3675888Y4909565D01*
X3673347Y4903978D01*
X3673347Y4893055D01*
X3675888Y4887721D01*
X3681475Y4882134D01*
X3686809Y4879594D01*
X3695191Y4876800D01*
X3708654Y4876800D01*
X3716781Y4879594D01*
X3722370Y4882134D01*
X3727704Y4887721D01*
X3730497Y4893055D01*
X3730497Y4903978D01*
X3727704Y4909565D01*
X3722370Y4914900D01*
X3716781Y4917694D01*
X3708654Y4917694D01*
X3708654Y4903978D02*
G01*
X3708654Y4917694D01*
X3673347Y4935728D02*
G01*
X3730497Y4935728D01*
X3673347Y4935728D02*
G01*
X3730497Y4973828D01*
X3673347Y4973828D02*
G01*
X3730497Y4973828D01*
X3673347Y4991862D02*
G01*
X3730497Y4991862D01*
X3673347Y4991862D02*
G01*
X3673347Y5010912D01*
X3675888Y5019039D01*
X3681475Y5024628D01*
X3686809Y5027421D01*
X3695191Y5029962D01*
X3708654Y5029962D01*
X3716781Y5027421D01*
X3722370Y5024628D01*
X3727704Y5019039D01*
X3730497Y5010912D01*
X3730497Y4991862D01*
X3686809Y2669794D02*
G01*
X3681475Y2667000D01*
X3675888Y2661665D01*
X3673347Y2656078D01*
X3673347Y2645155D01*
X3675888Y2639821D01*
X3681475Y2634234D01*
X3686809Y2631694D01*
X3695191Y2628900D01*
X3708654Y2628900D01*
X3716781Y2631694D01*
X3722370Y2634234D01*
X3727704Y2639821D01*
X3730497Y2645155D01*
X3730497Y2656078D01*
X3727704Y2661665D01*
X3722370Y2667000D01*
X3716781Y2669794D01*
X3708654Y2669794D01*
X3708654Y2656078D02*
G01*
X3708654Y2669794D01*
X3673347Y2687828D02*
G01*
X3730497Y2687828D01*
X3673347Y2687828D02*
G01*
X3730497Y2725928D01*
X3673347Y2725928D02*
G01*
X3730497Y2725928D01*
X3673347Y2743962D02*
G01*
X3730497Y2743962D01*
X3673347Y2743962D02*
G01*
X3673347Y2763012D01*
X3675888Y2771139D01*
X3681475Y2776728D01*
X3686809Y2779521D01*
X3695191Y2782062D01*
X3708654Y2782062D01*
X3716781Y2779521D01*
X3722370Y2776728D01*
X3727704Y2771139D01*
X3730497Y2763012D01*
X3730497Y2743962D01*
X3686809Y2352294D02*
G01*
X3681475Y2349500D01*
X3675888Y2344165D01*
X3673347Y2338578D01*
X3673347Y2327655D01*
X3675888Y2322321D01*
X3681475Y2316734D01*
X3686809Y2314194D01*
X3695191Y2311400D01*
X3708654Y2311400D01*
X3716781Y2314194D01*
X3722370Y2316734D01*
X3727704Y2322321D01*
X3730497Y2327655D01*
X3730497Y2338578D01*
X3727704Y2344165D01*
X3722370Y2349500D01*
X3716781Y2352294D01*
X3708654Y2352294D01*
X3708654Y2338578D02*
G01*
X3708654Y2352294D01*
X3673347Y2370328D02*
G01*
X3730497Y2370328D01*
X3673347Y2370328D02*
G01*
X3730497Y2408428D01*
X3673347Y2408428D02*
G01*
X3730497Y2408428D01*
X3673347Y2426462D02*
G01*
X3730497Y2426462D01*
X3673347Y2426462D02*
G01*
X3673347Y2445512D01*
X3675888Y2453639D01*
X3681475Y2459228D01*
X3686809Y2462021D01*
X3695191Y2464562D01*
X3708654Y2464562D01*
X3716781Y2462021D01*
X3722370Y2459228D01*
X3727704Y2453639D01*
X3730497Y2445512D01*
X3730497Y2426462D01*
X3686809Y1780794D02*
G01*
X3681475Y1778000D01*
X3675888Y1772665D01*
X3673347Y1767078D01*
X3673347Y1756155D01*
X3675888Y1750821D01*
X3681475Y1745234D01*
X3686809Y1742694D01*
X3695191Y1739900D01*
X3708654Y1739900D01*
X3716781Y1742694D01*
X3722370Y1745234D01*
X3727704Y1750821D01*
X3730497Y1756155D01*
X3730497Y1767078D01*
X3727704Y1772665D01*
X3722370Y1778000D01*
X3716781Y1780794D01*
X3708654Y1780794D01*
X3708654Y1767078D02*
G01*
X3708654Y1780794D01*
X3673347Y1798828D02*
G01*
X3730497Y1798828D01*
X3673347Y1798828D02*
G01*
X3730497Y1836928D01*
X3673347Y1836928D02*
G01*
X3730497Y1836928D01*
X3673347Y1854962D02*
G01*
X3730497Y1854962D01*
X3673347Y1854962D02*
G01*
X3673347Y1874012D01*
X3675888Y1882139D01*
X3681475Y1887728D01*
X3686809Y1890521D01*
X3695191Y1893062D01*
X3708654Y1893062D01*
X3716781Y1890521D01*
X3722370Y1887728D01*
X3727704Y1882139D01*
X3730497Y1874012D01*
X3730497Y1854962D01*
X3681475Y1536700D02*
G01*
X3675888Y1531365D01*
X3673347Y1523237D01*
X3673347Y1512315D01*
X3675888Y1503934D01*
X3681475Y1498600D01*
X3686809Y1498600D01*
X3692397Y1501394D01*
X3695191Y1503934D01*
X3697731Y1509521D01*
X3703320Y1525778D01*
X3705859Y1531365D01*
X3708654Y1534160D01*
X3714241Y1536700D01*
X3722370Y1536700D01*
X3727704Y1531365D01*
X3730497Y1523237D01*
X3730497Y1512315D01*
X3727704Y1503934D01*
X3722370Y1498600D01*
X3673347Y1571244D02*
G01*
X3675888Y1562862D01*
X3684270Y1557528D01*
X3697731Y1554734D01*
X3705859Y1554734D01*
X3719575Y1557528D01*
X3727704Y1562862D01*
X3730497Y1571244D01*
X3730497Y1576578D01*
X3727704Y1584705D01*
X3719575Y1590294D01*
X3705859Y1593087D01*
X3697731Y1593087D01*
X3684270Y1590294D01*
X3675888Y1584705D01*
X3673347Y1576578D01*
X3673347Y1571244D01*
X3673347Y2032000D02*
G01*
X3730497Y2032000D01*
X3673347Y2032000D02*
G01*
X3673347Y2056637D01*
X3675888Y2064765D01*
X3678681Y2067560D01*
X3684270Y2070100D01*
X3689604Y2070100D01*
X3695191Y2067560D01*
X3697731Y2064765D01*
X3700525Y2056637D01*
X3700525Y2032000D02*
G01*
X3700525Y2056637D01*
X3703320Y2064765D01*
X3705859Y2067560D01*
X3711447Y2070100D01*
X3719575Y2070100D01*
X3725163Y2067560D01*
X3727704Y2064765D01*
X3730497Y2056637D01*
X3730497Y2032000D01*
X3673347Y2107184D02*
G01*
X3730497Y2107184D01*
X3673347Y2088134D02*
G01*
X3673347Y2126487D01*
X3673347Y2144268D02*
G01*
X3730497Y2144268D01*
X3673347Y2144268D02*
G01*
X3730497Y2182621D01*
X3673347Y2182621D02*
G01*
X3730497Y2182621D01*
X3673347Y2926334D02*
G01*
X3673347Y2956560D01*
X3695191Y2940050D01*
X3695191Y2948178D01*
X3697731Y2953765D01*
X3700525Y2956560D01*
X3708654Y2959100D01*
X3714241Y2959100D01*
X3722370Y2956560D01*
X3727704Y2950971D01*
X3730497Y2942844D01*
X3730497Y2934715D01*
X3727704Y2926334D01*
X3725163Y2923794D01*
X3719575Y2921000D01*
X3673347Y2977134D02*
G01*
X3730497Y2998978D01*
X3673347Y3020821D02*
G01*
X3730497Y2998978D01*
X3681475Y3175000D02*
G01*
X3675888Y3169665D01*
X3673347Y3161537D01*
X3673347Y3150615D01*
X3675888Y3142234D01*
X3681475Y3136900D01*
X3686809Y3136900D01*
X3692397Y3139694D01*
X3695191Y3142234D01*
X3697731Y3147821D01*
X3703320Y3164078D01*
X3705859Y3169665D01*
X3708654Y3172460D01*
X3714241Y3175000D01*
X3722370Y3175000D01*
X3727704Y3169665D01*
X3730497Y3161537D01*
X3730497Y3150615D01*
X3727704Y3142234D01*
X3722370Y3136900D01*
X3686809Y3233928D02*
G01*
X3681475Y3231387D01*
X3675888Y3225800D01*
X3673347Y3220465D01*
X3673347Y3209544D01*
X3675888Y3203955D01*
X3681475Y3198621D01*
X3686809Y3195828D01*
X3695191Y3193034D01*
X3708654Y3193034D01*
X3716781Y3195828D01*
X3722370Y3198621D01*
X3727704Y3203955D01*
X3730497Y3209544D01*
X3730497Y3220465D01*
X3727704Y3225800D01*
X3722370Y3231387D01*
X3716781Y3233928D01*
X3673347Y3251962D02*
G01*
X3730497Y3251962D01*
X3673347Y3290062D02*
G01*
X3711447Y3251962D01*
X3697731Y3265678D02*
G01*
X3730497Y3290062D01*
X3673347Y3378200D02*
G01*
X3730497Y3378200D01*
X3673347Y3378200D02*
G01*
X3730497Y3400044D01*
X3673347Y3421887D02*
G01*
X3730497Y3400044D01*
X3673347Y3421887D02*
G01*
X3730497Y3421887D01*
X3673347Y3439921D02*
G01*
X3730497Y3439921D01*
X3681475Y3496055D02*
G01*
X3675888Y3490468D01*
X3673347Y3482339D01*
X3673347Y3471418D01*
X3675888Y3463289D01*
X3681475Y3457955D01*
X3686809Y3457955D01*
X3692397Y3460495D01*
X3695191Y3463289D01*
X3697731Y3468623D01*
X3703320Y3485134D01*
X3705859Y3490468D01*
X3708654Y3493262D01*
X3714241Y3496055D01*
X3722370Y3496055D01*
X3727704Y3490468D01*
X3730497Y3482339D01*
X3730497Y3471418D01*
X3727704Y3463289D01*
X3722370Y3457955D01*
X3673347Y3530345D02*
G01*
X3675888Y3525012D01*
X3681475Y3519423D01*
X3686809Y3516629D01*
X3695191Y3514089D01*
X3708654Y3514089D01*
X3716781Y3516629D01*
X3722370Y3519423D01*
X3727704Y3525012D01*
X3730497Y3530345D01*
X3730497Y3541268D01*
X3727704Y3546855D01*
X3722370Y3552189D01*
X3716781Y3554984D01*
X3708654Y3557778D01*
X3695191Y3557778D01*
X3686809Y3554984D01*
X3681475Y3552189D01*
X3675888Y3546855D01*
X3673347Y3541268D01*
X3673347Y3530345D01*
X3673347Y3632200D02*
G01*
X3730497Y3632200D01*
X3673347Y3632200D02*
G01*
X3730497Y3654044D01*
X3673347Y3675887D02*
G01*
X3730497Y3654044D01*
X3673347Y3675887D02*
G01*
X3730497Y3675887D01*
X3673347Y3710178D02*
G01*
X3675888Y3704844D01*
X3681475Y3699255D01*
X3686809Y3696462D01*
X3695191Y3693921D01*
X3708654Y3693921D01*
X3716781Y3696462D01*
X3722370Y3699255D01*
X3727704Y3704844D01*
X3730497Y3710178D01*
X3730497Y3721100D01*
X3727704Y3726687D01*
X3722370Y3732021D01*
X3716781Y3734815D01*
X3708654Y3737355D01*
X3695191Y3737355D01*
X3686809Y3734815D01*
X3681475Y3732021D01*
X3675888Y3726687D01*
X3673347Y3721100D01*
X3673347Y3710178D01*
X3681475Y3793744D02*
G01*
X3675888Y3788155D01*
X3673347Y3780028D01*
X3673347Y3769105D01*
X3675888Y3760978D01*
X3681475Y3755389D01*
X3686809Y3755389D01*
X3692397Y3758184D01*
X3695191Y3760978D01*
X3697731Y3766312D01*
X3703320Y3782821D01*
X3705859Y3788155D01*
X3708654Y3790950D01*
X3714241Y3793744D01*
X3722370Y3793744D01*
X3727704Y3788155D01*
X3730497Y3780028D01*
X3730497Y3769105D01*
X3727704Y3760978D01*
X3722370Y3755389D01*
X3673347Y3811778D02*
G01*
X3730497Y3811778D01*
X3681475Y3937000D02*
G01*
X3675888Y3931665D01*
X3673347Y3923537D01*
X3673347Y3912615D01*
X3675888Y3904234D01*
X3681475Y3898900D01*
X3686809Y3898900D01*
X3692397Y3901694D01*
X3695191Y3904234D01*
X3697731Y3909821D01*
X3703320Y3926078D01*
X3705859Y3931665D01*
X3708654Y3934460D01*
X3714241Y3937000D01*
X3722370Y3937000D01*
X3727704Y3931665D01*
X3730497Y3923537D01*
X3730497Y3912615D01*
X3727704Y3904234D01*
X3722370Y3898900D01*
X3673347Y3955034D02*
G01*
X3730497Y3955034D01*
X3673347Y3955034D02*
G01*
X3673347Y3974084D01*
X3675888Y3982465D01*
X3681475Y3987800D01*
X3686809Y3990594D01*
X3695191Y3993387D01*
X3708654Y3993387D01*
X3716781Y3990594D01*
X3722370Y3987800D01*
X3727704Y3982465D01*
X3730497Y3974084D01*
X3730497Y3955034D01*
X3673347Y4033012D02*
G01*
X3730497Y4011168D01*
X3673347Y4033012D02*
G01*
X3730497Y4054855D01*
X3711447Y4019550D02*
G01*
X3711447Y4046728D01*
X3673347Y4254500D02*
G01*
X3730497Y4254500D01*
X3730497Y4254500D02*
G01*
X3730497Y4287265D01*
X3673347Y4305300D02*
G01*
X3730497Y4305300D01*
X3673347Y4305300D02*
G01*
X3673347Y4340605D01*
X3700525Y4305300D02*
G01*
X3700525Y4327144D01*
X3730497Y4305300D02*
G01*
X3730497Y4340605D01*
X3673347Y4358639D02*
G01*
X3730497Y4358639D01*
X3673347Y4358639D02*
G01*
X3673347Y4377689D01*
X3675888Y4386071D01*
X3681475Y4391405D01*
X3686809Y4394200D01*
X3695191Y4396739D01*
X3708654Y4396739D01*
X3716781Y4394200D01*
X3722370Y4391405D01*
X3727704Y4386071D01*
X3730497Y4377689D01*
X3730497Y4358639D01*
X3673347Y5188965D02*
G01*
X3673347Y5161534D01*
X3697731Y5158994D01*
X3695191Y5161534D01*
X3692397Y5169915D01*
X3692397Y5178044D01*
X3695191Y5186171D01*
X3700525Y5191760D01*
X3708654Y5194300D01*
X3714241Y5194300D01*
X3722370Y5191760D01*
X3727704Y5186171D01*
X3730497Y5178044D01*
X3730497Y5169915D01*
X3727704Y5161534D01*
X3725163Y5158994D01*
X3719575Y5156200D01*
X3673347Y5212334D02*
G01*
X3730497Y5234178D01*
X3673347Y5256021D02*
G01*
X3730497Y5234178D01*
X3673347Y5422900D02*
G01*
X3730497Y5422900D01*
X3673347Y5422900D02*
G01*
X3673347Y5447537D01*
X3675888Y5455665D01*
X3678681Y5458460D01*
X3684270Y5461000D01*
X3689604Y5461000D01*
X3695191Y5458460D01*
X3697731Y5455665D01*
X3700525Y5447537D01*
X3700525Y5422900D01*
X3700525Y5441950D02*
G01*
X3730497Y5461000D01*
X3673347Y5479034D02*
G01*
X3730497Y5517387D01*
X3673347Y5517387D02*
G01*
X3730497Y5479034D01*
X3673347Y5683250D02*
G01*
X3730497Y5683250D01*
X3673347Y5664200D02*
G01*
X3673347Y5702300D01*
X3673347Y5720334D02*
G01*
X3730497Y5758687D01*
X3673347Y5758687D02*
G01*
X3730497Y5720334D01*
X3660647Y6014465D02*
G01*
X3660647Y5987034D01*
X3685031Y5984494D01*
X3682491Y5987034D01*
X3679697Y5995415D01*
X3679697Y6003544D01*
X3682491Y6011671D01*
X3687825Y6017260D01*
X3695954Y6019800D01*
X3701541Y6019800D01*
X3709670Y6017260D01*
X3715004Y6011671D01*
X3717797Y6003544D01*
X3717797Y5995415D01*
X3715004Y5987034D01*
X3712463Y5984494D01*
X3706875Y5981700D01*
X3660647Y6037834D02*
G01*
X3717797Y6059678D01*
X3660647Y6081521D02*
G01*
X3717797Y6059678D01*
X3612134Y6759447D02*
G01*
X3639565Y6759447D01*
X3642106Y6783831D01*
X3639565Y6781292D01*
X3631184Y6778497D01*
X3623056Y6778497D01*
X3614927Y6781292D01*
X3609340Y6786626D01*
X3606800Y6794754D01*
X3606800Y6800342D01*
X3609340Y6808470D01*
X3614927Y6813804D01*
X3623056Y6816597D01*
X3631184Y6816597D01*
X3639565Y6813804D01*
X3642106Y6811263D01*
X3644900Y6805676D01*
X3588765Y6759447D02*
G01*
X3566922Y6816597D01*
X3545077Y6759447D02*
G01*
X3566922Y6816597D01*
X2616200Y6336284D02*
G01*
X2616200Y6445250D01*
X2616200Y6336284D02*
G01*
X2548636Y6336284D01*
X2616200Y6388100D02*
G01*
X2574543Y6388100D01*
X2616200Y6445250D02*
G01*
X2548636Y6445250D01*
X2514345Y6336284D02*
G01*
X2472690Y6445250D01*
X2431288Y6336284D02*
G01*
X2472690Y6445250D01*
X2324100Y6351778D02*
G01*
X2334513Y6341363D01*
X2350261Y6336284D01*
X2371090Y6336284D01*
X2386584Y6341363D01*
X2396997Y6351778D01*
X2396997Y6362192D01*
X2391663Y6372605D01*
X2386584Y6377939D01*
X2376170Y6383020D01*
X2344927Y6393434D01*
X2334513Y6398513D01*
X2329434Y6403847D01*
X2324100Y6414262D01*
X2324100Y6429755D01*
X2334513Y6440170D01*
X2350261Y6445250D01*
X2371090Y6445250D01*
X2386584Y6440170D01*
X2396997Y6429755D01*
X2289809Y6336284D02*
G01*
X2289809Y6445250D01*
X2289809Y6336284D02*
G01*
X2222500Y6336284D01*
X2289809Y6388100D02*
G01*
X2248408Y6388100D01*
X2289809Y6445250D02*
G01*
X2222500Y6445250D01*
X2188209Y6336284D02*
G01*
X2162047Y6445250D01*
X2136140Y6336284D02*
G01*
X2162047Y6445250D01*
X2136140Y6336284D02*
G01*
X2110231Y6445250D01*
X2084070Y6336284D02*
G01*
X2110231Y6445250D01*
X2049779Y6336284D02*
G01*
X2049779Y6445250D01*
X2049779Y6336284D02*
G01*
X2003043Y6336284D01*
X1987550Y6341363D01*
X1982470Y6346697D01*
X1977136Y6357112D01*
X1977136Y6367526D01*
X1982470Y6377939D01*
X1987550Y6383020D01*
X2003043Y6388100D01*
X2049779Y6388100D02*
G01*
X2003043Y6388100D01*
X1987550Y6393434D01*
X1982470Y6398513D01*
X1977136Y6408928D01*
X1977136Y6424676D01*
X1982470Y6435089D01*
X1987550Y6440170D01*
X2003043Y6445250D01*
X2049779Y6445250D01*
X3224784Y5270500D02*
G01*
X3333750Y5270500D01*
X3224784Y5270500D02*
G01*
X3333750Y5312155D01*
X3224784Y5353557D02*
G01*
X3333750Y5312155D01*
X3224784Y5353557D02*
G01*
X3333750Y5353557D01*
X3224784Y5387847D02*
G01*
X3333750Y5387847D01*
X3224784Y5387847D02*
G01*
X3333750Y5429504D01*
X3224784Y5471160D02*
G01*
X3333750Y5429504D01*
X3224784Y5471160D02*
G01*
X3333750Y5471160D01*
X1416557Y6336284D02*
G01*
X1426971Y6341363D01*
X1437386Y6351778D01*
X1442720Y6362192D01*
X1447800Y6377939D01*
X1447800Y6403847D01*
X1442720Y6419342D01*
X1437386Y6429755D01*
X1426971Y6440170D01*
X1416557Y6445250D01*
X1395729Y6445250D01*
X1385570Y6440170D01*
X1375155Y6429755D01*
X1369821Y6419342D01*
X1364742Y6403847D01*
X1364742Y6377939D01*
X1369821Y6362192D01*
X1375155Y6351778D01*
X1385570Y6341363D01*
X1395729Y6336284D01*
X1416557Y6336284D01*
X1330452Y6336284D02*
G01*
X1330452Y6445250D01*
X1330452Y6445250D02*
G01*
X1267968Y6445250D01*
X1233678Y6336284D02*
G01*
X1233678Y6445250D01*
X1233678Y6336284D02*
G01*
X1166113Y6336284D01*
X1233678Y6388100D02*
G01*
X1192276Y6388100D01*
X1233678Y6445250D02*
G01*
X1166113Y6445250D01*
X1131823Y6336284D02*
G01*
X1131823Y6445250D01*
X1131823Y6336284D02*
G01*
X1095502Y6336284D01*
X1080007Y6341363D01*
X1069594Y6351778D01*
X1064260Y6362192D01*
X1059179Y6377939D01*
X1059179Y6403847D01*
X1064260Y6419342D01*
X1069594Y6429755D01*
X1080007Y6440170D01*
X1095502Y6445250D01*
X1131823Y6445250D01*
X3175000Y6336284D02*
G01*
X3175000Y6445250D01*
X3175000Y6336284D02*
G01*
X3128263Y6336284D01*
X3112770Y6341363D01*
X3107436Y6346697D01*
X3102356Y6357112D01*
X3102356Y6372605D01*
X3107436Y6383020D01*
X3112770Y6388100D01*
X3128263Y6393434D01*
X3175000Y6393434D01*
X3068065Y6336284D02*
G01*
X3068065Y6445250D01*
X3068065Y6336284D02*
G01*
X3021329Y6336284D01*
X3005581Y6341363D01*
X3000502Y6346697D01*
X2995168Y6357112D01*
X2995168Y6367526D01*
X3000502Y6377939D01*
X3005581Y6383020D01*
X3021329Y6388100D01*
X3068065Y6388100D01*
X3031490Y6388100D02*
G01*
X2995168Y6445250D01*
X3237484Y2095500D02*
G01*
X3346450Y2095500D01*
X3237484Y2095500D02*
G01*
X3237484Y2142236D01*
X3242563Y2157729D01*
X3247897Y2163063D01*
X3258311Y2168144D01*
X3268725Y2168144D01*
X3279140Y2163063D01*
X3284220Y2157729D01*
X3289300Y2142236D01*
X3289300Y2095500D02*
G01*
X3289300Y2142236D01*
X3294634Y2157729D01*
X3299713Y2163063D01*
X3310127Y2168144D01*
X3325875Y2168144D01*
X3336290Y2163063D01*
X3341370Y2157729D01*
X3346450Y2142236D01*
X3346450Y2095500D01*
X3237484Y2239010D02*
G01*
X3346450Y2239010D01*
X3237484Y2202434D02*
G01*
X3237484Y2275331D01*
X3237484Y2309621D02*
G01*
X3346450Y2309621D01*
X3237484Y2309621D02*
G01*
X3346450Y2382265D01*
X3237484Y2382265D02*
G01*
X3346450Y2382265D01*
X3237484Y4318000D02*
G01*
X3346450Y4318000D01*
X3346450Y4318000D02*
G01*
X3346450Y4380229D01*
X3237484Y4414520D02*
G01*
X3346450Y4414520D01*
X3237484Y4414520D02*
G01*
X3237484Y4482084D01*
X3289300Y4414520D02*
G01*
X3289300Y4456176D01*
X3346450Y4414520D02*
G01*
X3346450Y4482084D01*
X3237484Y4516373D02*
G01*
X3346450Y4516373D01*
X3237484Y4516373D02*
G01*
X3237484Y4552950D01*
X3242563Y4568444D01*
X3252977Y4578857D01*
X3263391Y4583937D01*
X3279140Y4589271D01*
X3305047Y4589271D01*
X3320541Y4583937D01*
X3330956Y4578857D01*
X3341370Y4568444D01*
X3346450Y4552950D01*
X3346450Y4516373D01*
X3237484Y6007100D02*
G01*
X3346450Y6007100D01*
X3237484Y6007100D02*
G01*
X3237484Y6053836D01*
X3242563Y6069329D01*
X3247897Y6074663D01*
X3258311Y6079744D01*
X3273806Y6079744D01*
X3284220Y6074663D01*
X3289300Y6069329D01*
X3294634Y6053836D01*
X3294634Y6007100D01*
X3237484Y6114034D02*
G01*
X3346450Y6140195D01*
X3237484Y6166104D02*
G01*
X3346450Y6140195D01*
X3237484Y6166104D02*
G01*
X3346450Y6192012D01*
X3237484Y6217920D02*
G01*
X3346450Y6192012D01*
X3237484Y6252210D02*
G01*
X3346450Y6252210D01*
X3237484Y6252210D02*
G01*
X3237484Y6299200D01*
X3242563Y6314694D01*
X3247897Y6319773D01*
X3258311Y6325107D01*
X3268725Y6325107D01*
X3279140Y6319773D01*
X3284220Y6314694D01*
X3289300Y6299200D01*
X3289300Y6252210D01*
X3289300Y6288786D02*
G01*
X3346450Y6325107D01*
X3252977Y1698244D02*
G01*
X3242563Y1687829D01*
X3237484Y1672336D01*
X3237484Y1651507D01*
X3242563Y1636013D01*
X3252977Y1625600D01*
X3263391Y1625600D01*
X3273806Y1630679D01*
X3279140Y1636013D01*
X3284220Y1646428D01*
X3294634Y1677670D01*
X3299713Y1687829D01*
X3305047Y1693163D01*
X3315461Y1698244D01*
X3330956Y1698244D01*
X3341370Y1687829D01*
X3346450Y1672336D01*
X3346450Y1651507D01*
X3341370Y1636013D01*
X3330956Y1625600D01*
X3237484Y1763776D02*
G01*
X3242563Y1748281D01*
X3258311Y1737868D01*
X3284220Y1732534D01*
X3299713Y1732534D01*
X3325875Y1737868D01*
X3341370Y1748281D01*
X3346450Y1763776D01*
X3346450Y1774189D01*
X3341370Y1789684D01*
X3325875Y1800097D01*
X3299713Y1805431D01*
X3284220Y1805431D01*
X3258311Y1800097D01*
X3242563Y1789684D01*
X3237484Y1774189D01*
X3237484Y1763776D01*
X3237484Y3340100D02*
G01*
X3346450Y3340100D01*
X3237484Y3340100D02*
G01*
X3237484Y3386836D01*
X3242563Y3402329D01*
X3247897Y3407663D01*
X3258311Y3412744D01*
X3268725Y3412744D01*
X3279140Y3407663D01*
X3284220Y3402329D01*
X3289300Y3386836D01*
X3289300Y3340100D01*
X3289300Y3376421D02*
G01*
X3346450Y3412744D01*
X3237484Y3447034D02*
G01*
X3346450Y3447034D01*
X3237484Y3447034D02*
G01*
X3237484Y3514597D01*
X3289300Y3447034D02*
G01*
X3289300Y3488689D01*
X3237484Y3548887D02*
G01*
X3346450Y3548887D01*
X3237484Y3583178D02*
G01*
X3346450Y3583178D01*
X3237484Y3583178D02*
G01*
X3237484Y3619500D01*
X3242563Y3635247D01*
X3252977Y3645662D01*
X3263391Y3650742D01*
X3279140Y3656076D01*
X3305047Y3656076D01*
X3320541Y3650742D01*
X3330956Y3645662D01*
X3341370Y3635247D01*
X3346450Y3619500D01*
X3346450Y3583178D01*
X1287782Y4167634D02*
G01*
X1287782Y4070606D01*
X1287782Y4167634D02*
G01*
X1347726Y4167634D01*
X1287782Y4121406D02*
G01*
X1324612Y4121406D01*
X1287782Y4070606D02*
G01*
X1347726Y4070606D01*
X1442976Y4153918D02*
G01*
X1433832Y4163062D01*
X1419862Y4167634D01*
X1401320Y4167634D01*
X1387604Y4163062D01*
X1378206Y4153918D01*
X1378206Y4144520D01*
X1383032Y4135376D01*
X1387604Y4130804D01*
X1396748Y4126232D01*
X1424434Y4116834D01*
X1433832Y4112262D01*
X1438404Y4107690D01*
X1442976Y4098292D01*
X1442976Y4084576D01*
X1433832Y4075432D01*
X1419862Y4070606D01*
X1401320Y4070606D01*
X1387604Y4075432D01*
X1378206Y4084576D01*
X1473456Y4167634D02*
G01*
X1473456Y4070606D01*
X1473456Y4167634D02*
G01*
X1515112Y4167634D01*
X1528828Y4163062D01*
X1533400Y4158490D01*
X1537972Y4149092D01*
X1537972Y4135376D01*
X1533400Y4126232D01*
X1528828Y4121406D01*
X1515112Y4116834D01*
X1473456Y4116834D01*
X1568452Y4112262D02*
G01*
X1651764Y4112262D01*
X1682244Y4167634D02*
G01*
X1705358Y4070606D01*
X1728472Y4167634D02*
G01*
X1705358Y4070606D01*
X1728472Y4167634D02*
G01*
X1751332Y4070606D01*
X1774446Y4167634D02*
G01*
X1751332Y4070606D01*
X1804926Y4167634D02*
G01*
X1804926Y4070606D01*
X1804926Y4167634D02*
G01*
X1846582Y4167634D01*
X1860552Y4163062D01*
X1865124Y4158490D01*
X1869696Y4149092D01*
X1869696Y4139948D01*
X1865124Y4130804D01*
X1860552Y4126232D01*
X1846582Y4121406D01*
X1804926Y4121406D01*
X1837438Y4121406D02*
G01*
X1869696Y4070606D01*
X1927862Y4167634D02*
G01*
X1918718Y4163062D01*
X1909320Y4153918D01*
X1904748Y4144520D01*
X1900176Y4130804D01*
X1900176Y4107690D01*
X1904748Y4093720D01*
X1909320Y4084576D01*
X1918718Y4075432D01*
X1927862Y4070606D01*
X1946404Y4070606D01*
X1955548Y4075432D01*
X1964692Y4084576D01*
X1969518Y4093720D01*
X1974090Y4107690D01*
X1974090Y4130804D01*
X1969518Y4144520D01*
X1964692Y4153918D01*
X1955548Y4163062D01*
X1946404Y4167634D01*
X1927862Y4167634D01*
X2032256Y4167634D02*
G01*
X2023112Y4163062D01*
X2013714Y4153918D01*
X2009142Y4144520D01*
X2004570Y4130804D01*
X2004570Y4107690D01*
X2009142Y4093720D01*
X2013714Y4084576D01*
X2023112Y4075432D01*
X2032256Y4070606D01*
X2050798Y4070606D01*
X2059942Y4075432D01*
X2069086Y4084576D01*
X2073912Y4093720D01*
X2078484Y4107690D01*
X2078484Y4130804D01*
X2073912Y4144520D01*
X2069086Y4153918D01*
X2059942Y4163062D01*
X2050798Y4167634D01*
X2032256Y4167634D01*
X2108964Y4167634D02*
G01*
X2108964Y4070606D01*
X2108964Y4167634D02*
G01*
X2145794Y4070606D01*
X2182878Y4167634D02*
G01*
X2145794Y4070606D01*
X2182878Y4167634D02*
G01*
X2182878Y4070606D01*
X2213358Y4112262D02*
G01*
X2296416Y4112262D01*
X2336040Y4167634D02*
G01*
X2386840Y4167634D01*
X2359154Y4130804D01*
X2373124Y4130804D01*
X2382268Y4126232D01*
X2386840Y4121406D01*
X2391412Y4107690D01*
X2391412Y4098292D01*
X2386840Y4084576D01*
X2377696Y4075432D01*
X2363726Y4070606D01*
X2350010Y4070606D01*
X2336040Y4075432D01*
X2331468Y4080004D01*
X2326896Y4089148D01*
X2426718Y4144520D02*
G01*
X2426718Y4149092D01*
X2431290Y4158490D01*
X2435862Y4163062D01*
X2445006Y4167634D01*
X2463548Y4167634D01*
X2472692Y4163062D01*
X2477518Y4158490D01*
X2482090Y4149092D01*
X2482090Y4139948D01*
X2477518Y4130804D01*
X2468120Y4116834D01*
X2421892Y4070606D01*
X2486662Y4070606D01*
D11*
X2837941Y1803907D02*
G01*
X2910840Y1803907D01*
X2837941Y1803907D02*
G01*
X2837941Y1828037D01*
X2841497Y1838452D01*
X2848356Y1845563D01*
X2855468Y1848865D01*
X2865627Y1852421D01*
X2883154Y1852421D01*
X2893568Y1848865D01*
X2900425Y1845563D01*
X2907284Y1838452D01*
X2910840Y1828037D01*
X2910840Y1803907D01*
X2883154Y1875281D02*
G01*
X2883154Y1916937D01*
X2876041Y1916937D01*
X2869184Y1913381D01*
X2865627Y1909826D01*
X2862325Y1902968D01*
X2862325Y1892554D01*
X2865627Y1885695D01*
X2872740Y1878837D01*
X2883154Y1875281D01*
X2890011Y1875281D01*
X2900425Y1878837D01*
X2907284Y1885695D01*
X2910840Y1892554D01*
X2910840Y1902968D01*
X2907284Y1909826D01*
X2900425Y1916937D01*
X2872740Y1977897D02*
G01*
X2865627Y1974342D01*
X2862325Y1963928D01*
X2862325Y1953513D01*
X2865627Y1943100D01*
X2872740Y1939797D01*
X2879597Y1943100D01*
X2883154Y1949957D01*
X2886456Y1967484D01*
X2890011Y1974342D01*
X2896870Y1977897D01*
X2900425Y1977897D01*
X2907284Y1974342D01*
X2910840Y1963928D01*
X2910840Y1953513D01*
X2907284Y1943100D01*
X2900425Y1939797D01*
X2837941Y2000757D02*
G01*
X2841497Y2004060D01*
X2837941Y2007615D01*
X2834640Y2004060D01*
X2837941Y2000757D01*
X2862325Y2004060D02*
G01*
X2910840Y2004060D01*
X2862325Y2071878D02*
G01*
X2917697Y2071878D01*
X2928111Y2068576D01*
X2931668Y2065020D01*
X2934970Y2058162D01*
X2934970Y2047747D01*
X2931668Y2040889D01*
X2872740Y2071878D02*
G01*
X2865627Y2065020D01*
X2862325Y2058162D01*
X2862325Y2047747D01*
X2865627Y2040889D01*
X2872740Y2033778D01*
X2883154Y2030476D01*
X2890011Y2030476D01*
X2900425Y2033778D01*
X2907284Y2040889D01*
X2910840Y2047747D01*
X2910840Y2058162D01*
X2907284Y2065020D01*
X2900425Y2071878D01*
X2862325Y2094737D02*
G01*
X2910840Y2094737D01*
X2876041Y2094737D02*
G01*
X2865627Y2105152D01*
X2862325Y2112263D01*
X2862325Y2122678D01*
X2865627Y2129536D01*
X2876041Y2132837D01*
X2910840Y2132837D01*
X2883154Y2155697D02*
G01*
X2883154Y2197354D01*
X2876041Y2197354D01*
X2869184Y2193797D01*
X2865627Y2190495D01*
X2862325Y2183637D01*
X2862325Y2173223D01*
X2865627Y2166112D01*
X2872740Y2159254D01*
X2883154Y2155697D01*
X2890011Y2155697D01*
X2900425Y2159254D01*
X2907284Y2166112D01*
X2910840Y2173223D01*
X2910840Y2183637D01*
X2907284Y2190495D01*
X2900425Y2197354D01*
X2837941Y2261870D02*
G01*
X2910840Y2261870D01*
X2872740Y2261870D02*
G01*
X2865627Y2254757D01*
X2862325Y2247900D01*
X2862325Y2237486D01*
X2865627Y2230628D01*
X2872740Y2223770D01*
X2883154Y2220213D01*
X2890011Y2220213D01*
X2900425Y2223770D01*
X2907284Y2230628D01*
X2910840Y2237486D01*
X2910840Y2247900D01*
X2907284Y2254757D01*
X2900425Y2261870D01*
X2837941Y2338070D02*
G01*
X2910840Y2338070D01*
X2872740Y2338070D02*
G01*
X2865627Y2344928D01*
X2862325Y2351786D01*
X2862325Y2362200D01*
X2865627Y2369057D01*
X2872740Y2376170D01*
X2883154Y2379471D01*
X2890011Y2379471D01*
X2900425Y2376170D01*
X2907284Y2369057D01*
X2910840Y2362200D01*
X2910840Y2351786D01*
X2907284Y2344928D01*
X2900425Y2338070D01*
X2862325Y2405887D02*
G01*
X2910840Y2426715D01*
X2862325Y2447544D02*
G01*
X2910840Y2426715D01*
X2924556Y2419857D01*
X2931668Y2412745D01*
X2934970Y2405887D01*
X2934970Y2402331D01*
X2837941Y2558287D02*
G01*
X2893568Y2558287D01*
X2903727Y2554731D01*
X2907284Y2551429D01*
X2910840Y2544318D01*
X2910840Y2537460D01*
X2907284Y2530602D01*
X2903727Y2527045D01*
X2893568Y2523744D01*
X2886456Y2523744D01*
X2862325Y2598420D02*
G01*
X2865627Y2591562D01*
X2872740Y2584704D01*
X2883154Y2581147D01*
X2890011Y2581147D01*
X2900425Y2584704D01*
X2907284Y2591562D01*
X2910840Y2598420D01*
X2910840Y2608834D01*
X2907284Y2615692D01*
X2900425Y2622804D01*
X2890011Y2626105D01*
X2883154Y2626105D01*
X2872740Y2622804D01*
X2865627Y2615692D01*
X2862325Y2608834D01*
X2862325Y2598420D01*
X2837941Y2648965D02*
G01*
X2910840Y2648965D01*
X2872740Y2648965D02*
G01*
X2865627Y2656078D01*
X2862325Y2662936D01*
X2862325Y2673350D01*
X2865627Y2680207D01*
X2872740Y2687065D01*
X2883154Y2690621D01*
X2890011Y2690621D01*
X2900425Y2687065D01*
X2907284Y2680207D01*
X2910840Y2673350D01*
X2910840Y2662936D01*
X2907284Y2656078D01*
X2900425Y2648965D01*
X2872740Y2751581D02*
G01*
X2865627Y2748026D01*
X2862325Y2737612D01*
X2862325Y2727197D01*
X2865627Y2717037D01*
X2872740Y2713481D01*
X2879597Y2717037D01*
X2883154Y2723895D01*
X2886456Y2741168D01*
X2890011Y2748026D01*
X2896870Y2751581D01*
X2900425Y2751581D01*
X2907284Y2748026D01*
X2910840Y2737612D01*
X2910840Y2727197D01*
X2907284Y2717037D01*
X2900425Y2713481D01*
X2862325Y2791713D02*
G01*
X2865627Y2784855D01*
X2872740Y2777997D01*
X2883154Y2774442D01*
X2890011Y2774442D01*
X2900425Y2777997D01*
X2907284Y2784855D01*
X2910840Y2791713D01*
X2910840Y2802128D01*
X2907284Y2808986D01*
X2900425Y2816097D01*
X2890011Y2819400D01*
X2883154Y2819400D01*
X2872740Y2816097D01*
X2865627Y2808986D01*
X2862325Y2802128D01*
X2862325Y2791713D01*
X2862325Y2842260D02*
G01*
X2910840Y2842260D01*
X2876041Y2842260D02*
G01*
X2865627Y2852673D01*
X2862325Y2859531D01*
X2862325Y2869945D01*
X2865627Y2877057D01*
X2876041Y2880360D01*
X2910840Y2880360D01*
D12*
X1828800Y6477000D02*
G01*
X1828800Y6731000D01*
X2844800Y6731000D01*
X2844800Y6477000D01*
X1828800Y6477000D01*
X3632200Y4838700D02*
G01*
X3378200Y4838700D01*
X3378200Y5854700D01*
X3632200Y5854700D01*
X3632200Y4838700D01*
X1739900Y6731000D02*
G01*
X1739900Y6477000D01*
X723900Y6477000D01*
X723900Y6731000D01*
X1739900Y6731000D01*
X3218284Y6723999D02*
G01*
X3218284Y6489001D01*
X3720099Y6723999D02*
G01*
X3720099Y6489001D01*
X2960100Y6489001D01*
X2960100Y6723999D01*
X3720099Y6723999D01*
X3390900Y2476500D02*
G01*
X3619500Y2476500D01*
X3619500Y1993900D01*
X3390900Y1993900D01*
X3390900Y2476500D01*
X3390900Y4699000D02*
G01*
X3619500Y4699000D01*
X3619500Y4216400D01*
X3390900Y4216400D01*
X3390900Y4699000D01*
X3390900Y6413500D02*
G01*
X3619500Y6413500D01*
X3619500Y5930900D01*
X3390900Y5930900D01*
X3390900Y6413500D01*
X3390900Y1917700D02*
G01*
X3619500Y1917700D01*
X3619500Y1435100D01*
X3390900Y1435100D01*
X3390900Y1917700D01*
X3378200Y2590800D02*
G01*
X3378200Y4114800D01*
X3632200Y4114800D01*
X3632200Y2590800D01*
X3378200Y2590800D01*
X3062297Y1432565D02*
G01*
X722302Y1432565D01*
X3162297Y6158557D02*
G01*
X3162297Y1532564D01*
X1544320Y1369857D02*
G01*
X1544320Y1870237D01*
X2286000Y1870237D01*
X2286000Y1369857D01*
X1546860Y1433357D02*
G01*
X2283459Y1433357D01*
X1584960Y1870237D02*
G01*
X1544320Y1870237D01*
X1544320Y1715297D01*
X2235200Y1870237D02*
G01*
X2286000Y1870237D01*
X2286000Y1705137D01*
X1544320Y1466377D02*
G01*
X1544320Y1374937D01*
X2286000Y1466377D02*
G01*
X2286000Y1374937D01*
X1584960Y1364777D02*
G01*
X1569364Y1368257D01*
X1569364Y1368257D02*
G01*
X1544320Y1367317D01*
X2286000Y1369857D02*
G01*
X2260244Y1368257D01*
X2260244Y1368257D02*
G01*
X2247900Y1367317D01*
X1620164Y1330157D02*
G01*
X2209444Y1330157D01*
X1620164Y1309837D02*
G01*
X2209444Y1309837D01*
X1604924Y1347937D02*
G01*
X1604924Y1345397D01*
X1604924Y1345397D02*
G01*
X1604924Y1325077D01*
X2224684Y1347937D02*
G01*
X2224684Y1345397D01*
X2224684Y1345397D02*
G01*
X2224684Y1325077D01*
X1546860Y1367317D02*
G01*
X1521460Y1324137D01*
X1518920Y1321597D02*
G01*
X1538884Y1309837D01*
X1538884Y1309837D02*
G01*
X1566824Y1355557D01*
X2283459Y1367317D02*
G01*
X2308859Y1324137D01*
X2308859Y1321597D02*
G01*
X2290724Y1309837D01*
X2290724Y1309837D02*
G01*
X2262784Y1353017D01*
X1209039Y1875317D02*
G01*
X1209039Y1926117D01*
X1361439Y1926117D01*
X1361439Y1882139D01*
X1158239Y1519717D02*
G01*
X1412239Y1519717D01*
X1412239Y1875317D01*
X1158239Y1875317D01*
X1158239Y1519717D01*
X1209039Y1519717D01*
X1209039Y1468917D01*
X1361439Y1468917D01*
X1361439Y1519717D01*
X2463800Y1875317D02*
G01*
X2463800Y1926117D01*
X2616200Y1926117D01*
X2616200Y1884679D01*
X2413000Y1519717D02*
G01*
X2667000Y1519717D01*
X2667000Y1875317D01*
X2413000Y1875317D01*
X2413000Y1519717D01*
X2463800Y1519717D01*
X2463800Y1468917D01*
X2616200Y1468917D01*
X2616200Y1519717D01*
X983236Y6222499D02*
G01*
X983236Y4872489D01*
X983236Y3672593D01*
X983236Y3672593D02*
G01*
X2783334Y3672593D01*
X983236Y6222499D02*
G01*
X2783334Y6222499D01*
X2783334Y6222499D02*
G01*
X2783334Y3672593D01*
X983236Y5622551D02*
G01*
X2583182Y5622551D01*
X2783334Y5622551D01*
D13*
X2639062Y5673859D02*
G01*
X2639062Y6136139D01*
X2095502Y6136139D01*
X2095502Y5877059D01*
X1836422Y5877059D01*
X1836422Y6136139D01*
X1582422Y6136139D01*
X1582422Y5877059D01*
X1341122Y5877059D01*
X1341122Y6136139D01*
X1137922Y6136139D01*
X1137922Y5673859D01*
X2372362Y5666239D02*
G01*
X2372362Y6134869D01*
D12*
X1130302Y5369059D02*
G01*
X1130302Y3845059D01*
X2654302Y3845059D01*
X2654302Y5369059D01*
X1130302Y5369059D01*
X722302Y6258557D02*
G01*
X3062297Y6258557D01*
X622302Y1532564D02*
G01*
X622302Y6158557D01*
G75*
G01*
X1562100Y1367318D02*
G02*
X1606550Y1351824I6997J-51434D01*
G75*
G01*
X1606550Y1347252D02*
G03*
X1621790Y1332774I15002J531D01*
G75*
G01*
X1606550Y1326678D02*
G03*
X1621790Y1311184I15004J-485D01*
G75*
G01*
X2211324Y1311184D02*
G03*
X2226564Y1326678I236J15009D01*
G75*
G01*
X2211324Y1332774D02*
G03*
X2226564Y1347252I238J15009D01*
G75*
G01*
X2226564Y1351824D02*
G02*
X2265680Y1367318I32959J-26085D01*
G75*
G01*
X1568196Y1357158D02*
G03*
X1572260Y1367318I-11596J10531D01*
G75*
G01*
X2265426Y1356650D02*
G02*
X2263140Y1367318I13209J8409D01*
G75*
G01*
X722302Y1432565D02*
G02*
X622303Y1532565I0J100000D01*
G75*
G01*
X622303Y6158558D02*
G02*
X722302Y6258557I99999J0D01*
G75*
G01*
X3162297Y1532565D02*
G02*
X3062298Y1432565I-99999J0D01*
G75*
G01*
X3062298Y6258557D02*
G02*
X3162297Y6158558I0J-99999D01*
G75*
G01
X1285240Y1684807D02*
G03X1285240Y1684807I-12700J0D01*
G75*
G01
X1310640Y1710207D02*
G03X1310640Y1710207I-12700J0D01*
G75*
G01
X1310640Y1697507D02*
G03X1310640Y1697507I-25400J0D01*
G75*
G01
X1336040Y1697507D02*
G03X1336040Y1697507I-50800J0D01*
G75*
G01
X1361440Y1697507D02*
G03X1361440Y1697507I-76200J0D01*
G75*
G01
X2540000Y1684807D02*
G03X2540000Y1684807I-12700J0D01*
G75*
G01
X2565400Y1710207D02*
G03X2565400Y1710207I-12700J0D01*
G75*
G01
X2565400Y1697507D02*
G03X2565400Y1697507I-25400J0D01*
G75*
G01
X2590800Y1697507D02*
G03X2590800Y1697507I-50800J0D01*
G75*
G01
X2616200Y1697507D02*
G03X2616200Y1697507I-76200J0D01*
M02*
