G04 Layer: BottomSolderMaskLayer*
G04 EasyEDA v6.5.22, 2023-01-05 13:27:54*
G04 3fff428916324e5da58f8526390e409d,db865e68f4bc4fd99aa1dd1697a786d6,10*
G04 Gerber Generator version 0.2*
G04 Scale: 100 percent, Rotated: No, Reflected: No *
G04 Dimensions in millimeters *
G04 leading zeros omitted , absolute positions ,4 integer and 5 decimal *
%FSLAX45Y45*%
%MOMM*%

%AMMACRO1*1,1,$1,$2,$3*1,1,$1,$4,$5*1,1,$1,0-$2,0-$3*1,1,$1,0-$4,0-$5*20,1,$1,$2,$3,$4,$5,0*20,1,$1,$4,$5,0-$2,0-$3,0*20,1,$1,0-$2,0-$3,0-$4,0-$5,0*20,1,$1,0-$4,0-$5,$2,$3,0*4,1,4,$2,$3,$4,$5,0-$2,0-$3,0-$4,0-$5,$2,$3,0*%
%ADD10C,1.7272*%
%ADD11MACRO1,0.1016X-0.75X0.75X0.75X0.75*%
%ADD12C,1.6016*%
%ADD13MACRO1,0.2032X-0.8255X0.8255X0.8255X0.8255*%
%ADD14C,1.7526*%
%ADD15R,1.6256X1.6256*%
%ADD16C,1.6256*%
%ADD17C,1.6240*%

%LPD*%
D10*
G01*
X1955800Y6604000D03*
G01*
X2209800Y6604000D03*
G01*
X2463800Y6604000D03*
G01*
X2717800Y6604000D03*
G01*
X3505200Y4965700D03*
G01*
X3505200Y5219700D03*
G01*
X3505200Y5473700D03*
G01*
X3505200Y5727700D03*
G01*
X1612900Y6604000D03*
G01*
X1358900Y6604000D03*
G01*
X1104900Y6604000D03*
G01*
X850900Y6604000D03*
D11*
G01*
X3086100Y6604000D03*
D12*
G01*
X3340100Y6604000D03*
G01*
X3594100Y6604000D03*
D13*
G01*
X3505200Y2362200D03*
D14*
G01*
X3505200Y2108200D03*
D13*
G01*
X3505200Y4584700D03*
D14*
G01*
X3505200Y4330700D03*
D13*
G01*
X3505200Y6299200D03*
D14*
G01*
X3505200Y6045200D03*
D13*
G01*
X3505200Y1803400D03*
D14*
G01*
X3505200Y1549400D03*
D15*
G01*
X3505200Y2717800D03*
D16*
G01*
X3505200Y2971800D03*
G01*
X3505200Y3225800D03*
G01*
X3505200Y3479800D03*
G01*
X3505200Y3733800D03*
G01*
X3505200Y3987800D03*
D17*
G01*
X749300Y6134100D03*
G01*
X749300Y5880100D03*
G01*
X749300Y5626100D03*
G01*
X749300Y5372100D03*
G01*
X749300Y5118100D03*
G01*
X749300Y4864100D03*
G01*
X749300Y4610100D03*
G01*
X749300Y4356100D03*
G01*
X749300Y4102100D03*
G01*
X749300Y3848100D03*
G01*
X749300Y3594100D03*
G01*
X749300Y3340100D03*
G01*
X749300Y3086100D03*
G01*
X749300Y2832100D03*
G01*
X749300Y2578100D03*
G01*
X749300Y2324100D03*
G01*
X749300Y2070100D03*
G01*
X749300Y1816100D03*
G01*
X749300Y1562100D03*
G01*
X3035300Y1562100D03*
G01*
X3035300Y1816100D03*
G01*
X3035300Y2070100D03*
G01*
X3035300Y2324100D03*
G01*
X3035300Y2578100D03*
G01*
X3035300Y2832100D03*
G01*
X3035300Y3086100D03*
G01*
X3035300Y3340100D03*
G01*
X3035300Y3594100D03*
G01*
X3035300Y3848100D03*
G01*
X3035300Y4102100D03*
G01*
X3035300Y4356100D03*
G01*
X3035300Y4610100D03*
G01*
X3035300Y4864100D03*
G01*
X3035300Y5118100D03*
G01*
X3035300Y5372100D03*
G01*
X3035300Y5626100D03*
G01*
X3035300Y5880100D03*
G01*
X3035300Y6134100D03*
M02*
