G04 Layer: TopLayer*
G04 EasyEDA v6.5.22, 2023-01-05 13:27:54*
G04 3fff428916324e5da58f8526390e409d,db865e68f4bc4fd99aa1dd1697a786d6,10*
G04 Gerber Generator version 0.2*
G04 Scale: 100 percent, Rotated: No, Reflected: No *
G04 Dimensions in millimeters *
G04 leading zeros omitted , absolute positions ,4 integer and 5 decimal *
%FSLAX45Y45*%
%MOMM*%

%ADD10C,0.3500*%
%ADD11C,1.5240*%
%ADD12R,1.5000X1.5000*%
%ADD13C,1.5000*%
%ADD14R,1.6510X1.6510*%
%ADD15C,1.6510*%
%ADD16R,1.5240X1.5240*%
%ADD17C,0.6100*%
%ADD18C,0.0153*%

%LPD*%
G36*
X582168Y1283208D02*
G01*
X578256Y1283970D01*
X575005Y1286205D01*
X572770Y1289456D01*
X572008Y1293368D01*
X572008Y6860031D01*
X572770Y6863943D01*
X575005Y6867194D01*
X578256Y6869430D01*
X582168Y6870192D01*
X3812032Y6870192D01*
X3815892Y6869430D01*
X3819194Y6867194D01*
X3821429Y6863943D01*
X3822192Y6860031D01*
X3822192Y1293368D01*
X3821429Y1289456D01*
X3819194Y1286205D01*
X3815892Y1283970D01*
X3812032Y1283208D01*
G37*

%LPC*%
G36*
X3505200Y1440942D02*
G01*
X3519373Y1441907D01*
X3533241Y1444650D01*
X3546703Y1449222D01*
X3559403Y1455470D01*
X3571189Y1463395D01*
X3581857Y1472742D01*
X3591204Y1483410D01*
X3599129Y1495196D01*
X3605377Y1507896D01*
X3609949Y1521358D01*
X3612692Y1535226D01*
X3613658Y1549400D01*
X3612692Y1563573D01*
X3609949Y1577441D01*
X3605377Y1590903D01*
X3599129Y1603603D01*
X3591204Y1615389D01*
X3581857Y1626057D01*
X3571189Y1635404D01*
X3559403Y1643329D01*
X3546703Y1649577D01*
X3533241Y1654149D01*
X3519373Y1656892D01*
X3505200Y1657857D01*
X3491026Y1656892D01*
X3477158Y1654149D01*
X3471722Y1652320D01*
X3468014Y1651762D01*
X3464356Y1652625D01*
X3461258Y1654759D01*
X3438398Y1677619D01*
X3436213Y1680870D01*
X3435400Y1684782D01*
X3436213Y1688693D01*
X3438398Y1691944D01*
X3441700Y1694180D01*
X3445560Y1694942D01*
X3457600Y1694942D01*
X3457600Y1755749D01*
X3430015Y1755749D01*
X3426104Y1756562D01*
X3422853Y1758746D01*
X3420618Y1762048D01*
X3419856Y1765909D01*
X3419856Y1840839D01*
X3420618Y1844751D01*
X3422853Y1848053D01*
X3426104Y1850237D01*
X3430015Y1850999D01*
X3457600Y1850999D01*
X3457600Y1911857D01*
X3430015Y1911857D01*
X3426104Y1912620D01*
X3422853Y1914855D01*
X3420618Y1918106D01*
X3419856Y1922018D01*
X3419856Y2016709D01*
X3420567Y2020468D01*
X3422700Y2023719D01*
X3425799Y2025954D01*
X3429558Y2026869D01*
X3433368Y2026310D01*
X3436721Y2024329D01*
X3439210Y2022195D01*
X3450996Y2014270D01*
X3463696Y2008022D01*
X3477158Y2003450D01*
X3491026Y2000707D01*
X3505200Y1999742D01*
X3519373Y2000707D01*
X3533241Y2003450D01*
X3546703Y2008022D01*
X3559403Y2014270D01*
X3571189Y2022195D01*
X3581857Y2031542D01*
X3591204Y2042210D01*
X3599129Y2053996D01*
X3605377Y2066696D01*
X3609949Y2080158D01*
X3612692Y2094026D01*
X3613658Y2108200D01*
X3612692Y2122373D01*
X3609949Y2136241D01*
X3605377Y2149703D01*
X3599129Y2162403D01*
X3591204Y2174189D01*
X3581857Y2184857D01*
X3571189Y2194204D01*
X3559403Y2202129D01*
X3546703Y2208377D01*
X3533241Y2212949D01*
X3519373Y2215692D01*
X3505200Y2216658D01*
X3491026Y2215692D01*
X3477158Y2212949D01*
X3463696Y2208377D01*
X3450996Y2202129D01*
X3439210Y2194204D01*
X3436721Y2192070D01*
X3433368Y2190089D01*
X3429558Y2189530D01*
X3425799Y2190445D01*
X3422700Y2192680D01*
X3420567Y2195931D01*
X3419856Y2199690D01*
X3419856Y2243582D01*
X3420618Y2247493D01*
X3422853Y2250744D01*
X3426104Y2252980D01*
X3430015Y2253742D01*
X3457600Y2253742D01*
X3457600Y2314549D01*
X3430015Y2314549D01*
X3426104Y2315362D01*
X3422853Y2317546D01*
X3420618Y2320848D01*
X3419856Y2324709D01*
X3419856Y2399639D01*
X3420618Y2403551D01*
X3422853Y2406853D01*
X3426104Y2409037D01*
X3430015Y2409799D01*
X3457600Y2409799D01*
X3457600Y2470658D01*
X3430015Y2470658D01*
X3426104Y2471420D01*
X3422853Y2473655D01*
X3420618Y2476906D01*
X3419856Y2480818D01*
X3419856Y2605532D01*
X3420618Y2609443D01*
X3422853Y2612694D01*
X3426104Y2614930D01*
X3430015Y2615692D01*
X3460750Y2615692D01*
X3460750Y2673350D01*
X3430015Y2673350D01*
X3426104Y2674112D01*
X3422853Y2676347D01*
X3420618Y2679598D01*
X3419856Y2683510D01*
X3419856Y2752090D01*
X3420618Y2756001D01*
X3422853Y2759252D01*
X3426104Y2761488D01*
X3430015Y2762250D01*
X3460750Y2762250D01*
X3460750Y2819908D01*
X3430015Y2819908D01*
X3426104Y2820670D01*
X3422853Y2822905D01*
X3420618Y2826156D01*
X3419856Y2830068D01*
X3419856Y2888437D01*
X3420872Y2892856D01*
X3423665Y2896362D01*
X3427729Y2898343D01*
X3432251Y2898343D01*
X3436315Y2896412D01*
X3447440Y2887624D01*
X3459175Y2880664D01*
X3471722Y2875381D01*
X3484879Y2871774D01*
X3498392Y2869946D01*
X3512007Y2869946D01*
X3525520Y2871774D01*
X3538677Y2875381D01*
X3551224Y2880664D01*
X3562959Y2887624D01*
X3573678Y2896108D01*
X3583178Y2905912D01*
X3591255Y2916885D01*
X3597808Y2928823D01*
X3602685Y2941574D01*
X3605885Y2954832D01*
X3607206Y2968396D01*
X3606749Y2982010D01*
X3604514Y2995472D01*
X3602939Y3000502D01*
X3602532Y3004108D01*
X3603396Y3007664D01*
X3605479Y3010662D01*
X3742994Y3148228D01*
X3748024Y3154934D01*
X3751579Y3162096D01*
X3753764Y3169767D01*
X3754577Y3178200D01*
X3754526Y5015433D01*
X3753358Y5023662D01*
X3750818Y5031282D01*
X3746906Y5038242D01*
X3741521Y5044795D01*
X3605479Y5180838D01*
X3603447Y5183733D01*
X3602532Y5187137D01*
X3602837Y5190693D01*
X3605225Y5199380D01*
X3607054Y5212892D01*
X3607054Y5226507D01*
X3605225Y5240020D01*
X3602837Y5248706D01*
X3602532Y5252262D01*
X3603447Y5255666D01*
X3605479Y5258562D01*
X3672128Y5325313D01*
X3677158Y5331968D01*
X3680764Y5339130D01*
X3682949Y5346852D01*
X3683711Y5355285D01*
X3683660Y5911748D01*
X3682492Y5920028D01*
X3679951Y5927598D01*
X3676091Y5934608D01*
X3670655Y5941110D01*
X3610559Y6001258D01*
X3608425Y6004356D01*
X3607562Y6008014D01*
X3608120Y6011722D01*
X3609949Y6017158D01*
X3612692Y6031026D01*
X3613658Y6045200D01*
X3612692Y6059373D01*
X3609949Y6073241D01*
X3608120Y6078677D01*
X3607562Y6082385D01*
X3608425Y6086043D01*
X3610559Y6089142D01*
X3662273Y6140958D01*
X3667302Y6147612D01*
X3670909Y6154775D01*
X3673094Y6162497D01*
X3673856Y6170930D01*
X3673856Y6539179D01*
X3674313Y6542176D01*
X3675634Y6544919D01*
X3680917Y6552590D01*
X3686962Y6564630D01*
X3691382Y6577330D01*
X3694074Y6590538D01*
X3694988Y6604000D01*
X3694074Y6617462D01*
X3691382Y6630670D01*
X3686962Y6643370D01*
X3680917Y6655409D01*
X3673297Y6666534D01*
X3664254Y6676542D01*
X3653942Y6685229D01*
X3642563Y6692493D01*
X3630371Y6698132D01*
X3617468Y6702145D01*
X3604209Y6704380D01*
X3590747Y6704838D01*
X3577336Y6703466D01*
X3564229Y6700367D01*
X3551631Y6695490D01*
X3539794Y6689039D01*
X3528974Y6681063D01*
X3519271Y6671665D01*
X3510940Y6661099D01*
X3504082Y6649516D01*
X3498799Y6637070D01*
X3495243Y6624116D01*
X3493465Y6610756D01*
X3493465Y6597243D01*
X3495243Y6583883D01*
X3498799Y6570929D01*
X3504082Y6558483D01*
X3510940Y6546900D01*
X3519271Y6536334D01*
X3528974Y6526936D01*
X3539794Y6518960D01*
X3551631Y6512509D01*
X3564229Y6507632D01*
X3577894Y6504482D01*
X3581450Y6503416D01*
X3584397Y6501180D01*
X3586378Y6497980D01*
X3587038Y6494373D01*
X3587038Y6417818D01*
X3586276Y6413906D01*
X3584041Y6410655D01*
X3580790Y6408420D01*
X3576878Y6407658D01*
X3552850Y6407658D01*
X3552850Y6346799D01*
X3576878Y6346799D01*
X3580790Y6346037D01*
X3584041Y6343853D01*
X3586276Y6340551D01*
X3587038Y6336639D01*
X3587038Y6261709D01*
X3586276Y6257848D01*
X3584041Y6254546D01*
X3580790Y6252362D01*
X3576878Y6251549D01*
X3552850Y6251549D01*
X3552850Y6190742D01*
X3564839Y6190742D01*
X3568700Y6189980D01*
X3572001Y6187744D01*
X3574186Y6184493D01*
X3574999Y6180582D01*
X3574186Y6176670D01*
X3572001Y6173419D01*
X3549142Y6150559D01*
X3546043Y6148425D01*
X3542385Y6147562D01*
X3538677Y6148120D01*
X3533241Y6149949D01*
X3519373Y6152692D01*
X3505200Y6153658D01*
X3491026Y6152692D01*
X3477158Y6149949D01*
X3463696Y6145377D01*
X3450996Y6139129D01*
X3439210Y6131204D01*
X3428542Y6121857D01*
X3419195Y6111189D01*
X3411270Y6099403D01*
X3405022Y6086703D01*
X3400450Y6073241D01*
X3397707Y6059373D01*
X3396742Y6045200D01*
X3397707Y6031026D01*
X3400450Y6017158D01*
X3405022Y6003696D01*
X3411270Y5990996D01*
X3419195Y5979210D01*
X3428542Y5968542D01*
X3439210Y5959195D01*
X3450996Y5951270D01*
X3463696Y5945022D01*
X3477158Y5940450D01*
X3491026Y5937707D01*
X3505200Y5936742D01*
X3519373Y5937707D01*
X3533241Y5940450D01*
X3538677Y5942279D01*
X3542385Y5942838D01*
X3546043Y5941974D01*
X3549142Y5939840D01*
X3593896Y5895086D01*
X3596132Y5891784D01*
X3596894Y5887923D01*
X3596894Y5804662D01*
X3596132Y5800801D01*
X3593947Y5797550D01*
X3590696Y5795314D01*
X3586835Y5794502D01*
X3582974Y5795264D01*
X3579672Y5797397D01*
X3571087Y5805678D01*
X3560114Y5813755D01*
X3548176Y5820308D01*
X3535426Y5825185D01*
X3522167Y5828385D01*
X3508603Y5829706D01*
X3494989Y5829249D01*
X3481527Y5827014D01*
X3468522Y5822950D01*
X3456127Y5817209D01*
X3444646Y5809894D01*
X3434232Y5801106D01*
X3425088Y5790946D01*
X3417366Y5779719D01*
X3411220Y5767578D01*
X3406749Y5754674D01*
X3404006Y5741314D01*
X3403092Y5727700D01*
X3404006Y5714085D01*
X3406749Y5700725D01*
X3411220Y5687822D01*
X3417366Y5675680D01*
X3425088Y5664454D01*
X3434232Y5654294D01*
X3444646Y5645505D01*
X3456127Y5638190D01*
X3468522Y5632450D01*
X3481527Y5628386D01*
X3494989Y5626150D01*
X3508603Y5625693D01*
X3522167Y5627014D01*
X3535426Y5630214D01*
X3548176Y5635091D01*
X3560114Y5641644D01*
X3571087Y5649722D01*
X3579672Y5658002D01*
X3582974Y5660136D01*
X3586835Y5660898D01*
X3590696Y5660085D01*
X3593947Y5657850D01*
X3596132Y5654598D01*
X3596894Y5650738D01*
X3596894Y5550662D01*
X3596132Y5546801D01*
X3593947Y5543550D01*
X3590696Y5541314D01*
X3586835Y5540502D01*
X3582974Y5541264D01*
X3579672Y5543397D01*
X3571087Y5551678D01*
X3560114Y5559755D01*
X3548176Y5566308D01*
X3535426Y5571185D01*
X3522167Y5574385D01*
X3508603Y5575706D01*
X3494989Y5575249D01*
X3481527Y5573014D01*
X3468522Y5568950D01*
X3456127Y5563209D01*
X3444646Y5555894D01*
X3434232Y5547106D01*
X3430828Y5543296D01*
X3427780Y5541010D01*
X3424072Y5539994D01*
X3420313Y5540400D01*
X3416909Y5542178D01*
X3414471Y5545124D01*
X3413201Y5548731D01*
X3412286Y5555234D01*
X3409746Y5562803D01*
X3405886Y5569813D01*
X3400450Y5576316D01*
X3135680Y5841136D01*
X3133547Y5844235D01*
X3132683Y5847943D01*
X3136493Y5866485D01*
X3137408Y5880100D01*
X3136493Y5893714D01*
X3133750Y5907074D01*
X3129280Y5919978D01*
X3123133Y5932119D01*
X3115411Y5943346D01*
X3106267Y5953506D01*
X3095853Y5962294D01*
X3084372Y5969609D01*
X3071977Y5975350D01*
X3058972Y5979414D01*
X3045510Y5981649D01*
X3031896Y5982106D01*
X3018332Y5980785D01*
X3005074Y5977585D01*
X2992323Y5972708D01*
X2980385Y5966155D01*
X2969412Y5958078D01*
X2959608Y5948578D01*
X2951124Y5937859D01*
X2944164Y5926124D01*
X2938881Y5913577D01*
X2935274Y5900420D01*
X2933446Y5886907D01*
X2933446Y5873292D01*
X2935274Y5859780D01*
X2938881Y5846622D01*
X2944164Y5834075D01*
X2951124Y5822340D01*
X2959608Y5811621D01*
X2969412Y5802122D01*
X2980385Y5794044D01*
X2992323Y5787491D01*
X3005074Y5782614D01*
X3018332Y5779414D01*
X3031896Y5778093D01*
X3045510Y5778550D01*
X3058972Y5780786D01*
X3064002Y5782360D01*
X3067608Y5782767D01*
X3071164Y5781903D01*
X3074162Y5779820D01*
X3323691Y5530291D01*
X3325926Y5526989D01*
X3326688Y5523128D01*
X3326739Y3867251D01*
X3327908Y3858971D01*
X3330448Y3851401D01*
X3334308Y3844391D01*
X3339744Y3837889D01*
X3404920Y3772662D01*
X3407003Y3769664D01*
X3407867Y3766108D01*
X3407460Y3762501D01*
X3405886Y3757472D01*
X3403650Y3744010D01*
X3403193Y3730396D01*
X3404514Y3716832D01*
X3407714Y3703574D01*
X3412591Y3690823D01*
X3419144Y3678885D01*
X3427679Y3667455D01*
X3429812Y3664102D01*
X3430524Y3660241D01*
X3429762Y3656380D01*
X3427526Y3653129D01*
X3424224Y3650996D01*
X3420364Y3650183D01*
X3400298Y3650183D01*
X3396386Y3650996D01*
X3393084Y3653180D01*
X3293313Y3752951D01*
X3286607Y3757980D01*
X3279444Y3761536D01*
X3271774Y3763721D01*
X3263341Y3764483D01*
X3119932Y3764483D01*
X3116122Y3765245D01*
X3112871Y3767378D01*
X3110636Y3770528D01*
X3109772Y3774338D01*
X3110382Y3778148D01*
X3112363Y3781501D01*
X3115411Y3784854D01*
X3123133Y3796080D01*
X3129280Y3808222D01*
X3133750Y3821125D01*
X3136493Y3834485D01*
X3137408Y3848100D01*
X3136493Y3861714D01*
X3133750Y3875074D01*
X3129280Y3887978D01*
X3123133Y3900119D01*
X3115411Y3911346D01*
X3106267Y3921506D01*
X3095853Y3930294D01*
X3084372Y3937609D01*
X3071977Y3943350D01*
X3058972Y3947414D01*
X3045510Y3949649D01*
X3031896Y3950106D01*
X3018332Y3948785D01*
X3005074Y3945585D01*
X2992323Y3940708D01*
X2980385Y3934155D01*
X2969412Y3926078D01*
X2959608Y3916578D01*
X2951124Y3905859D01*
X2944164Y3894124D01*
X2938881Y3881577D01*
X2935274Y3868420D01*
X2933446Y3854907D01*
X2933446Y3841292D01*
X2935274Y3827779D01*
X2938881Y3814622D01*
X2944164Y3802075D01*
X2951124Y3790340D01*
X2959608Y3779621D01*
X2967990Y3771493D01*
X2970377Y3767937D01*
X2971088Y3763772D01*
X2970072Y3759657D01*
X2967431Y3756355D01*
X2961538Y3751478D01*
X2875381Y3665220D01*
X2870352Y3658565D01*
X2866796Y3651402D01*
X2864561Y3643680D01*
X2863799Y3635248D01*
X2863850Y2704541D01*
X2865018Y2696260D01*
X2867558Y2688691D01*
X2871419Y2681681D01*
X2876854Y2675178D01*
X2935020Y2616962D01*
X2937052Y2614066D01*
X2937967Y2610662D01*
X2937662Y2607106D01*
X2935274Y2598420D01*
X2933446Y2584907D01*
X2933446Y2571292D01*
X2935274Y2557780D01*
X2938881Y2544622D01*
X2944164Y2532075D01*
X2951124Y2520340D01*
X2959608Y2509621D01*
X2969412Y2500122D01*
X2980385Y2492044D01*
X2992323Y2485491D01*
X3005074Y2480614D01*
X3018332Y2477414D01*
X3031896Y2476093D01*
X3045510Y2476550D01*
X3058972Y2478786D01*
X3071977Y2482850D01*
X3084372Y2488590D01*
X3095853Y2495905D01*
X3106267Y2504694D01*
X3115411Y2514854D01*
X3123133Y2526080D01*
X3129280Y2538222D01*
X3133750Y2551125D01*
X3136493Y2564485D01*
X3137408Y2578100D01*
X3136493Y2591714D01*
X3133750Y2605074D01*
X3129280Y2617978D01*
X3123133Y2630119D01*
X3115411Y2641346D01*
X3106267Y2651506D01*
X3095853Y2660294D01*
X3084372Y2667609D01*
X3071977Y2673350D01*
X3058972Y2677414D01*
X3045510Y2679649D01*
X3031896Y2680106D01*
X3018332Y2678785D01*
X3005836Y2675788D01*
X3002432Y2675585D01*
X2999130Y2676499D01*
X2996285Y2678480D01*
X2953613Y2721203D01*
X2951378Y2724505D01*
X2950616Y2728366D01*
X2950616Y2748330D01*
X2951378Y2752191D01*
X2953562Y2755493D01*
X2956814Y2757678D01*
X2960674Y2758490D01*
X2964535Y2757779D01*
X2967837Y2755646D01*
X2969412Y2754122D01*
X2980385Y2746044D01*
X2992323Y2739491D01*
X3005074Y2734614D01*
X3018332Y2731414D01*
X3031896Y2730093D01*
X3045510Y2730550D01*
X3058972Y2732786D01*
X3071977Y2736850D01*
X3084372Y2742590D01*
X3095853Y2749905D01*
X3106267Y2758694D01*
X3115411Y2768854D01*
X3123133Y2780080D01*
X3129280Y2792222D01*
X3133750Y2805125D01*
X3136493Y2818485D01*
X3137408Y2832100D01*
X3136493Y2845714D01*
X3133750Y2859074D01*
X3129280Y2871978D01*
X3123133Y2884119D01*
X3115411Y2895346D01*
X3106267Y2905506D01*
X3095853Y2914294D01*
X3084372Y2921609D01*
X3071977Y2927350D01*
X3058972Y2931414D01*
X3045510Y2933649D01*
X3031896Y2934106D01*
X3018332Y2932785D01*
X3005074Y2929585D01*
X2992323Y2924708D01*
X2980385Y2918155D01*
X2969412Y2910078D01*
X2967837Y2908554D01*
X2964535Y2906420D01*
X2960674Y2905709D01*
X2956814Y2906522D01*
X2953562Y2908706D01*
X2951378Y2912008D01*
X2950616Y2915869D01*
X2950616Y3002330D01*
X2951378Y3006191D01*
X2953562Y3009493D01*
X2956814Y3011678D01*
X2960674Y3012490D01*
X2964535Y3011779D01*
X2967837Y3009646D01*
X2969412Y3008122D01*
X2980385Y3000044D01*
X2992323Y2993491D01*
X3005074Y2988614D01*
X3018332Y2985414D01*
X3031896Y2984093D01*
X3045510Y2984550D01*
X3058972Y2986786D01*
X3071977Y2990850D01*
X3084372Y2996590D01*
X3095853Y3003905D01*
X3106267Y3012694D01*
X3115411Y3022854D01*
X3123133Y3034080D01*
X3129280Y3046222D01*
X3133750Y3059125D01*
X3136493Y3072485D01*
X3137408Y3086100D01*
X3136493Y3099714D01*
X3133750Y3113074D01*
X3129280Y3125978D01*
X3123133Y3138119D01*
X3115411Y3149346D01*
X3106267Y3159506D01*
X3095853Y3168294D01*
X3084372Y3175609D01*
X3071977Y3181350D01*
X3058972Y3185414D01*
X3045510Y3187649D01*
X3031896Y3188106D01*
X3018332Y3186785D01*
X3005074Y3183585D01*
X2992323Y3178708D01*
X2980385Y3172155D01*
X2969412Y3164078D01*
X2967837Y3162554D01*
X2964535Y3160420D01*
X2960674Y3159709D01*
X2956814Y3160522D01*
X2953562Y3162706D01*
X2951378Y3166008D01*
X2950616Y3169869D01*
X2950616Y3256330D01*
X2951378Y3260191D01*
X2953562Y3263493D01*
X2956814Y3265678D01*
X2960674Y3266490D01*
X2964535Y3265779D01*
X2967837Y3263646D01*
X2969412Y3262122D01*
X2980385Y3254044D01*
X2992323Y3247491D01*
X3005074Y3242614D01*
X3018332Y3239414D01*
X3031896Y3238093D01*
X3045510Y3238550D01*
X3058972Y3240786D01*
X3071977Y3244850D01*
X3084372Y3250590D01*
X3095853Y3257905D01*
X3106267Y3266694D01*
X3115411Y3276854D01*
X3123133Y3288080D01*
X3129280Y3300222D01*
X3133750Y3313125D01*
X3136493Y3326485D01*
X3137408Y3340100D01*
X3136493Y3353714D01*
X3133750Y3367074D01*
X3129280Y3379978D01*
X3123133Y3392119D01*
X3115411Y3403346D01*
X3106267Y3413506D01*
X3095853Y3422294D01*
X3084372Y3429609D01*
X3071977Y3435350D01*
X3058972Y3439414D01*
X3045510Y3441649D01*
X3031896Y3442106D01*
X3018332Y3440785D01*
X3005074Y3437585D01*
X2992323Y3432708D01*
X2980385Y3426155D01*
X2969412Y3418078D01*
X2967837Y3416554D01*
X2964535Y3414420D01*
X2960674Y3413709D01*
X2956814Y3414522D01*
X2953562Y3416706D01*
X2951378Y3420008D01*
X2950616Y3423869D01*
X2950616Y3510330D01*
X2951378Y3514191D01*
X2953562Y3517493D01*
X2956814Y3519678D01*
X2960674Y3520490D01*
X2964535Y3519779D01*
X2967837Y3517646D01*
X2969412Y3516122D01*
X2980385Y3508044D01*
X2992323Y3501491D01*
X3005074Y3496614D01*
X3018332Y3493414D01*
X3031896Y3492093D01*
X3045510Y3492550D01*
X3058972Y3494786D01*
X3064002Y3496360D01*
X3067608Y3496767D01*
X3071164Y3495903D01*
X3074162Y3493820D01*
X3330041Y3237941D01*
X3332276Y3234639D01*
X3333038Y3230778D01*
X3333089Y1676501D01*
X3334258Y1668221D01*
X3336798Y1660652D01*
X3340658Y1653641D01*
X3346094Y1647139D01*
X3399840Y1593342D01*
X3401974Y1590243D01*
X3402837Y1586585D01*
X3402279Y1582877D01*
X3400450Y1577441D01*
X3397707Y1563573D01*
X3396742Y1549400D01*
X3397707Y1535226D01*
X3400450Y1521358D01*
X3405022Y1507896D01*
X3411270Y1495196D01*
X3419195Y1483410D01*
X3428542Y1472742D01*
X3439210Y1463395D01*
X3450996Y1455470D01*
X3463696Y1449222D01*
X3477158Y1444650D01*
X3491026Y1441907D01*
G37*
G36*
X745896Y1460093D02*
G01*
X759510Y1460550D01*
X772972Y1462786D01*
X785977Y1466850D01*
X798372Y1472590D01*
X809853Y1479905D01*
X820267Y1488694D01*
X829411Y1498854D01*
X837133Y1510080D01*
X843280Y1522222D01*
X847750Y1535125D01*
X850493Y1548485D01*
X851408Y1562100D01*
X850493Y1575714D01*
X847750Y1589074D01*
X843280Y1601978D01*
X837133Y1614119D01*
X829411Y1625346D01*
X820267Y1635506D01*
X809853Y1644294D01*
X798372Y1651609D01*
X785977Y1657350D01*
X772972Y1661414D01*
X759510Y1663649D01*
X745896Y1664106D01*
X732332Y1662785D01*
X719074Y1659585D01*
X706323Y1654708D01*
X694385Y1648155D01*
X683412Y1640078D01*
X673608Y1630578D01*
X665124Y1619859D01*
X658164Y1608124D01*
X652881Y1595577D01*
X649274Y1582420D01*
X647446Y1568907D01*
X647446Y1555292D01*
X649274Y1541780D01*
X652881Y1528622D01*
X658164Y1516075D01*
X665124Y1504340D01*
X673608Y1493621D01*
X683412Y1484122D01*
X694385Y1476044D01*
X706323Y1469491D01*
X719074Y1464614D01*
X732332Y1461414D01*
G37*
G36*
X3031896Y1460093D02*
G01*
X3045510Y1460550D01*
X3058972Y1462786D01*
X3071977Y1466850D01*
X3084372Y1472590D01*
X3095853Y1479905D01*
X3106267Y1488694D01*
X3115411Y1498854D01*
X3123133Y1510080D01*
X3129280Y1522222D01*
X3133750Y1535125D01*
X3136493Y1548485D01*
X3137408Y1562100D01*
X3136493Y1575714D01*
X3133750Y1589074D01*
X3129280Y1601978D01*
X3123133Y1614119D01*
X3115411Y1625346D01*
X3106267Y1635506D01*
X3095853Y1644294D01*
X3084372Y1651609D01*
X3071977Y1657350D01*
X3058972Y1661414D01*
X3045510Y1663649D01*
X3031896Y1664106D01*
X3018332Y1662785D01*
X3005074Y1659585D01*
X2992323Y1654708D01*
X2980385Y1648155D01*
X2969412Y1640078D01*
X2959608Y1630578D01*
X2951124Y1619859D01*
X2944164Y1608124D01*
X2938881Y1595577D01*
X2935274Y1582420D01*
X2933446Y1568907D01*
X2933446Y1555292D01*
X2935274Y1541780D01*
X2938881Y1528622D01*
X2944164Y1516075D01*
X2951124Y1504340D01*
X2959608Y1493621D01*
X2969412Y1484122D01*
X2980385Y1476044D01*
X2992323Y1469491D01*
X3005074Y1464614D01*
X3018332Y1461414D01*
G37*
G36*
X3552850Y1694942D02*
G01*
X3587191Y1694942D01*
X3593490Y1695653D01*
X3598976Y1697583D01*
X3603853Y1700631D01*
X3607968Y1704746D01*
X3611016Y1709623D01*
X3612946Y1715109D01*
X3613658Y1721408D01*
X3613658Y1755749D01*
X3552850Y1755749D01*
G37*
G36*
X745896Y1714093D02*
G01*
X759510Y1714550D01*
X772972Y1716786D01*
X785977Y1720850D01*
X798372Y1726590D01*
X809853Y1733905D01*
X820267Y1742693D01*
X829411Y1752854D01*
X837133Y1764080D01*
X843280Y1776222D01*
X847750Y1789125D01*
X850493Y1802485D01*
X851408Y1816100D01*
X850493Y1829714D01*
X847750Y1843074D01*
X843280Y1855978D01*
X837133Y1868119D01*
X829411Y1879346D01*
X820267Y1889506D01*
X809853Y1898294D01*
X798372Y1905609D01*
X785977Y1911350D01*
X772972Y1915414D01*
X759510Y1917649D01*
X745896Y1918106D01*
X732332Y1916785D01*
X719074Y1913585D01*
X706323Y1908708D01*
X694385Y1902155D01*
X683412Y1894078D01*
X673608Y1884578D01*
X665124Y1873859D01*
X658164Y1862124D01*
X652881Y1849577D01*
X649274Y1836420D01*
X647446Y1822907D01*
X647446Y1809292D01*
X649274Y1795780D01*
X652881Y1782622D01*
X658164Y1770075D01*
X665124Y1758340D01*
X673608Y1747621D01*
X683412Y1738122D01*
X694385Y1730044D01*
X706323Y1723491D01*
X719074Y1718614D01*
X732332Y1715414D01*
G37*
G36*
X3031896Y1714093D02*
G01*
X3045510Y1714550D01*
X3058972Y1716786D01*
X3071977Y1720850D01*
X3084372Y1726590D01*
X3095853Y1733905D01*
X3106267Y1742693D01*
X3115411Y1752854D01*
X3123133Y1764080D01*
X3129280Y1776222D01*
X3133750Y1789125D01*
X3136493Y1802485D01*
X3137408Y1816100D01*
X3136493Y1829714D01*
X3133750Y1843074D01*
X3129280Y1855978D01*
X3123133Y1868119D01*
X3115411Y1879346D01*
X3106267Y1889506D01*
X3095853Y1898294D01*
X3084372Y1905609D01*
X3071977Y1911350D01*
X3058972Y1915414D01*
X3045510Y1917649D01*
X3031896Y1918106D01*
X3018332Y1916785D01*
X3005074Y1913585D01*
X2992323Y1908708D01*
X2980385Y1902155D01*
X2969412Y1894078D01*
X2959608Y1884578D01*
X2951124Y1873859D01*
X2944164Y1862124D01*
X2938881Y1849577D01*
X2935274Y1836420D01*
X2933446Y1822907D01*
X2933446Y1809292D01*
X2935274Y1795780D01*
X2938881Y1782622D01*
X2944164Y1770075D01*
X2951124Y1758340D01*
X2959608Y1747621D01*
X2969412Y1738122D01*
X2980385Y1730044D01*
X2992323Y1723491D01*
X3005074Y1718614D01*
X3018332Y1715414D01*
G37*
G36*
X3552850Y1850999D02*
G01*
X3613658Y1850999D01*
X3613658Y1885391D01*
X3612946Y1891690D01*
X3611016Y1897176D01*
X3607968Y1902053D01*
X3603853Y1906168D01*
X3598976Y1909216D01*
X3593490Y1911146D01*
X3587191Y1911857D01*
X3552850Y1911857D01*
G37*
G36*
X745896Y1968093D02*
G01*
X759510Y1968550D01*
X772972Y1970786D01*
X785977Y1974850D01*
X798372Y1980590D01*
X809853Y1987905D01*
X820267Y1996693D01*
X829411Y2006854D01*
X837133Y2018080D01*
X843280Y2030222D01*
X847750Y2043125D01*
X850493Y2056485D01*
X851408Y2070100D01*
X850493Y2083714D01*
X847750Y2097074D01*
X843280Y2109978D01*
X837133Y2122119D01*
X829411Y2133346D01*
X820267Y2143506D01*
X809853Y2152294D01*
X798372Y2159609D01*
X785977Y2165350D01*
X772972Y2169414D01*
X759510Y2171649D01*
X745896Y2172106D01*
X732332Y2170785D01*
X719074Y2167585D01*
X706323Y2162708D01*
X694385Y2156155D01*
X683412Y2148078D01*
X673608Y2138578D01*
X665124Y2127859D01*
X658164Y2116124D01*
X652881Y2103577D01*
X649274Y2090420D01*
X647446Y2076907D01*
X647446Y2063292D01*
X649274Y2049780D01*
X652881Y2036622D01*
X658164Y2024075D01*
X665124Y2012340D01*
X673608Y2001621D01*
X683412Y1992122D01*
X694385Y1984044D01*
X706323Y1977491D01*
X719074Y1972614D01*
X732332Y1969414D01*
G37*
G36*
X3031896Y1968093D02*
G01*
X3045510Y1968550D01*
X3058972Y1970786D01*
X3071977Y1974850D01*
X3084372Y1980590D01*
X3095853Y1987905D01*
X3106267Y1996693D01*
X3115411Y2006854D01*
X3123133Y2018080D01*
X3129280Y2030222D01*
X3133750Y2043125D01*
X3136493Y2056485D01*
X3137408Y2070100D01*
X3136493Y2083714D01*
X3133750Y2097074D01*
X3129280Y2109978D01*
X3123133Y2122119D01*
X3115411Y2133346D01*
X3106267Y2143506D01*
X3095853Y2152294D01*
X3084372Y2159609D01*
X3071977Y2165350D01*
X3058972Y2169414D01*
X3045510Y2171649D01*
X3031896Y2172106D01*
X3018332Y2170785D01*
X3005074Y2167585D01*
X2992323Y2162708D01*
X2980385Y2156155D01*
X2969412Y2148078D01*
X2959608Y2138578D01*
X2951124Y2127859D01*
X2944164Y2116124D01*
X2938881Y2103577D01*
X2935274Y2090420D01*
X2933446Y2076907D01*
X2933446Y2063292D01*
X2935274Y2049780D01*
X2938881Y2036622D01*
X2944164Y2024075D01*
X2951124Y2012340D01*
X2959608Y2001621D01*
X2969412Y1992122D01*
X2980385Y1984044D01*
X2992323Y1977491D01*
X3005074Y1972614D01*
X3018332Y1969414D01*
G37*
G36*
X745896Y2222093D02*
G01*
X759510Y2222550D01*
X772972Y2224786D01*
X785977Y2228850D01*
X798372Y2234590D01*
X809853Y2241905D01*
X820267Y2250694D01*
X829411Y2260854D01*
X837133Y2272080D01*
X843280Y2284222D01*
X847750Y2297125D01*
X850493Y2310485D01*
X851408Y2324100D01*
X850493Y2337714D01*
X847750Y2351074D01*
X843280Y2363978D01*
X837133Y2376119D01*
X829411Y2387346D01*
X820267Y2397506D01*
X809853Y2406294D01*
X798372Y2413609D01*
X785977Y2419350D01*
X772972Y2423414D01*
X759510Y2425649D01*
X745896Y2426106D01*
X732332Y2424785D01*
X719074Y2421585D01*
X706323Y2416708D01*
X694385Y2410155D01*
X683412Y2402078D01*
X673608Y2392578D01*
X665124Y2381859D01*
X658164Y2370124D01*
X652881Y2357577D01*
X649274Y2344420D01*
X647446Y2330907D01*
X647446Y2317292D01*
X649274Y2303780D01*
X652881Y2290622D01*
X658164Y2278075D01*
X665124Y2266340D01*
X673608Y2255621D01*
X683412Y2246122D01*
X694385Y2238044D01*
X706323Y2231491D01*
X719074Y2226614D01*
X732332Y2223414D01*
G37*
G36*
X3031896Y2222093D02*
G01*
X3045510Y2222550D01*
X3058972Y2224786D01*
X3071977Y2228850D01*
X3084372Y2234590D01*
X3095853Y2241905D01*
X3106267Y2250694D01*
X3115411Y2260854D01*
X3123133Y2272080D01*
X3129280Y2284222D01*
X3133750Y2297125D01*
X3136493Y2310485D01*
X3137408Y2324100D01*
X3136493Y2337714D01*
X3133750Y2351074D01*
X3129280Y2363978D01*
X3123133Y2376119D01*
X3115411Y2387346D01*
X3106267Y2397506D01*
X3095853Y2406294D01*
X3084372Y2413609D01*
X3071977Y2419350D01*
X3058972Y2423414D01*
X3045510Y2425649D01*
X3031896Y2426106D01*
X3018332Y2424785D01*
X3005074Y2421585D01*
X2992323Y2416708D01*
X2980385Y2410155D01*
X2969412Y2402078D01*
X2959608Y2392578D01*
X2951124Y2381859D01*
X2944164Y2370124D01*
X2938881Y2357577D01*
X2935274Y2344420D01*
X2933446Y2330907D01*
X2933446Y2317292D01*
X2935274Y2303780D01*
X2938881Y2290622D01*
X2944164Y2278075D01*
X2951124Y2266340D01*
X2959608Y2255621D01*
X2969412Y2246122D01*
X2980385Y2238044D01*
X2992323Y2231491D01*
X3005074Y2226614D01*
X3018332Y2223414D01*
G37*
G36*
X3552850Y2253742D02*
G01*
X3587191Y2253742D01*
X3593490Y2254453D01*
X3598976Y2256383D01*
X3603853Y2259431D01*
X3607968Y2263546D01*
X3611016Y2268423D01*
X3612946Y2273909D01*
X3613658Y2280208D01*
X3613658Y2314549D01*
X3552850Y2314549D01*
G37*
G36*
X3552850Y2409799D02*
G01*
X3613658Y2409799D01*
X3613658Y2444191D01*
X3612946Y2450490D01*
X3611016Y2455976D01*
X3607968Y2460853D01*
X3603853Y2464968D01*
X3598976Y2468016D01*
X3593490Y2469946D01*
X3587191Y2470658D01*
X3552850Y2470658D01*
G37*
G36*
X745896Y2476093D02*
G01*
X759510Y2476550D01*
X772972Y2478786D01*
X785977Y2482850D01*
X798372Y2488590D01*
X809853Y2495905D01*
X820267Y2504694D01*
X829411Y2514854D01*
X837133Y2526080D01*
X843280Y2538222D01*
X847750Y2551125D01*
X850493Y2564485D01*
X851408Y2578100D01*
X850493Y2591714D01*
X846683Y2610256D01*
X847547Y2613964D01*
X849680Y2617063D01*
X1726844Y3494278D01*
X1731873Y3500983D01*
X1735429Y3508146D01*
X1737614Y3515817D01*
X1738426Y3524250D01*
X1738426Y4442002D01*
X1738884Y4445050D01*
X1740255Y4447844D01*
X1743811Y4452924D01*
X1747977Y4461814D01*
X1750517Y4471314D01*
X1751380Y4481118D01*
X1750517Y4490923D01*
X1747977Y4500422D01*
X1743811Y4509312D01*
X1738172Y4517339D01*
X1731213Y4524298D01*
X1723186Y4529937D01*
X1714296Y4534103D01*
X1704797Y4536643D01*
X1694992Y4537506D01*
X1685188Y4536643D01*
X1675688Y4534103D01*
X1666798Y4529937D01*
X1658772Y4524298D01*
X1651812Y4517339D01*
X1646174Y4509312D01*
X1642008Y4500422D01*
X1639468Y4490923D01*
X1638604Y4481118D01*
X1639468Y4471314D01*
X1642008Y4461814D01*
X1646174Y4452924D01*
X1649730Y4447844D01*
X1651101Y4445050D01*
X1651609Y4442002D01*
X1651609Y3545992D01*
X1650796Y3542080D01*
X1648612Y3538778D01*
X788162Y2678379D01*
X785164Y2676296D01*
X781608Y2675432D01*
X778002Y2675839D01*
X772972Y2677414D01*
X759510Y2679649D01*
X745896Y2680106D01*
X732332Y2678785D01*
X719074Y2675585D01*
X706323Y2670708D01*
X694385Y2664155D01*
X683412Y2656078D01*
X673608Y2646578D01*
X665124Y2635859D01*
X658164Y2624124D01*
X652881Y2611577D01*
X649274Y2598420D01*
X647446Y2584907D01*
X647446Y2571292D01*
X649274Y2557780D01*
X652881Y2544622D01*
X658164Y2532075D01*
X665124Y2520340D01*
X673608Y2509621D01*
X683412Y2500122D01*
X694385Y2492044D01*
X706323Y2485491D01*
X719074Y2480614D01*
X732332Y2477414D01*
G37*
G36*
X3549650Y2615692D02*
G01*
X3580841Y2615692D01*
X3587140Y2616403D01*
X3592626Y2618333D01*
X3597503Y2621381D01*
X3601618Y2625496D01*
X3604666Y2630373D01*
X3606596Y2635859D01*
X3607308Y2642158D01*
X3607308Y2673350D01*
X3549650Y2673350D01*
G37*
G36*
X745896Y2730093D02*
G01*
X759510Y2730550D01*
X772972Y2732786D01*
X785977Y2736850D01*
X798372Y2742590D01*
X809853Y2749905D01*
X820267Y2758694D01*
X829411Y2768854D01*
X837133Y2780080D01*
X843280Y2792222D01*
X847750Y2805125D01*
X850493Y2818485D01*
X851408Y2832100D01*
X850493Y2845714D01*
X847750Y2859074D01*
X843280Y2871978D01*
X837133Y2884119D01*
X829411Y2895346D01*
X820267Y2905506D01*
X809853Y2914294D01*
X798372Y2921609D01*
X785977Y2927350D01*
X772972Y2931414D01*
X759510Y2933649D01*
X745896Y2934106D01*
X732332Y2932785D01*
X719074Y2929585D01*
X706323Y2924708D01*
X694385Y2918155D01*
X683412Y2910078D01*
X673608Y2900578D01*
X665124Y2889859D01*
X658164Y2878124D01*
X652881Y2865577D01*
X649274Y2852420D01*
X647446Y2838907D01*
X647446Y2825292D01*
X649274Y2811780D01*
X652881Y2798622D01*
X658164Y2786075D01*
X665124Y2774340D01*
X673608Y2763621D01*
X683412Y2754122D01*
X694385Y2746044D01*
X706323Y2739491D01*
X719074Y2734614D01*
X732332Y2731414D01*
G37*
G36*
X3549650Y2762250D02*
G01*
X3607308Y2762250D01*
X3607308Y2793441D01*
X3606596Y2799740D01*
X3604666Y2805226D01*
X3601618Y2810103D01*
X3597503Y2814218D01*
X3592626Y2817266D01*
X3587140Y2819196D01*
X3580841Y2819908D01*
X3549650Y2819908D01*
G37*
G36*
X745896Y2984093D02*
G01*
X759510Y2984550D01*
X772972Y2986786D01*
X785977Y2990850D01*
X798372Y2996590D01*
X809853Y3003905D01*
X820267Y3012694D01*
X829411Y3022854D01*
X837133Y3034080D01*
X843280Y3046222D01*
X847750Y3059125D01*
X850493Y3072485D01*
X851408Y3086100D01*
X850493Y3099714D01*
X846683Y3118256D01*
X847547Y3121964D01*
X849680Y3125063D01*
X916228Y3191713D01*
X921258Y3198368D01*
X924864Y3205530D01*
X927049Y3213252D01*
X927811Y3221685D01*
X927811Y4050029D01*
X928573Y4053890D01*
X930808Y4057192D01*
X2368651Y5495086D01*
X2373680Y5501792D01*
X2377236Y5508955D01*
X2379421Y5516626D01*
X2380234Y5525058D01*
X2380234Y6519265D01*
X2381199Y6523634D01*
X2384044Y6527190D01*
X2388057Y6529171D01*
X2392578Y6529171D01*
X2396642Y6527241D01*
X2406040Y6519824D01*
X2415387Y6514287D01*
X2418080Y6512001D01*
X2419807Y6508953D01*
X2420416Y6505549D01*
X2420416Y5433923D01*
X2421585Y5425694D01*
X2424125Y5418074D01*
X2428036Y5411114D01*
X2433421Y5404561D01*
X2935020Y4902962D01*
X2937052Y4900066D01*
X2937967Y4896662D01*
X2937662Y4893106D01*
X2935274Y4884420D01*
X2933446Y4870907D01*
X2933446Y4857292D01*
X2935274Y4843780D01*
X2938881Y4830622D01*
X2944164Y4818075D01*
X2951124Y4806340D01*
X2959608Y4795621D01*
X2969412Y4786122D01*
X2980385Y4778044D01*
X2992323Y4771491D01*
X3005074Y4766614D01*
X3018332Y4763414D01*
X3031896Y4762093D01*
X3045510Y4762550D01*
X3058972Y4764786D01*
X3071977Y4768850D01*
X3084372Y4774590D01*
X3095853Y4781905D01*
X3106267Y4790694D01*
X3115411Y4800854D01*
X3123133Y4812080D01*
X3129280Y4824222D01*
X3133750Y4837125D01*
X3136493Y4850485D01*
X3137408Y4864100D01*
X3136493Y4877714D01*
X3133750Y4891074D01*
X3129280Y4903978D01*
X3123133Y4916119D01*
X3115411Y4927346D01*
X3106267Y4937506D01*
X3095853Y4946294D01*
X3084372Y4953609D01*
X3071977Y4959350D01*
X3058972Y4963414D01*
X3045510Y4965649D01*
X3031896Y4966106D01*
X3018332Y4964785D01*
X3005836Y4961788D01*
X3002432Y4961585D01*
X2999130Y4962499D01*
X2996285Y4964480D01*
X2510180Y5450586D01*
X2507996Y5453888D01*
X2507234Y5457799D01*
X2507234Y6505549D01*
X2507792Y6508953D01*
X2509520Y6512001D01*
X2512212Y6514287D01*
X2521559Y6519824D01*
X2532278Y6528307D01*
X2541778Y6538112D01*
X2549855Y6549085D01*
X2556408Y6561023D01*
X2561285Y6573774D01*
X2564485Y6587032D01*
X2565806Y6600596D01*
X2565349Y6614210D01*
X2563114Y6627672D01*
X2559050Y6640677D01*
X2553309Y6653072D01*
X2545994Y6664553D01*
X2541270Y6670141D01*
X2539390Y6673494D01*
X2538882Y6677304D01*
X2539796Y6681012D01*
X2542032Y6684111D01*
X2545232Y6686143D01*
X2548991Y6686854D01*
X2632608Y6686854D01*
X2636367Y6686143D01*
X2639568Y6684111D01*
X2641803Y6681012D01*
X2642717Y6677304D01*
X2642209Y6673494D01*
X2640330Y6670141D01*
X2635605Y6664553D01*
X2628290Y6653072D01*
X2622550Y6640677D01*
X2618486Y6627672D01*
X2616250Y6614210D01*
X2615793Y6600596D01*
X2617114Y6587032D01*
X2620314Y6573774D01*
X2625191Y6561023D01*
X2631744Y6549085D01*
X2639822Y6538112D01*
X2649321Y6528307D01*
X2660040Y6519824D01*
X2669387Y6514287D01*
X2672080Y6512001D01*
X2673807Y6508953D01*
X2674416Y6505549D01*
X2674416Y5941923D01*
X2675585Y5933694D01*
X2678125Y5926074D01*
X2682036Y5919114D01*
X2687421Y5912561D01*
X2935020Y5664962D01*
X2937052Y5662066D01*
X2937967Y5658662D01*
X2937662Y5655106D01*
X2935274Y5646420D01*
X2933446Y5632907D01*
X2933446Y5619292D01*
X2935274Y5605780D01*
X2938881Y5592622D01*
X2944164Y5580075D01*
X2951124Y5568340D01*
X2959608Y5557621D01*
X2969412Y5548122D01*
X2980385Y5540044D01*
X2992323Y5533491D01*
X3005074Y5528614D01*
X3018332Y5525414D01*
X3031896Y5524093D01*
X3045510Y5524550D01*
X3058972Y5526786D01*
X3071977Y5530850D01*
X3084372Y5536590D01*
X3095853Y5543905D01*
X3106267Y5552694D01*
X3115411Y5562854D01*
X3123133Y5574080D01*
X3129280Y5586222D01*
X3133750Y5599125D01*
X3136493Y5612485D01*
X3137408Y5626100D01*
X3136493Y5639714D01*
X3133750Y5653074D01*
X3129280Y5665978D01*
X3123133Y5678119D01*
X3115411Y5689346D01*
X3106267Y5699506D01*
X3095853Y5708294D01*
X3084372Y5715609D01*
X3071977Y5721350D01*
X3058972Y5725414D01*
X3045510Y5727649D01*
X3031896Y5728106D01*
X3018332Y5726785D01*
X3005836Y5723788D01*
X3002432Y5723585D01*
X2999130Y5724499D01*
X2996285Y5726480D01*
X2764180Y5958586D01*
X2761996Y5961888D01*
X2761234Y5965799D01*
X2761234Y6505549D01*
X2761792Y6508953D01*
X2763520Y6512001D01*
X2766212Y6514287D01*
X2775559Y6519824D01*
X2786278Y6528307D01*
X2795778Y6538112D01*
X2803855Y6549085D01*
X2810408Y6561023D01*
X2815285Y6573774D01*
X2818485Y6587032D01*
X2819806Y6600596D01*
X2819349Y6614210D01*
X2817114Y6627672D01*
X2813050Y6640677D01*
X2807309Y6653072D01*
X2799994Y6664553D01*
X2795270Y6670141D01*
X2793390Y6673494D01*
X2792882Y6677304D01*
X2793796Y6681012D01*
X2796032Y6684111D01*
X2799232Y6686143D01*
X2802991Y6686854D01*
X2975051Y6686854D01*
X2978912Y6686092D01*
X2982214Y6683908D01*
X2984398Y6680606D01*
X2985211Y6676694D01*
X2985211Y6647840D01*
X3042259Y6647840D01*
X3042259Y6676694D01*
X3043021Y6680606D01*
X3045206Y6683908D01*
X3048508Y6686092D01*
X3052419Y6686854D01*
X3119780Y6686854D01*
X3123692Y6686092D01*
X3126994Y6683908D01*
X3129178Y6680606D01*
X3129940Y6676694D01*
X3129940Y6647840D01*
X3186988Y6647840D01*
X3186988Y6671157D01*
X3187801Y6675069D01*
X3189986Y6678371D01*
X3193288Y6680555D01*
X3197148Y6681317D01*
X3201060Y6680555D01*
X3204362Y6678371D01*
X3240786Y6641896D01*
X3242818Y6639001D01*
X3243732Y6635597D01*
X3243427Y6632041D01*
X3241243Y6624116D01*
X3239465Y6610756D01*
X3239465Y6597243D01*
X3241243Y6583883D01*
X3244799Y6570929D01*
X3250082Y6558483D01*
X3256940Y6546900D01*
X3265271Y6536334D01*
X3274974Y6526936D01*
X3285794Y6518960D01*
X3297631Y6512509D01*
X3310229Y6507632D01*
X3323336Y6504533D01*
X3336747Y6503162D01*
X3350209Y6503619D01*
X3363468Y6505854D01*
X3376371Y6509867D01*
X3388563Y6515506D01*
X3399942Y6522770D01*
X3410254Y6531457D01*
X3419297Y6541465D01*
X3426917Y6552590D01*
X3432962Y6564630D01*
X3437382Y6577330D01*
X3440074Y6590538D01*
X3440988Y6604000D01*
X3440074Y6617462D01*
X3437382Y6630670D01*
X3432962Y6643370D01*
X3426917Y6655409D01*
X3419297Y6666534D01*
X3410254Y6676542D01*
X3399942Y6685229D01*
X3388563Y6692493D01*
X3376371Y6698132D01*
X3363468Y6702145D01*
X3350209Y6704380D01*
X3336747Y6704838D01*
X3323336Y6703466D01*
X3311651Y6700672D01*
X3308197Y6700469D01*
X3304895Y6701434D01*
X3302101Y6703415D01*
X3243326Y6762140D01*
X3236620Y6767169D01*
X3229457Y6770725D01*
X3221786Y6772909D01*
X3213354Y6773672D01*
X2404922Y6773672D01*
X2396642Y6772503D01*
X2389073Y6769963D01*
X2382062Y6766052D01*
X2375560Y6760667D01*
X2304948Y6690004D01*
X2299919Y6683349D01*
X2297836Y6679133D01*
X2295601Y6676136D01*
X2292400Y6674154D01*
X2288743Y6673494D01*
X2285085Y6674154D01*
X2281936Y6676136D01*
X2273046Y6684111D01*
X2261819Y6691833D01*
X2249678Y6697980D01*
X2236774Y6702450D01*
X2223414Y6705193D01*
X2209800Y6706108D01*
X2196185Y6705193D01*
X2182825Y6702450D01*
X2169922Y6697980D01*
X2157780Y6691833D01*
X2146554Y6684111D01*
X2136394Y6674967D01*
X2127605Y6664553D01*
X2120290Y6653072D01*
X2114550Y6640677D01*
X2110486Y6627672D01*
X2108250Y6614210D01*
X2107793Y6600596D01*
X2109114Y6587032D01*
X2112314Y6573774D01*
X2117191Y6561023D01*
X2123744Y6549085D01*
X2131822Y6538112D01*
X2141321Y6528307D01*
X2152040Y6519824D01*
X2163775Y6512864D01*
X2176322Y6507581D01*
X2189480Y6503974D01*
X2202992Y6502146D01*
X2216607Y6502146D01*
X2230120Y6503974D01*
X2243277Y6507581D01*
X2255824Y6512864D01*
X2267559Y6519824D01*
X2276957Y6527241D01*
X2281021Y6529171D01*
X2285542Y6529171D01*
X2289556Y6527190D01*
X2292400Y6523634D01*
X2293416Y6519265D01*
X2293416Y5546801D01*
X2292604Y5542889D01*
X2290419Y5539587D01*
X866546Y4115765D01*
X862888Y4113428D01*
X858570Y4112818D01*
X854456Y4114037D01*
X851153Y4116933D01*
X849426Y4120896D01*
X847750Y4129074D01*
X843280Y4141978D01*
X837133Y4154119D01*
X829411Y4165346D01*
X820267Y4175506D01*
X809853Y4184294D01*
X798372Y4191609D01*
X785977Y4197350D01*
X772972Y4201414D01*
X759510Y4203649D01*
X745896Y4204106D01*
X732332Y4202785D01*
X719074Y4199585D01*
X706323Y4194708D01*
X694385Y4188155D01*
X683412Y4180078D01*
X673608Y4170578D01*
X665124Y4159859D01*
X658164Y4148124D01*
X652881Y4135577D01*
X649274Y4122420D01*
X647446Y4108907D01*
X647446Y4095292D01*
X649274Y4081779D01*
X652881Y4068622D01*
X658164Y4056075D01*
X665124Y4044340D01*
X673608Y4033621D01*
X683412Y4024122D01*
X694385Y4016044D01*
X706323Y4009491D01*
X719074Y4004614D01*
X732332Y4001414D01*
X745896Y4000093D01*
X759510Y4000550D01*
X772972Y4002786D01*
X785977Y4006850D01*
X798372Y4012590D01*
X809853Y4019905D01*
X820267Y4028694D01*
X823315Y4032046D01*
X826566Y4034485D01*
X830478Y4035399D01*
X834491Y4034739D01*
X837895Y4032554D01*
X840181Y4029201D01*
X840994Y4025239D01*
X840994Y3924960D01*
X840181Y3920998D01*
X837895Y3917645D01*
X834491Y3915460D01*
X830478Y3914800D01*
X826566Y3915714D01*
X823315Y3918153D01*
X820267Y3921506D01*
X809853Y3930294D01*
X798372Y3937609D01*
X785977Y3943350D01*
X772972Y3947414D01*
X759510Y3949649D01*
X745896Y3950106D01*
X732332Y3948785D01*
X719074Y3945585D01*
X706323Y3940708D01*
X694385Y3934155D01*
X683412Y3926078D01*
X673608Y3916578D01*
X665124Y3905859D01*
X658164Y3894124D01*
X652881Y3881577D01*
X649274Y3868420D01*
X647446Y3854907D01*
X647446Y3841292D01*
X649274Y3827779D01*
X652881Y3814622D01*
X658164Y3802075D01*
X665124Y3790340D01*
X673608Y3779621D01*
X683412Y3770122D01*
X694385Y3762044D01*
X706323Y3755491D01*
X719074Y3750614D01*
X732332Y3747414D01*
X745896Y3746093D01*
X759510Y3746550D01*
X772972Y3748786D01*
X785977Y3752850D01*
X798372Y3758590D01*
X809853Y3765905D01*
X820267Y3774694D01*
X823315Y3778046D01*
X826566Y3780485D01*
X830478Y3781399D01*
X834491Y3780739D01*
X837895Y3778554D01*
X840181Y3775201D01*
X840994Y3771239D01*
X840994Y3670960D01*
X840181Y3666998D01*
X837895Y3663645D01*
X834491Y3661460D01*
X830478Y3660800D01*
X826566Y3661714D01*
X823315Y3664153D01*
X820267Y3667506D01*
X809853Y3676294D01*
X798372Y3683609D01*
X785977Y3689350D01*
X772972Y3693414D01*
X759510Y3695649D01*
X745896Y3696106D01*
X732332Y3694785D01*
X719074Y3691585D01*
X706323Y3686708D01*
X694385Y3680155D01*
X683412Y3672078D01*
X673608Y3662578D01*
X665124Y3651859D01*
X658164Y3640124D01*
X652881Y3627577D01*
X649274Y3614420D01*
X647446Y3600907D01*
X647446Y3587292D01*
X649274Y3573779D01*
X652881Y3560622D01*
X658164Y3548075D01*
X665124Y3536340D01*
X673608Y3525621D01*
X683412Y3516122D01*
X694385Y3508044D01*
X706323Y3501491D01*
X719074Y3496614D01*
X732332Y3493414D01*
X745896Y3492093D01*
X759510Y3492550D01*
X772972Y3494786D01*
X785977Y3498850D01*
X798372Y3504590D01*
X809853Y3511905D01*
X820267Y3520694D01*
X823315Y3524046D01*
X826566Y3526485D01*
X830478Y3527399D01*
X834491Y3526739D01*
X837895Y3524554D01*
X840181Y3521201D01*
X840994Y3517239D01*
X840994Y3416960D01*
X840181Y3412998D01*
X837895Y3409645D01*
X834491Y3407460D01*
X830478Y3406800D01*
X826566Y3407714D01*
X823315Y3410153D01*
X820267Y3413506D01*
X809853Y3422294D01*
X798372Y3429609D01*
X785977Y3435350D01*
X772972Y3439414D01*
X759510Y3441649D01*
X745896Y3442106D01*
X732332Y3440785D01*
X719074Y3437585D01*
X706323Y3432708D01*
X694385Y3426155D01*
X683412Y3418078D01*
X673608Y3408578D01*
X665124Y3397859D01*
X658164Y3386124D01*
X652881Y3373577D01*
X649274Y3360420D01*
X647446Y3346907D01*
X647446Y3333292D01*
X649274Y3319779D01*
X652881Y3306622D01*
X658164Y3294075D01*
X665124Y3282340D01*
X673608Y3271621D01*
X683412Y3262122D01*
X694385Y3254044D01*
X706323Y3247491D01*
X719074Y3242614D01*
X732332Y3239414D01*
X745896Y3238093D01*
X759510Y3238550D01*
X772972Y3240786D01*
X785977Y3244850D01*
X798372Y3250590D01*
X809853Y3257905D01*
X820267Y3266694D01*
X823315Y3270046D01*
X826566Y3272485D01*
X830478Y3273399D01*
X834491Y3272739D01*
X837895Y3270554D01*
X840181Y3267202D01*
X840994Y3263239D01*
X840994Y3243376D01*
X840232Y3239516D01*
X837996Y3236214D01*
X788162Y3186379D01*
X785164Y3184296D01*
X781608Y3183432D01*
X778002Y3183839D01*
X772972Y3185414D01*
X759510Y3187649D01*
X745896Y3188106D01*
X732332Y3186785D01*
X719074Y3183585D01*
X706323Y3178708D01*
X694385Y3172155D01*
X683412Y3164078D01*
X673608Y3154578D01*
X665124Y3143859D01*
X658164Y3132124D01*
X652881Y3119577D01*
X649274Y3106420D01*
X647446Y3092907D01*
X647446Y3079292D01*
X649274Y3065780D01*
X652881Y3052622D01*
X658164Y3040075D01*
X665124Y3028340D01*
X673608Y3017621D01*
X683412Y3008122D01*
X694385Y3000044D01*
X706323Y2993491D01*
X719074Y2988614D01*
X732332Y2985414D01*
G37*
G36*
X3031896Y4000093D02*
G01*
X3045510Y4000550D01*
X3058972Y4002786D01*
X3071977Y4006850D01*
X3084372Y4012590D01*
X3095853Y4019905D01*
X3106267Y4028694D01*
X3115411Y4038854D01*
X3123133Y4050080D01*
X3129280Y4062222D01*
X3133750Y4075125D01*
X3136493Y4088485D01*
X3137408Y4102100D01*
X3136493Y4115714D01*
X3133750Y4129074D01*
X3129280Y4141978D01*
X3123133Y4154119D01*
X3115411Y4165346D01*
X3106267Y4175506D01*
X3095853Y4184294D01*
X3084372Y4191609D01*
X3071977Y4197350D01*
X3058972Y4201414D01*
X3045510Y4203649D01*
X3031896Y4204106D01*
X3018332Y4202785D01*
X3005074Y4199585D01*
X2992323Y4194708D01*
X2980385Y4188155D01*
X2969412Y4180078D01*
X2959608Y4170578D01*
X2951124Y4159859D01*
X2944164Y4148124D01*
X2938881Y4135577D01*
X2935274Y4122420D01*
X2933446Y4108907D01*
X2933446Y4095292D01*
X2935274Y4081779D01*
X2938881Y4068622D01*
X2944164Y4056075D01*
X2951124Y4044340D01*
X2959608Y4033621D01*
X2969412Y4024122D01*
X2980385Y4016044D01*
X2992323Y4009491D01*
X3005074Y4004614D01*
X3018332Y4001414D01*
G37*
G36*
X3031896Y4254093D02*
G01*
X3045510Y4254550D01*
X3058972Y4256786D01*
X3071977Y4260850D01*
X3084372Y4266590D01*
X3095853Y4273905D01*
X3106267Y4282694D01*
X3115411Y4292854D01*
X3123133Y4304080D01*
X3129280Y4316222D01*
X3133750Y4329125D01*
X3136493Y4342485D01*
X3137408Y4356100D01*
X3136493Y4369714D01*
X3133750Y4383074D01*
X3129280Y4395978D01*
X3123133Y4408119D01*
X3115411Y4419346D01*
X3106267Y4429506D01*
X3095853Y4438294D01*
X3084372Y4445609D01*
X3071977Y4451350D01*
X3058972Y4455414D01*
X3045510Y4457649D01*
X3031896Y4458106D01*
X3018332Y4456785D01*
X3005074Y4453585D01*
X2992323Y4448708D01*
X2980385Y4442155D01*
X2969412Y4434078D01*
X2959608Y4424578D01*
X2951124Y4413859D01*
X2944164Y4402124D01*
X2938881Y4389577D01*
X2935274Y4376420D01*
X2933446Y4362907D01*
X2933446Y4349292D01*
X2935274Y4335780D01*
X2938881Y4322622D01*
X2944164Y4310075D01*
X2951124Y4298340D01*
X2959608Y4287621D01*
X2969412Y4278122D01*
X2980385Y4270044D01*
X2992323Y4263491D01*
X3005074Y4258614D01*
X3018332Y4255414D01*
G37*
G36*
X745896Y4254093D02*
G01*
X759510Y4254550D01*
X772972Y4256786D01*
X785977Y4260850D01*
X798372Y4266590D01*
X809853Y4273905D01*
X820267Y4282694D01*
X829411Y4292854D01*
X837133Y4304080D01*
X838657Y4307128D01*
X840943Y4310075D01*
X844092Y4312005D01*
X847750Y4312666D01*
X967384Y4312716D01*
X975614Y4313885D01*
X983234Y4316425D01*
X990193Y4320336D01*
X996746Y4325721D01*
X1376781Y4705807D01*
X1379677Y4707839D01*
X1393190Y4711344D01*
X1402080Y4715510D01*
X1410157Y4721098D01*
X1417116Y4728057D01*
X1422704Y4736134D01*
X1426870Y4745024D01*
X1429410Y4754524D01*
X1430274Y4764278D01*
X1429410Y4774082D01*
X1426870Y4783582D01*
X1422704Y4792472D01*
X1417116Y4800549D01*
X1410157Y4807508D01*
X1402080Y4813096D01*
X1393190Y4817262D01*
X1383690Y4819802D01*
X1373936Y4820666D01*
X1364132Y4819802D01*
X1354632Y4817262D01*
X1345742Y4813096D01*
X1337665Y4807508D01*
X1330706Y4800549D01*
X1325118Y4792472D01*
X1320952Y4783582D01*
X1317447Y4770069D01*
X1315415Y4767173D01*
X950721Y4402480D01*
X947419Y4400296D01*
X943508Y4399483D01*
X847750Y4399483D01*
X844092Y4400194D01*
X840943Y4402124D01*
X838657Y4405071D01*
X837133Y4408119D01*
X829411Y4419346D01*
X820267Y4429506D01*
X809853Y4438294D01*
X798372Y4445609D01*
X785977Y4451350D01*
X772972Y4455414D01*
X759510Y4457649D01*
X745896Y4458106D01*
X732332Y4456785D01*
X719074Y4453585D01*
X706323Y4448708D01*
X694385Y4442155D01*
X683412Y4434078D01*
X673608Y4424578D01*
X665124Y4413859D01*
X658164Y4402124D01*
X652881Y4389577D01*
X649274Y4376420D01*
X647446Y4362907D01*
X647446Y4349292D01*
X649274Y4335780D01*
X652881Y4322622D01*
X658164Y4310075D01*
X665124Y4298340D01*
X673608Y4287621D01*
X683412Y4278122D01*
X694385Y4270044D01*
X706323Y4263491D01*
X719074Y4258614D01*
X732332Y4255414D01*
G37*
G36*
X745896Y4508093D02*
G01*
X759510Y4508550D01*
X772972Y4510786D01*
X785977Y4514850D01*
X798372Y4520590D01*
X809853Y4527905D01*
X820267Y4536694D01*
X829411Y4546854D01*
X837133Y4558080D01*
X843280Y4570222D01*
X847750Y4583125D01*
X850493Y4596485D01*
X851408Y4610100D01*
X850493Y4623714D01*
X847750Y4637074D01*
X843280Y4649978D01*
X837133Y4662119D01*
X829411Y4673346D01*
X820267Y4683506D01*
X809853Y4692294D01*
X798372Y4699609D01*
X785977Y4705350D01*
X772972Y4709414D01*
X759510Y4711649D01*
X745896Y4712106D01*
X732332Y4710785D01*
X719074Y4707585D01*
X706323Y4702708D01*
X694385Y4696155D01*
X683412Y4688078D01*
X673608Y4678578D01*
X665124Y4667859D01*
X658164Y4656124D01*
X652881Y4643577D01*
X649274Y4630420D01*
X647446Y4616907D01*
X647446Y4603292D01*
X649274Y4589780D01*
X652881Y4576622D01*
X658164Y4564075D01*
X665124Y4552340D01*
X673608Y4541621D01*
X683412Y4532122D01*
X694385Y4524044D01*
X706323Y4517491D01*
X719074Y4512614D01*
X732332Y4509414D01*
G37*
G36*
X2990850Y4518304D02*
G01*
X2990850Y4565650D01*
X2943504Y4565650D01*
X2944164Y4564075D01*
X2951124Y4552340D01*
X2959608Y4541621D01*
X2969412Y4532122D01*
X2980385Y4524044D01*
G37*
G36*
X3079750Y4518456D02*
G01*
X3084372Y4520590D01*
X3095853Y4527905D01*
X3106267Y4536694D01*
X3115411Y4546854D01*
X3123133Y4558080D01*
X3126943Y4565650D01*
X3079750Y4565650D01*
G37*
G36*
X3079750Y4654550D02*
G01*
X3126943Y4654550D01*
X3123133Y4662119D01*
X3115411Y4673346D01*
X3106267Y4683506D01*
X3095853Y4692294D01*
X3084372Y4699609D01*
X3079750Y4701743D01*
G37*
G36*
X2943504Y4654550D02*
G01*
X2990850Y4654550D01*
X2990850Y4701895D01*
X2980385Y4696155D01*
X2969412Y4688078D01*
X2959608Y4678578D01*
X2951124Y4667859D01*
X2944164Y4656124D01*
G37*
G36*
X704850Y4772304D02*
G01*
X704850Y4819650D01*
X657504Y4819650D01*
X658164Y4818075D01*
X665124Y4806340D01*
X673608Y4795621D01*
X683412Y4786122D01*
X694385Y4778044D01*
G37*
G36*
X793750Y4772456D02*
G01*
X798372Y4774590D01*
X809853Y4781905D01*
X820267Y4790694D01*
X829411Y4800854D01*
X837133Y4812080D01*
X840943Y4819650D01*
X793750Y4819650D01*
G37*
G36*
X793750Y4908550D02*
G01*
X840943Y4908550D01*
X837133Y4916119D01*
X829411Y4927346D01*
X820267Y4937506D01*
X809853Y4946294D01*
X798372Y4953609D01*
X793750Y4955743D01*
G37*
G36*
X657504Y4908550D02*
G01*
X704850Y4908550D01*
X704850Y4955895D01*
X694385Y4950155D01*
X683412Y4942078D01*
X673608Y4932578D01*
X665124Y4921859D01*
X658164Y4910124D01*
G37*
G36*
X745896Y5016093D02*
G01*
X759510Y5016550D01*
X772972Y5018786D01*
X785977Y5022850D01*
X798372Y5028590D01*
X809853Y5035905D01*
X820267Y5044694D01*
X829411Y5054854D01*
X837133Y5066080D01*
X843280Y5078222D01*
X847750Y5091125D01*
X850493Y5104485D01*
X851408Y5118100D01*
X850493Y5131714D01*
X847750Y5145074D01*
X843280Y5157978D01*
X837133Y5170119D01*
X829411Y5181346D01*
X820267Y5191506D01*
X809853Y5200294D01*
X798372Y5207609D01*
X785977Y5213350D01*
X772972Y5217414D01*
X759510Y5219649D01*
X745896Y5220106D01*
X732332Y5218785D01*
X719074Y5215585D01*
X706323Y5210708D01*
X694385Y5204155D01*
X683412Y5196078D01*
X673608Y5186578D01*
X665124Y5175859D01*
X658164Y5164124D01*
X652881Y5151577D01*
X649274Y5138420D01*
X647446Y5124907D01*
X647446Y5111292D01*
X649274Y5097780D01*
X652881Y5084622D01*
X658164Y5072075D01*
X665124Y5060340D01*
X673608Y5049621D01*
X683412Y5040122D01*
X694385Y5032044D01*
X706323Y5025491D01*
X719074Y5020614D01*
X732332Y5017414D01*
G37*
G36*
X3031896Y5016093D02*
G01*
X3045510Y5016550D01*
X3058972Y5018786D01*
X3071977Y5022850D01*
X3084372Y5028590D01*
X3095853Y5035905D01*
X3106267Y5044694D01*
X3115411Y5054854D01*
X3123133Y5066080D01*
X3129280Y5078222D01*
X3133750Y5091125D01*
X3136493Y5104485D01*
X3137408Y5118100D01*
X3136493Y5131714D01*
X3133750Y5145074D01*
X3129280Y5157978D01*
X3123133Y5170119D01*
X3115411Y5181346D01*
X3106267Y5191506D01*
X3095853Y5200294D01*
X3084372Y5207609D01*
X3071977Y5213350D01*
X3058972Y5217414D01*
X3045510Y5219649D01*
X3031896Y5220106D01*
X3018332Y5218785D01*
X3005074Y5215585D01*
X2992323Y5210708D01*
X2980385Y5204155D01*
X2969412Y5196078D01*
X2959608Y5186578D01*
X2951124Y5175859D01*
X2944164Y5164124D01*
X2938881Y5151577D01*
X2935274Y5138420D01*
X2933446Y5124907D01*
X2933446Y5111292D01*
X2935274Y5097780D01*
X2938881Y5084622D01*
X2944164Y5072075D01*
X2951124Y5060340D01*
X2959608Y5049621D01*
X2969412Y5040122D01*
X2980385Y5032044D01*
X2992323Y5025491D01*
X3005074Y5020614D01*
X3018332Y5017414D01*
G37*
G36*
X745896Y5270093D02*
G01*
X759510Y5270550D01*
X772972Y5272786D01*
X785977Y5276850D01*
X798372Y5282590D01*
X809853Y5289905D01*
X820267Y5298694D01*
X829411Y5308854D01*
X837133Y5320080D01*
X843280Y5332222D01*
X847750Y5345125D01*
X850493Y5358485D01*
X851408Y5372100D01*
X850493Y5385714D01*
X847750Y5399074D01*
X843280Y5411978D01*
X837133Y5424119D01*
X829411Y5435346D01*
X820267Y5445506D01*
X809853Y5454294D01*
X798372Y5461609D01*
X785977Y5467350D01*
X772972Y5471414D01*
X759510Y5473649D01*
X745896Y5474106D01*
X732332Y5472785D01*
X719074Y5469585D01*
X706323Y5464708D01*
X694385Y5458155D01*
X683412Y5450078D01*
X673608Y5440578D01*
X665124Y5429859D01*
X658164Y5418124D01*
X652881Y5405577D01*
X649274Y5392420D01*
X647446Y5378907D01*
X647446Y5365292D01*
X649274Y5351780D01*
X652881Y5338622D01*
X658164Y5326075D01*
X665124Y5314340D01*
X673608Y5303621D01*
X683412Y5294122D01*
X694385Y5286044D01*
X706323Y5279491D01*
X719074Y5274614D01*
X732332Y5271414D01*
G37*
G36*
X3031896Y5270093D02*
G01*
X3045510Y5270550D01*
X3058972Y5272786D01*
X3071977Y5276850D01*
X3084372Y5282590D01*
X3095853Y5289905D01*
X3106267Y5298694D01*
X3115411Y5308854D01*
X3123133Y5320080D01*
X3129280Y5332222D01*
X3133750Y5345125D01*
X3136493Y5358485D01*
X3137408Y5372100D01*
X3136493Y5385714D01*
X3133750Y5399074D01*
X3129280Y5411978D01*
X3123133Y5424119D01*
X3115411Y5435346D01*
X3106267Y5445506D01*
X3095853Y5454294D01*
X3084372Y5461609D01*
X3071977Y5467350D01*
X3058972Y5471414D01*
X3045510Y5473649D01*
X3031896Y5474106D01*
X3018332Y5472785D01*
X3005074Y5469585D01*
X2992323Y5464708D01*
X2980385Y5458155D01*
X2969412Y5450078D01*
X2959608Y5440578D01*
X2951124Y5429859D01*
X2944164Y5418124D01*
X2938881Y5405577D01*
X2935274Y5392420D01*
X2933446Y5378907D01*
X2933446Y5365292D01*
X2935274Y5351780D01*
X2938881Y5338622D01*
X2944164Y5326075D01*
X2951124Y5314340D01*
X2959608Y5303621D01*
X2969412Y5294122D01*
X2980385Y5286044D01*
X2992323Y5279491D01*
X3005074Y5274614D01*
X3018332Y5271414D01*
G37*
G36*
X745896Y5524093D02*
G01*
X759510Y5524550D01*
X772972Y5526786D01*
X785977Y5530850D01*
X798372Y5536590D01*
X809853Y5543905D01*
X820267Y5552694D01*
X829411Y5562854D01*
X837133Y5574080D01*
X843280Y5586222D01*
X847750Y5599125D01*
X850493Y5612485D01*
X851408Y5626100D01*
X850493Y5639714D01*
X847750Y5653074D01*
X843280Y5665978D01*
X837133Y5678119D01*
X829411Y5689346D01*
X820267Y5699506D01*
X809853Y5708294D01*
X798372Y5715609D01*
X785977Y5721350D01*
X772972Y5725414D01*
X759510Y5727649D01*
X745896Y5728106D01*
X732332Y5726785D01*
X719074Y5723585D01*
X706323Y5718708D01*
X694385Y5712155D01*
X683412Y5704078D01*
X673608Y5694578D01*
X665124Y5683859D01*
X658164Y5672124D01*
X652881Y5659577D01*
X649274Y5646420D01*
X647446Y5632907D01*
X647446Y5619292D01*
X649274Y5605780D01*
X652881Y5592622D01*
X658164Y5580075D01*
X665124Y5568340D01*
X673608Y5557621D01*
X683412Y5548122D01*
X694385Y5540044D01*
X706323Y5533491D01*
X719074Y5528614D01*
X732332Y5525414D01*
G37*
G36*
X745896Y5778093D02*
G01*
X759510Y5778550D01*
X772972Y5780786D01*
X785977Y5784850D01*
X798372Y5790590D01*
X809853Y5797905D01*
X820267Y5806694D01*
X829411Y5816854D01*
X837133Y5828080D01*
X843280Y5840222D01*
X847750Y5853125D01*
X850493Y5866485D01*
X851408Y5880100D01*
X850493Y5893714D01*
X847750Y5907074D01*
X843280Y5919978D01*
X837133Y5932119D01*
X829411Y5943346D01*
X820267Y5953506D01*
X809853Y5962294D01*
X798372Y5969609D01*
X785977Y5975350D01*
X772972Y5979414D01*
X759510Y5981649D01*
X745896Y5982106D01*
X732332Y5980785D01*
X719074Y5977585D01*
X706323Y5972708D01*
X694385Y5966155D01*
X683412Y5958078D01*
X673608Y5948578D01*
X665124Y5937859D01*
X658164Y5926124D01*
X652881Y5913577D01*
X649274Y5900420D01*
X647446Y5886907D01*
X647446Y5873292D01*
X649274Y5859780D01*
X652881Y5846622D01*
X658164Y5834075D01*
X665124Y5822340D01*
X673608Y5811621D01*
X683412Y5802122D01*
X694385Y5794044D01*
X706323Y5787491D01*
X719074Y5782614D01*
X732332Y5779414D01*
G37*
G36*
X745896Y6032093D02*
G01*
X759510Y6032550D01*
X772972Y6034786D01*
X785977Y6038850D01*
X798372Y6044590D01*
X809853Y6051905D01*
X820267Y6060694D01*
X829411Y6070854D01*
X837133Y6082080D01*
X838657Y6085128D01*
X840943Y6088075D01*
X844092Y6090005D01*
X847750Y6090666D01*
X890676Y6090716D01*
X898906Y6091885D01*
X906526Y6094425D01*
X913485Y6098336D01*
X920038Y6103721D01*
X1319936Y6503619D01*
X1323035Y6505752D01*
X1326743Y6506616D01*
X1345285Y6502806D01*
X1358900Y6501892D01*
X1372514Y6502806D01*
X1385874Y6505549D01*
X1398778Y6510020D01*
X1410919Y6516166D01*
X1422146Y6523888D01*
X1432306Y6533032D01*
X1441094Y6543446D01*
X1448409Y6554927D01*
X1454150Y6567322D01*
X1458214Y6580327D01*
X1460449Y6593789D01*
X1460906Y6607403D01*
X1459585Y6620967D01*
X1456385Y6634225D01*
X1451508Y6646976D01*
X1444955Y6658914D01*
X1436878Y6669887D01*
X1427378Y6679692D01*
X1416659Y6688175D01*
X1404924Y6695135D01*
X1392377Y6700418D01*
X1379220Y6704025D01*
X1365707Y6705853D01*
X1352092Y6705853D01*
X1338580Y6704025D01*
X1325422Y6700418D01*
X1312875Y6695135D01*
X1301140Y6688175D01*
X1290421Y6679692D01*
X1280922Y6669887D01*
X1272844Y6658914D01*
X1266291Y6646976D01*
X1261414Y6634225D01*
X1258214Y6620967D01*
X1256893Y6607403D01*
X1257350Y6593789D01*
X1259586Y6580327D01*
X1261160Y6575298D01*
X1261567Y6571691D01*
X1260703Y6568135D01*
X1258620Y6565138D01*
X874014Y6180480D01*
X870712Y6178296D01*
X866800Y6177483D01*
X847750Y6177483D01*
X844092Y6178194D01*
X840943Y6180124D01*
X838657Y6183071D01*
X837133Y6186119D01*
X829411Y6197346D01*
X820267Y6207506D01*
X809853Y6216294D01*
X798372Y6223609D01*
X785977Y6229350D01*
X772972Y6233414D01*
X759510Y6235649D01*
X745896Y6236106D01*
X732332Y6234785D01*
X719074Y6231585D01*
X706323Y6226708D01*
X694385Y6220155D01*
X683412Y6212078D01*
X673608Y6202578D01*
X665124Y6191859D01*
X658164Y6180124D01*
X652881Y6167577D01*
X649274Y6154420D01*
X647446Y6140907D01*
X647446Y6127292D01*
X649274Y6113780D01*
X652881Y6100622D01*
X658164Y6088075D01*
X665124Y6076340D01*
X673608Y6065621D01*
X683412Y6056122D01*
X694385Y6048044D01*
X706323Y6041491D01*
X719074Y6036614D01*
X732332Y6033414D01*
G37*
G36*
X2990850Y6042304D02*
G01*
X2990850Y6089650D01*
X2943504Y6089650D01*
X2944164Y6088075D01*
X2951124Y6076340D01*
X2959608Y6065621D01*
X2969412Y6056122D01*
X2980385Y6048044D01*
G37*
G36*
X3079750Y6042456D02*
G01*
X3084372Y6044590D01*
X3095853Y6051905D01*
X3106267Y6060694D01*
X3115411Y6070854D01*
X3123133Y6082080D01*
X3126943Y6089650D01*
X3079750Y6089650D01*
G37*
G36*
X3079750Y6178550D02*
G01*
X3126943Y6178550D01*
X3123133Y6186119D01*
X3115411Y6197346D01*
X3106267Y6207506D01*
X3095853Y6216294D01*
X3084372Y6223609D01*
X3079750Y6225743D01*
G37*
G36*
X2943504Y6178550D02*
G01*
X2990850Y6178550D01*
X2990850Y6225895D01*
X2980385Y6220155D01*
X2969412Y6212078D01*
X2959608Y6202578D01*
X2951124Y6191859D01*
X2944164Y6180124D01*
G37*
G36*
X3423208Y6190742D02*
G01*
X3457600Y6190742D01*
X3457600Y6251549D01*
X3396742Y6251549D01*
X3396742Y6217208D01*
X3397453Y6210909D01*
X3399383Y6205423D01*
X3402431Y6200546D01*
X3406546Y6196431D01*
X3411423Y6193383D01*
X3416909Y6191453D01*
G37*
G36*
X3396742Y6346799D02*
G01*
X3457600Y6346799D01*
X3457600Y6407658D01*
X3423208Y6407658D01*
X3416909Y6406946D01*
X3411423Y6405016D01*
X3406546Y6401968D01*
X3402431Y6397853D01*
X3399383Y6392976D01*
X3397453Y6387490D01*
X3396742Y6381191D01*
G37*
G36*
X850900Y6501892D02*
G01*
X864514Y6502806D01*
X877874Y6505549D01*
X890778Y6510020D01*
X902919Y6516166D01*
X914146Y6523888D01*
X924306Y6533032D01*
X933094Y6543446D01*
X940409Y6554927D01*
X946150Y6567322D01*
X950214Y6580327D01*
X952449Y6593789D01*
X952906Y6607403D01*
X951585Y6620967D01*
X948385Y6634225D01*
X943508Y6646976D01*
X936955Y6658914D01*
X928878Y6669887D01*
X919378Y6679692D01*
X908659Y6688175D01*
X896924Y6695135D01*
X884377Y6700418D01*
X871219Y6704025D01*
X857707Y6705853D01*
X844092Y6705853D01*
X830580Y6704025D01*
X817422Y6700418D01*
X804875Y6695135D01*
X793140Y6688175D01*
X782421Y6679692D01*
X772922Y6669887D01*
X764844Y6658914D01*
X758291Y6646976D01*
X753414Y6634225D01*
X750214Y6620967D01*
X748893Y6607403D01*
X749350Y6593789D01*
X751586Y6580327D01*
X755650Y6567322D01*
X761390Y6554927D01*
X768705Y6543446D01*
X777494Y6533032D01*
X787654Y6523888D01*
X798880Y6516166D01*
X811022Y6510020D01*
X823925Y6505549D01*
X837285Y6502806D01*
G37*
G36*
X1104900Y6501892D02*
G01*
X1118514Y6502806D01*
X1131874Y6505549D01*
X1144778Y6510020D01*
X1156919Y6516166D01*
X1168146Y6523888D01*
X1178306Y6533032D01*
X1187094Y6543446D01*
X1194409Y6554927D01*
X1200150Y6567322D01*
X1204214Y6580327D01*
X1206449Y6593789D01*
X1206906Y6607403D01*
X1205585Y6620967D01*
X1202385Y6634225D01*
X1197508Y6646976D01*
X1190955Y6658914D01*
X1182878Y6669887D01*
X1173378Y6679692D01*
X1162659Y6688175D01*
X1150924Y6695135D01*
X1138377Y6700418D01*
X1125220Y6704025D01*
X1111707Y6705853D01*
X1098092Y6705853D01*
X1084580Y6704025D01*
X1071422Y6700418D01*
X1058875Y6695135D01*
X1047140Y6688175D01*
X1036421Y6679692D01*
X1026921Y6669887D01*
X1018844Y6658914D01*
X1012291Y6646976D01*
X1007414Y6634225D01*
X1004214Y6620967D01*
X1002893Y6607403D01*
X1003350Y6593789D01*
X1005586Y6580327D01*
X1009650Y6567322D01*
X1015390Y6554927D01*
X1022705Y6543446D01*
X1031494Y6533032D01*
X1041653Y6523888D01*
X1052880Y6516166D01*
X1065022Y6510020D01*
X1077925Y6505549D01*
X1091285Y6502806D01*
G37*
G36*
X3129940Y6503111D02*
G01*
X3160522Y6503111D01*
X3166872Y6503822D01*
X3172307Y6505702D01*
X3177235Y6508800D01*
X3181299Y6512864D01*
X3184398Y6517792D01*
X3186277Y6523228D01*
X3186988Y6529578D01*
X3186988Y6560159D01*
X3129940Y6560159D01*
G37*
G36*
X3011678Y6503111D02*
G01*
X3042259Y6503111D01*
X3042259Y6560159D01*
X2985211Y6560159D01*
X2985211Y6529578D01*
X2985922Y6523228D01*
X2987802Y6517792D01*
X2990900Y6512864D01*
X2994964Y6508800D01*
X2999892Y6505702D01*
X3005328Y6503822D01*
G37*
G36*
X1911350Y6512204D02*
G01*
X1911350Y6559550D01*
X1864004Y6559550D01*
X1869744Y6549085D01*
X1877822Y6538112D01*
X1887321Y6528307D01*
X1898040Y6519824D01*
X1909775Y6512864D01*
G37*
G36*
X2000250Y6512204D02*
G01*
X2001824Y6512864D01*
X2013559Y6519824D01*
X2024278Y6528307D01*
X2033778Y6538112D01*
X2041855Y6549085D01*
X2047595Y6559550D01*
X2000250Y6559550D01*
G37*
G36*
X1568450Y6512356D02*
G01*
X1568450Y6559550D01*
X1521256Y6559550D01*
X1523390Y6554927D01*
X1530705Y6543446D01*
X1539494Y6533032D01*
X1549654Y6523888D01*
X1560880Y6516166D01*
G37*
G36*
X1657350Y6512356D02*
G01*
X1664919Y6516166D01*
X1676146Y6523888D01*
X1686306Y6533032D01*
X1695094Y6543446D01*
X1702409Y6554927D01*
X1704543Y6559550D01*
X1657350Y6559550D01*
G37*
G36*
X1864156Y6648450D02*
G01*
X1911350Y6648450D01*
X1911350Y6695643D01*
X1903780Y6691833D01*
X1892554Y6684111D01*
X1882393Y6674967D01*
X1873605Y6664553D01*
X1866290Y6653072D01*
G37*
G36*
X2000250Y6648450D02*
G01*
X2047443Y6648450D01*
X2045309Y6653072D01*
X2037994Y6664553D01*
X2029206Y6674967D01*
X2019046Y6684111D01*
X2007819Y6691833D01*
X2000250Y6695643D01*
G37*
G36*
X1521104Y6648450D02*
G01*
X1568450Y6648450D01*
X1568450Y6695795D01*
X1566875Y6695135D01*
X1555140Y6688175D01*
X1544421Y6679692D01*
X1534922Y6669887D01*
X1526844Y6658914D01*
G37*
G36*
X1657350Y6648450D02*
G01*
X1704695Y6648450D01*
X1698955Y6658914D01*
X1690878Y6669887D01*
X1681378Y6679692D01*
X1670659Y6688175D01*
X1658924Y6695135D01*
X1657350Y6695795D01*
G37*

%LPD*%
G36*
X3657600Y4243933D02*
G01*
X3653688Y4244695D01*
X3650386Y4246880D01*
X3610559Y4286758D01*
X3608425Y4289856D01*
X3607562Y4293514D01*
X3608120Y4297222D01*
X3609949Y4302658D01*
X3612692Y4316526D01*
X3613658Y4330700D01*
X3612692Y4344873D01*
X3609949Y4358741D01*
X3605377Y4372203D01*
X3599129Y4384903D01*
X3591204Y4396689D01*
X3581857Y4407357D01*
X3571189Y4416704D01*
X3559403Y4424629D01*
X3546703Y4430877D01*
X3533241Y4435449D01*
X3519373Y4438192D01*
X3505200Y4439158D01*
X3491026Y4438192D01*
X3477158Y4435449D01*
X3463696Y4430877D01*
X3450996Y4424629D01*
X3439210Y4416704D01*
X3430371Y4408982D01*
X3427018Y4407052D01*
X3423208Y4406493D01*
X3419449Y4407357D01*
X3416350Y4409592D01*
X3414217Y4412843D01*
X3413506Y4416653D01*
X3413506Y4466082D01*
X3414268Y4469993D01*
X3416503Y4473244D01*
X3419754Y4475480D01*
X3423665Y4476242D01*
X3457600Y4476242D01*
X3457600Y4537049D01*
X3423665Y4537049D01*
X3419754Y4537862D01*
X3416503Y4540046D01*
X3414268Y4543348D01*
X3413506Y4547209D01*
X3413506Y4622139D01*
X3414268Y4626051D01*
X3416503Y4629353D01*
X3419754Y4631537D01*
X3423665Y4632299D01*
X3457600Y4632299D01*
X3457600Y4693158D01*
X3423665Y4693158D01*
X3419754Y4693920D01*
X3416503Y4696155D01*
X3414268Y4699406D01*
X3413506Y4703318D01*
X3413506Y4888839D01*
X3414318Y4892802D01*
X3416604Y4896154D01*
X3420008Y4898339D01*
X3424021Y4898999D01*
X3427933Y4898085D01*
X3431184Y4895646D01*
X3434232Y4892294D01*
X3444646Y4883505D01*
X3456127Y4876190D01*
X3460750Y4874056D01*
X3460750Y4921250D01*
X3423665Y4921250D01*
X3419754Y4922012D01*
X3416503Y4924247D01*
X3414268Y4927498D01*
X3413506Y4931410D01*
X3413506Y4999990D01*
X3414268Y5003901D01*
X3416503Y5007152D01*
X3419754Y5009388D01*
X3423665Y5010150D01*
X3460750Y5010150D01*
X3460750Y5057343D01*
X3456127Y5055209D01*
X3444646Y5047894D01*
X3434232Y5039106D01*
X3431184Y5035753D01*
X3427933Y5033314D01*
X3424021Y5032400D01*
X3420008Y5033060D01*
X3416604Y5035245D01*
X3414318Y5038598D01*
X3413506Y5042560D01*
X3413506Y5142839D01*
X3414318Y5146802D01*
X3416604Y5150154D01*
X3420008Y5152339D01*
X3424021Y5152999D01*
X3427933Y5152085D01*
X3431184Y5149646D01*
X3434232Y5146294D01*
X3444646Y5137505D01*
X3456127Y5130190D01*
X3468522Y5124450D01*
X3481527Y5120386D01*
X3494989Y5118150D01*
X3508603Y5117693D01*
X3522167Y5119014D01*
X3534664Y5122011D01*
X3538067Y5122214D01*
X3541369Y5121300D01*
X3544214Y5119319D01*
X3664762Y4998770D01*
X3666947Y4995468D01*
X3667760Y4991557D01*
X3667760Y4254093D01*
X3666947Y4250182D01*
X3664762Y4246880D01*
X3661460Y4244695D01*
G37*

%LPC*%
G36*
X3552850Y4476242D02*
G01*
X3587191Y4476242D01*
X3593490Y4476953D01*
X3598976Y4478883D01*
X3603853Y4481931D01*
X3607968Y4486046D01*
X3611016Y4490923D01*
X3612946Y4496409D01*
X3613658Y4502708D01*
X3613658Y4537049D01*
X3552850Y4537049D01*
G37*
G36*
X3552850Y4632299D02*
G01*
X3613658Y4632299D01*
X3613658Y4666691D01*
X3612946Y4672990D01*
X3611016Y4678476D01*
X3607968Y4683353D01*
X3603853Y4687468D01*
X3598976Y4690516D01*
X3593490Y4692446D01*
X3587191Y4693158D01*
X3552850Y4693158D01*
G37*
G36*
X3549650Y4873904D02*
G01*
X3560114Y4879644D01*
X3571087Y4887722D01*
X3580892Y4897221D01*
X3589375Y4907940D01*
X3596335Y4919675D01*
X3596995Y4921250D01*
X3549650Y4921250D01*
G37*
G36*
X3549650Y5010150D02*
G01*
X3596995Y5010150D01*
X3596335Y5011724D01*
X3589375Y5023459D01*
X3580892Y5034178D01*
X3571087Y5043678D01*
X3560114Y5051755D01*
X3549650Y5057495D01*
G37*

%LPD*%
D10*
X3340100Y6604000D02*
G01*
X3213811Y6730288D01*
X2406573Y6730288D01*
X2336800Y6660514D01*
X2336800Y5524601D01*
X884402Y4072204D01*
X884402Y3221202D01*
X749300Y3086100D01*
X749300Y2578100D02*
G01*
X1694992Y3523792D01*
X1694992Y4481118D01*
X749300Y4356100D02*
G01*
X965707Y4356100D01*
X1373911Y4764303D01*
X3505200Y4584700D02*
G01*
X3505200Y4965700D01*
X3035300Y6134100D02*
G01*
X3086100Y6184900D01*
X3086100Y6604000D01*
X3505200Y2717800D02*
G01*
X3505200Y2362200D01*
X749300Y4864100D02*
G01*
X1612900Y5727700D01*
X1612900Y6604000D01*
X3505200Y6045200D02*
G01*
X3640302Y5910097D01*
X3640302Y5354802D01*
X3505200Y5219700D01*
X3505200Y6045200D02*
G01*
X3630447Y6170447D01*
X3630447Y6567652D01*
X3594100Y6604000D01*
X3505200Y2971800D02*
G01*
X3711143Y3177743D01*
X3711143Y5013756D01*
X3505200Y5219700D01*
X749300Y6134100D02*
G01*
X889000Y6134100D01*
X1358900Y6604000D01*
X3035300Y5880100D02*
G01*
X3370097Y5545302D01*
X3370097Y3868902D01*
X3505200Y3733800D01*
X3035300Y3594100D02*
G01*
X3376447Y3252952D01*
X3376447Y1678152D01*
X3505200Y1549400D01*
X3035300Y5626100D02*
G01*
X2717800Y5943600D01*
X2717800Y6604000D01*
X3035300Y4864100D02*
G01*
X2463800Y5435600D01*
X2463800Y6604000D01*
X3035300Y2578100D02*
G01*
X2907207Y2706192D01*
X2907207Y3635730D01*
X2992577Y3721100D01*
X3263798Y3721100D01*
X3378098Y3606800D01*
X3552266Y3606800D01*
X3640734Y3695268D01*
X3640734Y4195165D01*
X3505200Y4330700D01*
D11*
G01*
X1955800Y6604000D03*
G01*
X2209800Y6604000D03*
G01*
X2463800Y6604000D03*
G01*
X2717800Y6604000D03*
G01*
X3505200Y4965700D03*
G01*
X3505200Y5219700D03*
G01*
X3505200Y5473700D03*
G01*
X3505200Y5727700D03*
G01*
X1612900Y6604000D03*
G01*
X1358900Y6604000D03*
G01*
X1104900Y6604000D03*
G01*
X850900Y6604000D03*
D12*
G01*
X3086100Y6604000D03*
D13*
G01*
X3340100Y6604000D03*
G01*
X3594100Y6604000D03*
D14*
G01*
X3505200Y2362200D03*
D15*
G01*
X3505200Y2108200D03*
D14*
G01*
X3505200Y4584700D03*
D15*
G01*
X3505200Y4330700D03*
D14*
G01*
X3505200Y6299200D03*
D15*
G01*
X3505200Y6045200D03*
D14*
G01*
X3505200Y1803400D03*
D15*
G01*
X3505200Y1549400D03*
D16*
G01*
X3505200Y2717800D03*
D11*
G01*
X3505200Y2971800D03*
G01*
X3505200Y3225800D03*
G01*
X3505200Y3479800D03*
G01*
X3505200Y3733800D03*
G01*
X3505200Y3987800D03*
G01*
X749300Y6134100D03*
G01*
X749300Y5880100D03*
G01*
X749300Y5626100D03*
G01*
X749300Y5372100D03*
G01*
X749300Y5118100D03*
G01*
X749300Y4864100D03*
G01*
X749300Y4610100D03*
G01*
X749300Y4356100D03*
G01*
X749300Y4102100D03*
G01*
X749300Y3848100D03*
G01*
X749300Y3594100D03*
G01*
X749300Y3340100D03*
G01*
X749300Y3086100D03*
G01*
X749300Y2832100D03*
G01*
X749300Y2578100D03*
G01*
X749300Y2324100D03*
G01*
X749300Y2070100D03*
G01*
X749300Y1816100D03*
G01*
X749300Y1562100D03*
G01*
X3035300Y1562100D03*
G01*
X3035300Y1816100D03*
G01*
X3035300Y2070100D03*
G01*
X3035300Y2324100D03*
G01*
X3035300Y2578100D03*
G01*
X3035300Y2832100D03*
G01*
X3035300Y3086100D03*
G01*
X3035300Y3340100D03*
G01*
X3035300Y3594100D03*
G01*
X3035300Y3848100D03*
G01*
X3035300Y4102100D03*
G01*
X3035300Y4356100D03*
G01*
X3035300Y4610100D03*
G01*
X3035300Y4864100D03*
G01*
X3035300Y5118100D03*
G01*
X3035300Y5372100D03*
G01*
X3035300Y5626100D03*
G01*
X3035300Y5880100D03*
G01*
X3035300Y6134100D03*
D17*
G01*
X1694992Y4481118D03*
G01*
X1373911Y4764303D03*
M02*
