<?xml version="1.0" encoding="UTF-8" standalone="no"?>
<!-- Created with Inkscape (http://www.inkscape.org/) -->

<svg
   xmlns:dc="http://purl.org/dc/elements/1.1/"
   xmlns:cc="http://creativecommons.org/ns#"
   xmlns:rdf="http://www.w3.org/1999/02/22-rdf-syntax-ns#"
   xmlns:svg="http://www.w3.org/2000/svg"
   xmlns="http://www.w3.org/2000/svg"
   xmlns:sodipodi="http://sodipodi.sourceforge.net/DTD/sodipodi-0.dtd"
   xmlns:inkscape="http://www.inkscape.org/namespaces/inkscape"
   width="230"
   height="125"
   viewBox="0 0 60.854166 33.072917"
   version="1.1"
   id="svg1026"
   sodipodi:docname="_status_detected.svg"
   inkscape:version="0.92.2 (5c3e80d, 2017-08-06)">
  <defs
     id="defs1020" />
  <sodipodi:namedview
     id="base"
     pagecolor="#ffffff"
     bordercolor="#666666"
     borderopacity="1.0"
     inkscape:pageopacity="0.0"
     inkscape:pageshadow="2"
     inkscape:zoom="3.959798"
     inkscape:cx="105.74626"
     inkscape:cy="72.045303"
     inkscape:document-units="mm"
     inkscape:current-layer="layer1"
     showgrid="false"
     units="px"
     inkscape:window-width="1680"
     inkscape:window-height="987"
     inkscape:window-x="-8"
     inkscape:window-y="-8"
     inkscape:window-maximized="1"
     inkscape:pagecheckerboard="true" />
  <metadata
     id="metadata1023">
    <rdf:RDF>
      <cc:Work
         rdf:about="">
        <dc:format>image/svg+xml</dc:format>
        <dc:type
           rdf:resource="http://purl.org/dc/dcmitype/StillImage" />
        <dc:title></dc:title>
      </cc:Work>
    </rdf:RDF>
  </metadata>
  <g
     inkscape:label="Ebene 1"
     inkscape:groupmode="layer"
     id="layer1"
     transform="translate(0,-263.92705)">
    <g
       id="layer1-2"
       transform="matrix(0.65,0,0,0.65,0.09260417,103.85738)">
      <path
         style="fill:#000000;fill-opacity:1;stroke-width:0.26458332"
         d="m 0.26458333,275.70387 c 0,-19.99742 0.02464,-21.09637 0.50104145,-22.35017 1.06524442,-2.8035 3.32512692,-4.97361 6.07525862,-5.83393 0.9248321,-0.28932 2.2426746,-0.52603 2.9285372,-0.52603 1.5319874,0 3.7508774,0.63643 5.0216714,1.44034 1.363291,0.86242 3.154227,2.89464 3.819442,4.33401 0.508935,1.10123 0.581264,1.782 0.658494,6.19805 l 0.08676,4.96094 h 1.483347 c 1.918495,0 3.547189,0.77433 4.352418,2.06929 0.601969,0.96808 0.606015,1.03944 0.737581,13.01195 0.07276,6.6212 0.225322,12.22344 0.339027,12.44942 0.301251,0.59872 1.618047,1.30892 2.426912,1.30892 0.93695,0 2.167502,-0.6628 2.584027,-1.3918 0.229131,-0.40104 0.381333,-2.27571 0.470863,-5.79966 0.120138,-4.72874 0.182402,-5.27411 0.677806,-5.93677 0.300031,-0.40134 0.874206,-0.97518 1.27594,-1.27522 0.712126,-0.53184 1.067389,-0.54734 14.178059,-0.61863 13.447627,-0.0731 13.447627,-0.0731 13.604494,-0.69812 0.08628,-0.34376 0.578788,-0.99546 1.094471,-1.44824 0.880657,-0.77323 1.065056,-0.82323 3.035858,-0.82323 1.968087,0 2.156066,0.0508 3.03023,0.81829 0.522896,0.45911 1.066788,1.26824 1.239101,1.84337 0.255508,0.85281 0.230822,1.22489 -0.146879,2.21388 -0.295431,0.77358 -0.756535,1.37577 -1.320172,1.72411 -0.965547,0.59674 -3.250042,0.84214 -4.566449,0.49053 -0.888655,-0.23737 -2.46916,-1.81788 -2.46916,-2.46918 0,-0.33524 -1.755334,-0.38767 -12.977709,-0.38767 -10.753053,0 -13.103484,0.0651 -13.711441,0.37943 -1.443154,0.74629 -1.47919,0.89359 -1.621235,6.62703 -0.132291,5.3398 -0.132291,5.3398 -0.894772,6.33848 -0.419363,0.54929 -1.189872,1.17728 -1.712238,1.39554 -1.234376,0.51576 -3.174506,0.32862 -4.205726,-0.40569 -1.619569,-1.15323 -1.625184,-1.19914 -1.668022,-13.63984 -0.02143,-6.22381 -0.149571,-11.71659 -0.284757,-12.20619 -0.135184,-0.48959 -0.608629,-1.19549 -1.052099,-1.56864 -0.666852,-0.56112 -1.077369,-0.67847 -2.373509,-0.67847 H 19.31456 v 15.74271 15.74271 H 9.7895706 0.26458333 Z m 11.17346367,5.48867 c 2.200198,-3.31263 3.008909,-4.73312 2.778122,-4.87973 -0.179059,-0.11374 -1.248296,-0.20862 -2.376081,-0.21085 -1.127784,-0.002 -2.0505174,-0.0712 -2.0505174,-0.15315 0,-0.082 0.5357794,-1.40338 1.1906224,-2.93638 1.178522,-2.75895 1.42156,-3.65589 0.944318,-3.48501 -0.397993,0.14251 -6.8493566,8.8002 -6.7197587,9.01788 0.06498,0.10914 1.1826727,0.19844 2.4837703,0.19844 1.3273735,0 2.3656314,0.11096 2.3656314,0.25283 0,0.13905 -0.5357797,1.6391 -1.1906228,3.33343 -0.6548433,1.69433 -1.1906237,3.1879 -1.1906237,3.31904 0,0.13115 0.1488278,0.23349 0.3307287,0.22743 0.1819008,-0.006 1.7273857,-2.11383 3.4344108,-4.68393 z m 56.692006,-1.43863 c 0.553962,-0.65834 0.674525,-1.01889 0.55297,-1.65364 -0.0855,-0.44646 -0.459874,-1.07963 -0.831944,-1.40705 -0.540691,-0.47581 -0.994632,-0.59531 -2.261267,-0.59531 -1.329818,0 -1.68925,0.10448 -2.2342,0.64943 -0.448382,0.44838 -0.649432,0.94356 -0.649432,1.59952 0,0.65597 0.20105,1.15115 0.649432,1.59953 0.555404,0.55541 0.896756,0.64943 2.357725,0.64943 1.595013,0 1.755277,-0.0558 2.416716,-0.84191 z M 15.87498,261.28124 v -3.43958 H 9.7895706 3.7041622 v 3.43958 3.43959 H 9.7895706 15.87498 Z m 26.395486,31.60041 c -1.265271,-0.68653 -1.487742,-1.51252 -1.533195,-5.69237 -0.03667,-3.37225 -0.117562,-4.01033 -0.696549,-5.49447 -0.360286,-0.92352 -0.605848,-1.72835 -0.545698,-1.7885 0.125175,-0.12518 21.121455,-0.17835 21.208651,-0.0537 0.03146,0.045 0.33429,0.48259 0.672951,0.97249 1.275952,1.84577 4.581834,2.46659 6.880392,1.29209 1.724595,-0.88123 2.254361,-1.75625 2.254361,-3.72357 0,-1.30154 -0.129334,-1.81559 -0.635282,-2.52497 -1.8859,-2.64422 -7.152616,-2.46426 -8.625125,0.2947 -0.529165,0.99147 -0.529165,0.99147 -11.210192,0.99219 l -10.681027,7.9e-4 0.113956,-2.4474 c 0.08145,-1.74924 0.277622,-2.81206 0.687683,-3.72573 0.573725,-1.27834 0.573725,-1.27834 -0.195237,-1.92538 -0.982725,-0.82691 -1.236374,-1.92952 -0.687877,-2.9902 0.576982,-1.11576 1.810838,-1.70869 3.168461,-1.5226 1.082611,0.14838 1.082611,0.14838 4.057153,-5.47518 1.723013,-3.25748 3.336045,-5.9671 3.833734,-6.44002 0.472556,-0.44912 1.394972,-1.09725 2.049815,-1.44036 1.190624,-0.62383 1.190624,-0.62383 14.022901,-0.62383 12.832278,0 12.832278,0 14.155193,0.70293 0.727603,0.38661 1.676337,1.07511 2.108296,1.52999 0.431957,0.45488 2.0393,3.29371 3.571871,6.30853 2.78649,5.48146 2.78649,5.48146 4.208957,5.49455 1.259829,0.0116 1.509399,0.11039 2.182811,0.86408 1.046764,1.17153 1.014107,2.22928 -0.103331,3.34672 -0.863675,0.86367 -0.863675,0.86367 -0.198437,2.28864 0.617937,1.32364 0.665236,1.70789 0.665236,5.40406 0,3.82428 -0.02831,4.03368 -0.727604,5.38223 -0.692675,1.33578 -0.727791,1.58296 -0.731503,5.14904 -0.0026,2.44599 -0.117316,3.96658 -0.330728,4.38184 -0.179755,0.34978 -0.662633,0.88556 -1.073062,1.19063 -0.615,0.45713 -1.21114,0.57076 -3.389836,0.64612 -2.87612,0.0995 -3.760655,-0.12148 -4.767473,-1.19105 -0.538869,-0.57244 -0.639027,-1.00032 -0.75374,-3.21988 l -0.132291,-2.5597 H 66.145759 51.196817 l -0.132292,2.51354 c -0.08002,1.52044 -0.2805,2.73656 -0.507417,3.07803 -0.770354,1.15924 -1.640523,1.42056 -4.692774,1.40929 -2.019618,-0.007 -3.084122,-0.127 -3.593868,-0.40357 z M 83.455702,265.0492 c 0.08148,-0.25673 -0.680274,-2.59964 -1.698982,-5.22553 -2.012554,-5.18768 -2.588919,-6.00525 -4.450554,-6.31307 -0.535678,-0.0886 -5.617392,-0.16168 -11.292699,-0.16247 -6.553793,-9e-4 -10.692599,0.10237 -11.343391,0.28307 -0.56356,0.15648 -1.300474,0.58212 -1.637585,0.94587 -0.33711,0.36375 -1.456913,2.80847 -2.488448,5.43271 -1.463517,3.7232 -1.808661,4.8519 -1.571163,5.13807 0.253647,0.30562 3.139405,0.36673 17.319739,0.36673 16.005609,0 17.024143,-0.0276 17.163083,-0.46538 z"
         id="path213"
         inkscape:connector-curvature="0" />
    </g>
  </g>
</svg>
